<svg width="150" height="150" viewBox="0 0 150 150" fill="none" xmlns="http://www.w3.org/2000/svg">
<circle cx="74.5" cy="75.5" r="72.5" fill="#FFEBDE"/>
<path d="M110.805 84.8643L107.85 88.0292" stroke="#2E3345" stroke-width="0.974125" stroke-linecap="round"/>
<mask id="mask0_24_77" style="mask-type:luminance" maskUnits="userSpaceOnUse" x="106" y="69" width="10" height="46">
<path d="M106.552 69.4912H115.498V114.037H106.552V69.4912Z" fill="white"/>
</mask>
<g mask="url(#mask0_24_77)">
<path d="M109.814 97.3019C109.303 104.056 107.753 108.152 107.773 110.643C107.785 112.485 108.654 113.444 111.432 113.95C111.913 114.035 112.58 113.875 113.029 113.703C113.686 113.461 114.205 112.947 114.454 112.295C114.509 112.161 114.557 112.023 114.602 111.886C114.754 111.412 114.861 110.925 114.926 110.433C114.926 110.418 114.929 110.411 114.929 110.396C114.974 110.071 115.001 109.744 115.016 109.417C115.051 108.684 115.033 107.942 115.008 107.204C114.998 106.931 114.989 106.654 114.979 106.38C114.969 106.135 114.964 105.896 114.961 105.654C114.961 105.244 114.956 104.832 114.954 104.425C114.951 104.228 114.951 104.031 114.944 103.836C114.919 101.882 114.849 99.9277 114.766 97.9733C114.766 97.9458 114.764 97.9134 114.764 97.8859C114.749 97.5964 114.736 97.3094 114.724 97.0223C114.714 96.8651 114.709 96.7078 114.701 96.5506C114.686 96.2011 114.652 95.8442 114.652 95.4948C114.569 93.8923 114.474 92.2924 114.352 90.6924C114.33 90.4054 114.307 90.1159 114.285 89.8288C114.25 89.397 114.215 88.9652 114.177 88.5334C114.038 86.9684 113.873 85.4034 113.668 83.8484C113.633 83.5713 113.598 83.2968 113.561 83.0197C113.553 82.9748 113.548 82.9274 113.541 82.8824C113.334 81.3873 113.094 79.8972 112.787 78.4221C112.555 77.2789 112.285 76.1407 111.951 75.025C111.883 74.8029 111.814 74.5782 111.741 74.3561C111.547 73.752 111.322 73.1605 111.067 72.5789C110.94 72.2969 110.805 72.0173 110.658 71.7403V71.7378C110.511 71.4707 110.351 71.2111 110.176 70.964C109.942 70.6146 109.65 70.3076 109.315 70.0555C109.083 69.8807 108.811 69.7734 108.524 69.741C108.284 69.721 108.042 69.7734 107.832 69.8907C107.618 70.018 107.433 70.1878 107.288 70.3924C107.243 70.4573 107.201 70.5197 107.161 70.5871C107.064 70.7593 106.984 70.9391 106.924 71.1263C106.904 71.1887 106.884 71.256 106.869 71.3184C106.574 72.4841 107.236 73.7171 108.007 76.7498C108.182 77.4411 108.364 78.2224 108.541 79.1235C109.078 81.8166 109.472 84.5323 109.722 87.2654C109.737 87.4501 109.754 87.6323 109.767 87.8146C110.034 90.9695 110.049 94.1444 109.814 97.3019Z" fill="#AA7E50"/>
</g>
<mask id="mask1_24_77" style="mask-type:luminance" maskUnits="userSpaceOnUse" x="81" y="52" width="56" height="40">
<path d="M81.864 52.239H136.968V91.8556H81.864V52.239Z" fill="white"/>
</mask>
<g mask="url(#mask1_24_77)">
<path d="M91.7683 91.566H92.4547C92.5869 91.5136 92.7217 91.4637 92.854 91.4087C93.6502 91.0918 94.2069 90.4727 94.7235 89.8388C95.4898 88.9003 96.0913 87.8494 96.643 86.7737C96.8651 86.3468 97.0748 85.915 97.2894 85.4832C97.3543 85.5806 97.3968 85.6929 97.4117 85.8077C97.6114 86.7487 98.3178 87.0907 99.0666 86.5166C99.401 86.247 99.6956 85.935 99.9452 85.5856C100.856 84.3401 101.6 82.9772 102.152 81.532C102.274 81.22 102.406 80.9105 102.539 80.5911C102.633 80.8132 102.711 81.0104 102.803 81.2026C103.053 81.7267 103.654 81.9664 104.263 81.567C104.668 81.3024 104.932 80.913 105.179 80.5212C106.06 79.1209 106.634 77.5834 107.169 76.0284C107.528 74.9775 107.71 73.8693 108.155 72.8435C108.409 72.2594 108.624 71.6603 108.853 71.0738C109.193 71.6254 109.527 72.1595 109.852 72.6962C110.658 74.0315 111.459 75.3694 112.27 76.6998C113.236 78.2872 114.267 79.8273 115.687 81.0578C115.915 81.2575 116.169 81.4197 116.446 81.537C116.753 81.6693 117.113 81.5296 117.245 81.22C117.275 81.1527 117.292 81.0803 117.295 81.0079C117.315 80.7059 117.22 80.3964 117.178 80.0919L117.198 79.9446L117.233 80.0469C117.634 80.5012 118.036 80.953 118.438 81.4048C119.102 82.1685 119.863 82.84 120.702 83.4065C120.962 83.5913 121.279 83.6761 121.596 83.6412C121.962 83.6012 122.182 83.3941 122.177 83.0297C122.175 82.7451 122.135 82.4631 122.11 82.1785L122.057 82.191L122.065 82.1386L122.105 82.1885C122.165 82.2309 122.222 82.2784 122.274 82.3308C123.19 83.4041 124.204 84.3775 125.434 85.0839C125.896 85.336 126.373 85.5531 126.865 85.7353C127.107 85.8451 127.391 85.7778 127.558 85.5731C127.726 85.3734 127.701 85.1837 127.494 84.8817C127.286 84.5797 127.077 84.2802 126.867 83.9781C126.862 83.9482 126.857 83.9182 126.85 83.8908L126.922 83.9257C127.022 83.9981 127.124 84.073 127.224 84.1454C127.676 84.4649 128.113 84.8093 128.584 85.1013C129.223 85.5007 129.955 85.5481 130.674 85.4508C131.647 85.3185 132.221 84.4798 132.234 83.5913C132.248 82.8449 132.069 82.1086 131.707 81.4547C131.41 80.918 131.105 80.3864 130.788 79.8597C129.71 78.0676 128.375 76.4726 126.949 74.9526C125.989 73.9217 124.953 72.9658 123.852 72.0872C122.379 70.9016 120.759 69.9106 119.035 69.1369C118.92 69.0845 118.812 69.0171 118.645 68.9272C119.347 68.78 120.023 68.6851 120.163 67.8564C120.2 67.8639 120.235 67.8739 120.27 67.8864C121.094 68.3382 121.987 68.6477 122.913 68.8049C123.31 68.8748 123.72 68.8798 124.121 68.8199C124.626 68.7325 124.935 68.3656 125.038 67.8689C125.557 68.116 126.041 68.3831 126.553 68.5853C127.366 68.9072 128.185 69.2267 129.099 69.077C129.655 68.9996 130.154 68.6976 130.479 68.2433C130.763 67.8789 130.848 67.3972 130.703 66.9579C130.823 67.0103 130.898 67.0402 130.973 67.0727C132.248 67.6567 133.571 68.131 134.927 68.4929C135.241 68.5828 135.563 68.6402 135.888 68.6651C136.382 68.6926 136.741 68.4455 136.968 68.0062V67.0902C136.946 67.0627 136.906 67.0377 136.904 67.0078C136.841 66.3788 136.592 65.7822 136.19 65.2955C135.259 64.1074 134.128 63.0916 132.845 62.2928C132.368 61.9933 131.852 61.7537 131.377 61.4467C130.683 60.9924 129.93 60.6355 129.138 60.3859C128.053 60.0389 126.934 59.8068 125.801 59.6945C124.898 59.6121 123.994 59.5198 123.088 59.4773C122.584 59.4524 122.077 59.5347 121.571 59.5397C120.552 59.5697 119.539 59.697 118.545 59.9191C115.845 60.4732 113.299 61.6214 111.092 63.2763C111.002 63.3437 110.9 63.3961 110.803 63.4535L110.758 63.3886C110.808 63.3012 110.863 63.2189 110.925 63.1415C112.001 61.9933 113.069 60.8402 114.162 59.7095C114.612 59.2452 115.106 58.8259 115.593 58.3991C116.154 57.9098 116.726 57.4306 117.3 56.9564C118.031 56.3498 118.785 55.7708 119.494 55.1443C119.783 54.8797 120.023 54.5677 120.208 54.2232C120.52 53.6641 120.335 53.2298 119.741 52.9852C119.177 52.7581 118.558 52.7206 117.971 52.8729C117.322 53.0302 116.711 53.3122 116.169 53.6991C116.002 53.8164 115.832 53.9287 115.64 54.0585C115.635 53.437 115.38 53.2448 114.821 53.4021C114.604 53.4595 114.392 53.5368 114.187 53.6267C113.299 54.0261 112.488 54.5802 111.791 55.2591C111.392 55.646 110.992 56.0304 110.593 56.4147L110.561 56.4696L110.546 56.4222L110.601 56.4247C110.598 56.1726 110.613 55.918 110.591 55.6659C110.538 55.0569 110.017 54.7524 109.53 54.9571C109.128 55.1418 108.764 55.3964 108.452 55.7109C107.536 56.6019 106.837 57.6927 106.41 58.8983C106.118 59.6446 105.936 60.4308 105.868 61.2295C105.831 61.7712 105.753 62.3128 105.758 62.8544C105.766 63.4984 105.838 64.1399 105.883 64.7838L105.926 64.8438L105.871 64.8038C105.773 64.7239 105.683 64.6391 105.599 64.5467C105.109 63.9627 104.54 63.4535 103.906 63.0366C102.668 62.208 101.233 61.7163 99.748 61.6139C99.1415 61.5815 98.5324 61.6039 97.9309 61.6863C97.272 61.7612 96.618 61.876 95.9715 62.0258C94.0696 62.4601 92.2749 63.1939 90.5402 64.085C89.1325 64.8063 87.8545 65.7198 86.5865 66.6583C85.3585 67.5669 84.2029 68.5428 83.2344 69.7259C82.6753 70.4098 82.1611 71.1237 81.9814 72.0248C81.8566 72.6687 82.1337 73.2852 82.7602 73.4675C83.1196 73.5798 83.504 73.5997 83.8759 73.5274C84.4699 73.3826 85.049 73.1729 85.6006 72.9059C86.639 72.4091 87.55 71.7028 88.4785 71.0289C88.7181 70.8541 88.9553 70.6769 89.1949 70.4997C89.1924 70.642 89.1699 70.7817 89.1225 70.914C88.9927 71.5755 89.1824 72.0023 89.9162 71.8925C90.2632 71.85 90.6001 71.7402 90.9046 71.568C91.7433 71.0563 92.5495 70.4972 93.3657 69.9506C93.6852 69.7384 93.9947 69.5188 94.3092 69.2991C94.2368 69.5312 94.1494 69.7559 94.0446 69.973C93.8549 70.4448 94.1395 70.8941 94.6437 70.8941C94.8933 70.8866 95.1404 70.8442 95.38 70.7668C96.1612 70.5471 96.8601 70.1378 97.5515 69.7259C98.2105 69.3316 98.8569 68.9172 99.5084 68.5104L99.5907 68.4854L99.5458 68.5428C99.5159 68.7151 99.5034 68.8898 99.5084 69.0645C99.5758 69.6161 99.9077 69.8557 100.497 69.9032C100.799 69.9281 101.106 69.8732 101.48 69.8482C101.373 69.9381 101.318 69.9855 101.261 70.028C99.8503 71.0139 98.5274 72.1171 97.3044 73.3277C96.4133 74.2113 95.5772 75.1473 94.8009 76.1307C93.83 77.3562 93.0013 78.6916 92.3373 80.1093C91.2591 82.4506 90.4903 84.8892 90.2332 87.4725C90.1533 88.1614 90.1558 88.8578 90.2357 89.5467C90.363 90.5227 90.7898 91.2465 91.7683 91.566ZM110.561 63.5508L110.571 63.5708L110.558 63.5533L110.715 63.4984L110.728 63.5658L110.561 63.5508Z" fill="#6C754D"/>
</g>
<mask id="mask2_24_77" style="mask-type:luminance" maskUnits="userSpaceOnUse" x="104" y="69" width="12" height="46">
<path d="M104.635 69.4912H115.498V114.037H104.635V69.4912Z" fill="white"/>
</mask>
<g mask="url(#mask2_24_77)">
<path d="M107.773 110.643C107.785 112.485 108.654 113.443 111.432 113.95C111.913 114.035 112.58 113.875 113.029 113.703C113.95 113.354 114.335 112.702 114.602 111.886C114.587 111.888 109.759 112.497 107.773 110.643ZM109.073 108.591C109.288 108.344 110.106 109.263 112.485 109.605C115.168 109.992 115.183 108.546 114.929 110.396C112.672 110.83 110.476 110.423 109.073 108.591ZM111.037 106.729C110.942 106.679 110.885 106.545 110.813 106.447C110.828 106.417 110.84 106.39 110.858 106.36C115.408 107.313 114.944 105.381 115.008 107.203C113.171 107.553 112.697 107.59 111.037 106.729ZM113.888 104.073C114.067 103.941 113.813 103.971 114.944 103.836C114.951 104.031 114.951 104.228 114.954 104.425C114.639 104.435 114.325 104.375 114.035 104.251C113.975 104.226 113.94 104.133 113.888 104.073ZM104.752 71.9798C104.905 69.6685 108.349 68.6002 109.155 71.4082C111.484 69.3615 112.952 73.3302 111.045 74.1713C110.738 74.3061 110.408 74.3885 110.086 74.4933C110.488 76.3229 106.886 76.872 107.263 74.1938C106.1 74.3036 104.658 73.4325 104.752 71.9798ZM113.186 98.3426C112.208 98.4849 110.838 98.2278 110.558 97.3318C111.414 97.4041 112.016 97.781 113.78 97.3118C114.841 97.0297 114.766 96.7078 114.766 97.9732C114.245 98.123 113.718 98.2478 113.186 98.3426ZM111.601 90.0534C112.517 89.9785 113.399 89.9061 114.285 89.8288C114.307 90.1158 114.33 90.4053 114.352 90.6924C113.441 90.8471 111.716 90.9944 111.601 90.0534ZM110.174 101.253C111.514 101.615 112.867 101.53 114.222 101.553C113.653 102.451 111.537 102.119 110.603 101.772C110.401 101.697 110.199 101.582 110.174 101.253ZM110.997 83.5239C111.861 83.2518 112.73 83.2568 113.561 83.0197C113.598 83.2967 113.633 83.5713 113.668 83.8483C112.824 84.068 111.469 84.2627 110.997 83.5239ZM111.809 80.7233C111.494 81.27 110.266 81.6743 109.495 81.3398C109.1 81.1676 109.053 80.7558 109.637 80.6784C109.929 80.6759 110.221 80.651 110.508 80.606C110.945 80.5311 111.509 80.1592 111.809 80.7233ZM109.767 87.8145C109.754 87.6323 109.737 87.4501 109.722 87.2654C110.393 87.2154 111.052 86.9584 111.749 87.2404C111.359 87.807 110.591 87.832 109.767 87.8145ZM113.039 94.5787C112.74 95.0005 112.011 94.9805 111.477 94.7359C110.461 94.2742 113.75 93.5878 113.039 94.5787ZM109.789 79.0385C109.63 78.9162 109.667 78.6317 109.847 78.5793C112.138 77.9228 110.625 79.6775 109.789 79.0385ZM111.961 99.9551C111.479 99.5133 112.463 99.3036 113.116 99.5307C112.952 100.045 112.298 100.262 111.961 99.9551ZM111.1 104.148C111.422 104.071 112.091 104.176 112.37 104.346C111.831 104.565 111.304 104.483 111.1 104.148ZM112.72 85.4458C112.517 85.8327 112.24 85.9175 111.839 85.6879C112.021 85.4608 112.398 85.3634 112.72 85.4458ZM112.575 92.4346C112.453 92.3048 112.325 92.2324 112.313 92.1451C112.268 91.8231 112.862 91.8106 112.832 92.1301C112.824 92.2224 112.69 92.3048 112.575 92.4346Z" fill="#735334"/>
</g>
<path d="M121.451 63.7705C125.33 63.2089 131.854 65.2406 131.854 65.0335C128.584 61.886 113.768 63.7056 128.485 62.0008C122.507 60.8277 123.403 62.9493 115.812 63.8004C117.994 62.7147 120.283 61.911 122.686 61.2171C119.312 60.7029 115.992 63.471 112.54 64.8862C112.051 65.0784 109.754 66.0668 109.932 66.5885C113.706 64.8138 115.618 64.5892 120.41 66.5011C121.426 66.7981 120.43 66.1417 119.881 65.9195C117.18 64.8263 116.386 64.9361 115.405 64.5842C117.996 64.0775 119.641 63.2089 126.6 65.8297C126.453 64.6017 122.681 63.9028 121.451 63.7705ZM112.463 68.6552C121.024 70.6495 126.098 81.8341 124.83 80.3689C120.545 75.4119 122.544 76.7697 122.225 78.749C121.413 78.0526 120.245 73.7146 118.538 72.9158C119.102 74.1713 119.611 75.3495 119.404 76.7772C117.629 74.381 118.431 72.2894 115.108 70.5147C114.23 70.0454 116.277 71.8501 116.234 74.1414C115.375 73.0681 115.338 73.0207 113.668 70.1652C113.022 69.062 110.858 69.379 110.925 68.7101C110.968 68.2982 112.056 68.5603 112.463 68.6552ZM104.518 66.3738C104.021 67.2599 102.91 64.9112 100.899 65.6874C100.716 65.7573 97.8386 66.883 97.7562 66.7133C98.5549 65.9145 99.0616 65.2856 100.964 64.674C98.8794 64.05 96.8177 65.3055 94.7435 66.2116C93.5604 66.7258 95.6595 64.6865 96.8277 64.1149C96.0814 64.1574 94.2218 64.3171 93.5904 64.719C89.7465 67.18 90.5352 66.6484 90.1484 66.9579C89.8738 66.6858 90.7923 65.7798 91.0519 65.4353C89.407 66.0044 89.6092 65.9595 89.5493 65.8746C92.2076 62.8919 100.909 61.4891 104.518 66.3738ZM103.025 72.1371C103.584 72.7262 101.513 73.5074 101.458 74.2263C101.34 75.8062 100.861 76.4926 100.686 76.8346C100.554 76.7921 100.587 77.0343 100.587 74.8977C99.9477 75.654 99.5458 76.0408 99.3411 76.6199C99.2837 77.184 97.4342 83.3292 98.0857 78.1899C95.7394 81.6194 92.8266 87.7696 93.3333 85.7853C95.0954 78.8938 102.227 71.2959 103.025 72.1371ZM119.184 55.5511C105.272 68.0936 115.945 58.7261 117.824 60.2686C116.788 60.8676 117.008 60.2311 113.975 61.9734C109.522 64.5368 109.253 66.913 108.514 66.4861C107.778 64.6141 121.885 51.7472 119.184 55.5511ZM107.303 67.6318C106.847 68.3057 106.432 68.2583 105.851 68.5129C97.9808 71.9699 96.3285 75.2945 92.9913 79.5702C92.6094 79.4704 93.8025 76.7048 96.9999 73.2653C99.8953 70.1528 106.954 66.7906 107.303 67.6318ZM125.657 73.5723C124.708 74.361 123.198 69.0745 111.04 67.7042C109.61 67.5419 110.106 67.7366 109.605 67.4945C110.359 65.9595 123.907 69.0395 125.657 73.5723ZM107.78 60.014C108.232 60.1288 108.541 60.9275 108.636 62.1206C111.816 54.5103 116.089 54.7274 114.125 55.8257C112.652 56.6469 111.467 58.1545 112.203 57.4955C112.937 57.0862 113.211 56.8266 113.808 57.0138C111.819 58.6986 110.428 58.7485 109.345 61.7238C109.223 62.2155 111.135 59.5497 112.265 59.4873C112.43 59.8767 108.818 62.4975 108.614 64.0101C108.524 64.684 108.342 64.8537 108.312 64.9012C108.125 64.5942 108.14 64.5268 108.16 62.4501C108.17 61.3718 107.932 60.8551 107.78 60.014ZM99.9127 61.9434C100.232 61.2146 104.71 63.0217 105.846 64.0076C106.545 64.6116 107.146 65.3255 107.783 65.9994C107.897 66.1242 108 66.2865 107.84 66.5161C106.944 66.1966 106.507 65.7049 105.758 65.1009C103.227 63.0591 99.6706 62.5 99.9127 61.9434ZM103.48 77.6233C103.754 78.7939 101.036 84.2178 100.257 84.4873C100.696 83.2293 101.248 82.2983 102.641 79.2682C103.22 78.0052 103.085 77.5235 103.48 77.6233Z" fill="#4F563A"/>
<mask id="mask3_24_77" style="mask-type:luminance" maskUnits="userSpaceOnUse" x="31" y="69" width="10" height="46">
<path d="M31.1526 69.4912H40.0983V114.037H31.1526V69.4912Z" fill="white"/>
</mask>
<g mask="url(#mask3_24_77)">
<path d="M36.9358 97.3019C37.4475 104.056 38.9975 108.152 38.9775 110.643C38.9651 112.485 38.0964 113.444 35.3184 113.95C34.8367 114.035 34.1702 113.875 33.7209 113.703C33.0645 113.461 32.5453 112.947 32.2957 112.295C32.2408 112.161 32.1934 112.023 32.151 111.886C31.9962 111.412 31.8889 110.925 31.8265 110.433C31.8265 110.418 31.8215 110.411 31.8215 110.396C31.7766 110.071 31.7491 109.744 31.7341 109.417C31.6992 108.684 31.7167 107.942 31.7416 107.204C31.7516 106.931 31.7616 106.654 31.7716 106.38C31.7816 106.135 31.7865 105.896 31.7915 105.654C31.7915 105.244 31.794 104.832 31.7965 104.425C31.799 104.228 31.799 104.031 31.8065 103.836C31.8315 101.882 31.9014 99.9277 31.9837 97.9733C31.9837 97.9458 31.9887 97.9134 31.9887 97.8859C32.0012 97.5964 32.0137 97.3094 32.0262 97.0223C32.0361 96.8651 32.0411 96.7078 32.0486 96.5506C32.0636 96.2011 32.0985 95.8442 32.0985 95.4948C32.1809 93.8923 32.2758 92.2924 32.3981 90.6924C32.4205 90.4054 32.443 90.1159 32.4655 89.8288C32.5004 89.397 32.5353 88.9652 32.5728 88.5334C32.7126 86.9684 32.8773 85.4034 33.082 83.8484C33.1169 83.5713 33.1519 83.2968 33.1893 83.0197C33.1968 82.9748 33.2018 82.9274 33.2093 82.8824C33.4164 81.3873 33.6561 79.8972 33.9631 78.4221C34.1952 77.2789 34.4648 76.1407 34.7992 75.025C34.8666 74.8029 34.9365 74.5782 35.0089 74.3561C35.2036 73.752 35.4282 73.1605 35.6828 72.5789C35.8101 72.2969 35.9449 72.0173 36.0922 71.7403V71.7378C36.2394 71.4707 36.3992 71.2111 36.5739 70.964C36.8085 70.6146 37.1005 70.3076 37.435 70.0555C37.6671 69.8807 37.9392 69.7734 38.2262 69.741C38.4684 69.721 38.708 69.7734 38.9176 69.8907C39.1323 70.018 39.317 70.1878 39.4618 70.3924C39.5067 70.4573 39.5516 70.5197 39.5891 70.5871C39.6864 70.7593 39.7663 70.9391 39.8262 71.1263C39.8461 71.1887 39.8661 71.256 39.8811 71.3184C40.1781 72.4841 39.5167 73.7171 38.7429 76.7498C38.5682 77.4411 38.386 78.2224 38.2088 79.1235C37.6721 81.8166 37.2778 84.5323 37.0282 87.2654C37.0132 87.4501 36.9957 87.6323 36.9832 87.8146C36.7162 90.9695 36.7012 94.1444 36.9358 97.3019Z" fill="#AA7E50"/>
</g>
<mask id="mask4_24_77" style="mask-type:luminance" maskUnits="userSpaceOnUse" x="9" y="52" width="56" height="40">
<path d="M9.78186 52.239H64.8937V91.8556H9.78186V52.239Z" fill="white"/>
</mask>
<g mask="url(#mask4_24_77)">
<path d="M54.982 91.566H54.2956C54.1633 91.5136 54.0286 91.4637 53.8963 91.4087C53.1001 91.0918 52.5434 90.4727 52.0268 89.8388C51.2605 88.9003 50.659 87.8494 50.1073 86.7737C49.8877 86.3468 49.6755 85.915 49.4609 85.4832C49.396 85.5806 49.3535 85.6929 49.3411 85.8077C49.1389 86.7487 48.4325 87.0907 47.6837 86.5166C47.3493 86.247 47.0547 85.935 46.8051 85.5856C45.8941 84.3401 45.1528 82.9772 44.5987 81.532C44.4763 81.22 44.3441 80.9105 44.2118 80.5911C44.1169 80.8132 44.0395 81.0104 43.9472 81.2026C43.6976 81.7267 43.0961 81.9664 42.487 81.567C42.0827 81.3024 41.8181 80.913 41.571 80.5212C40.6899 79.1209 40.1158 77.5834 39.5817 76.0284C39.2223 74.9775 39.04 73.8693 38.5958 72.8435C38.3412 72.2594 38.1265 71.6603 37.8969 71.0738C37.5574 71.6254 37.2255 72.1595 36.8985 72.6962C36.0923 74.0315 35.291 75.3694 34.4798 76.6998C33.5139 78.2872 32.483 79.8273 31.0628 81.0578C30.8357 81.2575 30.5811 81.4197 30.304 81.537C29.997 81.6693 29.6376 81.5296 29.5053 81.22C29.4754 81.1527 29.4579 81.0803 29.4554 81.0079C29.4354 80.7059 29.5303 80.3964 29.5727 80.0919L29.5527 79.9446L29.5203 80.0469C29.1159 80.5012 28.7141 80.953 28.3122 81.4048C27.6483 82.1685 26.887 82.84 26.0483 83.4065C25.7887 83.5913 25.4718 83.6761 25.1548 83.6412C24.7879 83.6012 24.5682 83.3941 24.5732 83.0297C24.5757 82.7451 24.6156 82.4631 24.6406 82.1785L24.693 82.191L24.6855 82.1386L24.6456 82.1885C24.5857 82.2309 24.5283 82.2784 24.4759 82.3308C23.5598 83.4041 22.5489 84.3775 21.3159 85.0839C20.8541 85.336 20.3774 85.5531 19.8857 85.7353C19.6436 85.8451 19.3615 85.7778 19.1918 85.5731C19.0246 85.3734 19.0495 85.1837 19.2567 84.8817C19.4639 84.5797 19.6735 84.2802 19.8832 83.9781C19.8882 83.9482 19.8932 83.9182 19.9007 83.8908L19.8283 83.9257C19.7284 83.9981 19.6261 84.073 19.5263 84.1454C19.0745 84.4649 18.6377 84.8093 18.1659 85.1013C17.527 85.5007 16.7956 85.5481 16.0768 85.4508C15.1033 85.3185 14.5293 84.4798 14.5168 83.5913C14.5018 82.8449 14.6815 82.1086 15.0434 81.4547C15.3405 80.918 15.645 80.3864 15.962 79.8597C17.0402 78.0676 18.3781 76.4726 19.8033 74.9526C20.7618 73.9217 21.7976 72.9658 22.8984 72.0872C24.371 70.9016 25.9909 69.9106 27.7157 69.1369C27.8305 69.0845 27.9378 69.0171 28.105 68.9272C27.4037 68.78 26.7272 68.6851 26.5875 67.8564C26.55 67.8639 26.5151 67.8739 26.4801 67.8864C25.6565 68.3382 24.7629 68.6477 23.8394 68.8049C23.44 68.8748 23.0307 68.8798 22.6288 68.8199C22.1246 68.7325 21.8151 68.3656 21.7128 67.8689C21.1961 68.116 20.7094 68.3831 20.1977 68.5853C19.384 68.9072 18.5653 69.2267 17.6518 69.077C17.0952 68.9996 16.596 68.6976 16.2715 68.2433C15.9869 67.8789 15.9046 67.3972 16.0468 66.9579C15.927 67.0103 15.8521 67.0402 15.7773 67.0727C14.5018 67.6567 13.1789 68.131 11.8236 68.4929C11.5091 68.5828 11.1871 68.6402 10.8626 68.6651C10.3684 68.6926 10.009 68.4455 9.78186 68.0062V67.0902C9.80432 67.0627 9.84426 67.0377 9.84676 67.0078C9.90916 66.3788 10.1588 65.7822 10.5606 65.2955C11.4916 64.1074 12.6248 63.0916 13.9053 62.2928C14.382 61.9933 14.8987 61.7537 15.3729 61.4467C16.0668 60.9924 16.8206 60.6355 17.6118 60.3859C18.6976 60.0389 19.8158 59.8068 20.949 59.6945C21.8525 59.6121 22.7586 59.5198 23.6646 59.4773C24.1663 59.4524 24.673 59.5347 25.1797 59.5397C26.1981 59.5697 27.2115 59.697 28.2049 59.9191C30.9056 60.4732 33.4515 61.6214 35.658 63.2763C35.7503 63.3437 35.8502 63.3961 35.9475 63.4535L35.9924 63.3886C35.9425 63.3012 35.8876 63.2189 35.8252 63.1415C34.7494 61.9933 33.6811 60.8402 32.5879 59.7095C32.1386 59.2452 31.6444 58.8259 31.1577 58.3991C30.5961 57.9098 30.0245 57.4306 29.4504 56.9564C28.7191 56.3498 27.9653 55.7708 27.2564 55.1443C26.9669 54.8797 26.7272 54.5677 26.5425 54.2232C26.2305 53.6641 26.4152 53.2298 27.0093 52.9852C27.5734 52.7581 28.1924 52.7206 28.779 52.8729C29.4279 53.0302 30.0394 53.3122 30.5811 53.6991C30.7483 53.8164 30.918 53.9287 31.1102 54.0585C31.1152 53.437 31.3698 53.2448 31.9289 53.4021C32.1461 53.4595 32.3582 53.5368 32.5629 53.6267C33.4515 54.0261 34.2627 54.5802 34.9591 55.2591C35.3584 55.646 35.7578 56.0304 36.1572 56.4147L36.1896 56.4696L36.2046 56.4222L36.1497 56.4247C36.1522 56.1726 36.1372 55.918 36.1597 55.6659C36.2121 55.0569 36.7337 54.7524 37.2205 54.9571C37.6223 55.1418 37.9892 55.3964 38.2987 55.7109C39.2148 56.6019 39.9137 57.6927 40.3405 58.8983C40.6325 59.6446 40.8147 60.4308 40.8821 61.2295C40.9195 61.7712 40.9969 62.3128 40.9919 62.8544C40.9844 63.4984 40.9121 64.1399 40.8671 64.7838L40.8247 64.8438L40.8821 64.8038C40.9769 64.7239 41.0668 64.6391 41.1517 64.5467C41.6409 63.9627 42.21 63.4535 42.8465 63.0366C44.082 62.208 45.5172 61.7163 47.0023 61.6139C47.6088 61.5815 48.2179 61.6039 48.8194 61.6863C49.4783 61.7612 50.1323 61.876 50.7788 62.0258C52.6832 62.4601 54.4754 63.1939 56.2101 64.085C57.6178 64.8063 58.8958 65.7198 60.1637 66.6583C61.3918 67.5669 62.5474 68.5428 63.5159 69.7259C64.0775 70.4098 64.5892 71.1237 64.7689 72.0248C64.8937 72.6687 64.6166 73.2852 63.9901 73.4675C63.6307 73.5798 63.2463 73.5997 62.8744 73.5274C62.2804 73.3826 61.7013 73.1729 61.1497 72.9059C60.1113 72.4091 59.2003 71.7028 58.2718 71.0289C58.0322 70.8541 57.795 70.6769 57.5554 70.4997C57.5579 70.642 57.5829 70.7817 57.6278 70.914C57.7576 71.5755 57.5679 72.0023 56.8341 71.8925C56.4871 71.85 56.1502 71.7402 55.8457 71.568C55.007 71.0563 54.2008 70.4972 53.3846 69.9506C53.0651 69.7384 52.7556 69.5188 52.4411 69.2991C52.5135 69.5312 52.6008 69.7559 52.7057 69.973C52.8954 70.4448 52.6108 70.8941 52.1066 70.8941C51.857 70.8866 51.6099 70.8442 51.3703 70.7668C50.5891 70.5471 49.8902 70.1378 49.1988 69.7259C48.5398 69.3316 47.8959 68.9172 47.2419 68.5104L47.1596 68.4854L47.2045 68.5428C47.2344 68.7151 47.2469 68.8898 47.2419 69.0645C47.1745 69.6161 46.8426 69.8557 46.2535 69.9032C45.9515 69.9281 45.6445 69.8732 45.2701 69.8482C45.3774 69.9381 45.4323 69.9855 45.4897 70.028C46.9 71.0139 48.2229 72.1171 49.4459 73.3277C50.337 74.2113 51.1731 75.1473 51.9494 76.1307C52.9203 77.3562 53.749 78.6916 54.413 80.1093C55.4937 82.4506 56.26 84.8892 56.5171 87.4725C56.597 88.1614 56.5945 88.8578 56.5146 89.5467C56.3873 90.5227 55.9605 91.2465 54.982 91.566ZM36.1896 63.5508L36.1796 63.5708L36.1921 63.5533L36.0349 63.4984L36.0224 63.5658L36.1896 63.5508Z" fill="#6C754D"/>
</g>
<mask id="mask5_24_77" style="mask-type:luminance" maskUnits="userSpaceOnUse" x="31" y="69" width="12" height="46">
<path d="M31.1526 69.4912H42.0152V114.037H31.1526V69.4912Z" fill="white"/>
</mask>
<g mask="url(#mask5_24_77)">
<path d="M38.9777 110.643C38.9652 112.485 38.0966 113.443 35.3185 113.95C34.8368 114.035 34.1704 113.875 33.7211 113.703C32.8 113.354 32.4157 112.702 32.1511 111.886C32.1636 111.888 36.9908 112.497 38.9777 110.643ZM37.6772 108.591C37.4626 108.344 36.6439 109.263 34.2652 109.605C31.582 109.992 31.567 108.546 31.8216 110.396C34.078 110.83 36.2745 110.423 37.6772 108.591ZM35.7129 106.729C35.8077 106.679 35.8651 106.545 35.9375 106.447C35.9226 106.417 35.9101 106.39 35.8926 106.36C31.3449 107.313 31.8066 105.381 31.7417 107.203C33.5788 107.553 34.053 107.59 35.7129 106.729ZM32.8624 104.073C32.6827 103.941 32.9398 103.971 31.8066 103.836C31.7991 104.031 31.7991 104.228 31.7967 104.425C32.1111 104.435 32.4256 104.375 32.7152 104.251C32.7776 104.226 32.8125 104.133 32.8624 104.073ZM41.9978 71.9798C41.8456 69.6685 38.4011 68.6002 37.5949 71.4082C35.2661 69.3615 33.7984 73.3302 35.7079 74.1713C36.0124 74.3061 36.3419 74.3885 36.6639 74.4933C36.262 76.3229 39.8637 76.872 39.4868 74.1938C40.6525 74.3036 42.0927 73.4325 41.9978 71.9798ZM33.5663 98.3426C34.5448 98.4849 35.9126 98.2278 36.1921 97.3318C35.336 97.4041 34.7345 97.781 32.9698 97.3118C31.909 97.0297 31.9839 96.7078 31.9839 97.9732C32.5055 98.123 33.0322 98.2478 33.5663 98.3426ZM35.1488 90.0534C34.2328 89.9785 33.3517 89.9061 32.4656 89.8288C32.4431 90.1158 32.4207 90.4053 32.3982 90.6924C33.3092 90.8471 35.034 90.9944 35.1488 90.0534ZM36.5765 101.253C35.2361 101.615 33.8833 101.53 32.528 101.553C33.0971 102.451 35.2137 102.119 36.1472 101.772C36.3494 101.697 36.5515 101.582 36.5765 101.253ZM35.7528 83.5239C34.8892 83.2518 34.0206 83.2568 33.1894 83.0197C33.152 83.2967 33.117 83.5713 33.0821 83.8483C33.9257 84.068 35.2811 84.2627 35.7528 83.5239ZM34.9416 80.7233C35.2561 81.27 36.4842 81.6743 37.2554 81.3398C37.6498 81.1676 37.6972 80.7558 37.1131 80.6784C36.8211 80.6759 36.5291 80.651 36.242 80.606C35.8052 80.5311 35.2411 80.1592 34.9416 80.7233ZM36.9834 87.8145C36.9958 87.6323 37.0133 87.4501 37.0283 87.2654C36.3569 87.2154 35.7004 86.9584 35.0015 87.2404C35.3909 87.807 36.1597 87.832 36.9834 87.8145ZM33.7111 94.5787C34.0106 95.0005 34.7394 94.9805 35.2736 94.7359C36.2895 94.2742 32.9997 93.5878 33.7111 94.5787ZM36.9609 79.0385C37.1206 78.9162 37.0832 78.6317 36.9035 78.5793C34.6121 77.9228 36.1247 79.6775 36.9609 79.0385ZM34.7894 99.9551C35.2711 99.5133 34.2877 99.3036 33.6337 99.5307C33.8009 100.045 34.4549 100.262 34.7894 99.9551ZM35.6505 104.148C35.3285 104.071 34.6596 104.176 34.38 104.346C34.9192 104.565 35.4458 104.483 35.6505 104.148ZM34.0331 85.4458C34.2328 85.8327 34.5098 85.9175 34.9117 85.6879C34.7295 85.4608 34.3526 85.3634 34.0331 85.4458ZM34.1753 92.4346C34.2976 92.3048 34.4249 92.2324 34.4374 92.1451C34.4824 91.8231 33.8883 91.8106 33.9183 92.1301C33.9257 92.2224 34.0605 92.3048 34.1753 92.4346Z" fill="#735334"/>
</g>
<path d="M25.2996 63.7705C21.4208 63.2089 14.8962 65.2406 14.8962 65.0335C18.166 61.886 32.9823 63.7056 18.2658 62.0008C24.2438 60.8277 23.3477 62.9493 30.9381 63.8004C28.7566 62.7147 26.4702 61.911 24.0641 61.2171C27.4387 60.7029 30.7584 63.471 34.2103 64.8862C34.6996 65.0784 36.9959 66.0668 36.8187 66.5885C33.0447 64.8138 31.1328 64.5892 26.3404 66.5011C25.3246 66.7981 26.3205 66.1417 26.8696 65.9195C29.5703 64.8263 30.364 64.9361 31.3449 64.5842C28.7541 64.0775 27.1092 63.2089 20.1503 65.8297C20.2976 64.6017 24.0691 63.9028 25.2996 63.7705ZM34.2877 68.6552C25.7264 70.6495 20.652 81.8341 21.92 80.3689C26.2056 75.4119 24.2063 76.7697 24.5258 78.749C25.337 78.0526 26.5052 73.7146 28.2149 72.9158C27.6483 74.1713 27.1392 75.3495 27.3463 76.7772C29.1235 74.381 28.3198 72.2894 31.6419 70.5147C32.5205 70.0454 30.4763 71.8501 30.5162 74.1414C31.3774 73.0681 31.4123 73.0207 33.0821 70.1652C33.7286 69.062 35.8926 69.379 35.8253 68.7101C35.7828 68.2982 34.6946 68.5603 34.2877 68.6552ZM42.2325 66.3738C42.7292 67.2599 43.8399 64.9112 45.8517 65.6874C46.0339 65.7573 48.9143 66.883 48.9942 66.7133C48.1955 65.9145 47.6888 65.2856 45.7868 64.674C47.8735 64.05 49.9327 65.3055 52.0069 66.2116C53.19 66.7258 51.0908 64.6865 49.9227 64.1149C50.669 64.1574 52.5285 64.3171 53.16 64.719C57.0039 67.18 56.2151 66.6484 56.602 66.9579C56.8766 66.6858 55.958 65.7798 55.6985 65.4353C57.3433 66.0044 57.1411 65.9595 57.2011 65.8746C54.5428 62.8919 45.8417 61.4891 42.2325 66.3738ZM43.7251 72.1371C43.1685 72.7262 45.2377 73.5074 45.2926 74.2263C45.4099 75.8062 45.8892 76.4926 46.0639 76.8346C46.1987 76.7921 46.1637 77.0343 46.1637 74.8977C46.8027 75.654 47.2045 76.0408 47.4117 76.6199C47.4666 77.184 49.3162 83.3292 48.6647 78.1899C51.011 81.6194 53.9238 87.7696 53.4171 85.7853C51.6549 78.8938 44.5238 71.2959 43.7251 72.1371ZM27.5685 55.5511C41.4787 68.0936 30.8058 58.7261 28.9263 60.2686C29.9621 60.8676 29.7425 60.2311 32.7751 61.9734C37.228 64.5368 37.4976 66.913 38.2364 66.4861C38.9727 64.6141 24.8653 51.7472 27.5685 55.5511ZM39.4495 67.6318C39.9037 68.3057 40.3181 68.2583 40.8996 68.5129C48.7695 71.9699 50.4219 75.2945 53.7591 79.5702C54.1409 79.4704 52.9479 76.7048 49.7505 73.2653C46.8551 70.1528 39.7964 66.7906 39.4495 67.6318ZM21.0963 73.5723C22.0448 74.361 23.5524 69.0745 35.7104 67.7042C37.1406 67.5419 36.6439 67.7366 37.1456 67.4945C36.3918 65.9595 22.8435 69.0395 21.0963 73.5723ZM38.9702 60.014C38.5184 60.1288 38.2089 60.9275 38.1141 62.1206C34.9367 54.5103 30.661 54.7274 32.6254 55.8257C34.098 56.6469 35.2861 58.1545 34.5473 57.4955C33.8135 57.0862 33.5389 56.8266 32.9449 57.0138C34.9317 58.6986 36.322 58.7485 37.4052 61.7238C37.5275 62.2155 35.6181 59.5497 34.4849 59.4873C34.3202 59.8767 37.9344 62.4975 38.1366 64.0101C38.2289 64.684 38.4086 64.8537 38.4386 64.9012C38.6258 64.5942 38.6108 64.5268 38.5908 62.4501C38.5808 61.3718 38.818 60.8551 38.9702 60.014ZM46.8376 61.9434C46.5181 61.2146 42.0403 63.0217 40.9046 64.0076C40.2057 64.6116 39.6042 65.3255 38.9702 65.9994C38.8529 66.1242 38.7506 66.2865 38.9103 66.5161C39.8064 66.1966 40.2432 65.7049 40.9945 65.1009C43.5229 63.0591 47.0797 62.5 46.8376 61.9434ZM43.2708 77.6233C42.9963 78.7939 45.7144 84.2178 46.4932 84.4873C46.0539 83.2293 45.5048 82.2983 44.1095 79.2682C43.5304 78.0052 43.6652 77.5235 43.2708 77.6233Z" fill="#4F563A"/>
<mask id="mask6_24_77" style="mask-type:luminance" maskUnits="userSpaceOnUse" x="0" y="0" width="150" height="150">
<path d="M0 0H150V150H0V0Z" fill="white"/>
</mask>
<g mask="url(#mask6_24_77)">
<path d="M74.9201 149.843C33.5289 149.843 0 116.082 0 74.9201C0 33.761 33.5289 0 74.9201 0C116.311 0 149.843 33.5289 149.843 74.9201C149.843 116.311 116.082 149.843 74.9201 149.843ZM74.9201 4.6226C36.0723 4.6226 4.6226 36.0723 4.6226 74.9201C4.6226 113.768 36.0723 145.218 74.9201 145.218C113.768 145.218 145.218 113.768 145.218 74.9201C145.218 36.0723 113.538 4.6226 74.9201 4.6226Z" fill="#AF4C0F"/>
</g>
<mask id="mask7_24_77" style="mask-type:luminance" maskUnits="userSpaceOnUse" x="6" y="110" width="137" height="33">
<path d="M6.97632 110.775H142.974V142.884H6.97632V110.775Z" fill="white"/>
</mask>
<g mask="url(#mask7_24_77)">
<path fill-rule="evenodd" clip-rule="evenodd" d="M74.9201 6.97632C76.0308 6.97632 77.1441 7.00377 78.2523 7.05869C79.363 7.1136 80.4737 7.19597 81.5795 7.3033C82.6852 7.41312 83.7884 7.5504 84.8892 7.71264C85.9899 7.87488 87.0832 8.06458 88.1739 8.28173C89.2647 8.49888 90.3504 8.74349 91.4287 9.01306C92.507 9.28263 93.5778 9.57965 94.6436 9.90164C95.7068 10.2261 96.7627 10.5731 97.8085 10.95C98.8568 11.3244 99.8927 11.7237 100.921 12.148C101.947 12.5749 102.963 13.0241 103.969 13.5009C104.975 13.9751 105.968 14.4768 106.946 15.001C107.927 15.5251 108.896 16.0718 109.849 16.6434C110.803 17.2149 111.741 17.809 112.667 18.428C113.591 19.0445 114.499 19.686 115.393 20.3474C116.286 21.0114 117.163 21.6928 118.021 22.3991C118.882 23.1055 119.723 23.8319 120.547 24.5782C121.371 25.3245 122.177 26.0907 122.963 26.877C123.749 27.6632 124.516 28.4694 125.262 29.2931C126.008 30.1168 126.735 30.9579 127.441 31.8166C128.145 32.6777 128.829 33.5538 129.493 34.4474C130.154 35.3384 130.793 36.2495 131.412 37.173C132.029 38.0965 132.625 39.0375 133.197 39.991C133.768 40.9445 134.315 41.9104 134.839 42.8914C135.363 43.8723 135.863 44.8657 136.339 45.8716C136.814 46.875 137.265 47.8909 137.69 48.9192C138.117 49.9476 138.516 50.9834 138.89 52.0317C139.265 53.0776 139.614 54.1334 139.936 55.1967C140.261 56.26 140.555 57.3332 140.827 58.4115C141.097 59.4898 141.339 60.5731 141.556 61.6638C141.773 62.7546 141.963 63.8503 142.128 64.9511C142.29 66.0493 142.427 67.1525 142.534 68.2608C142.644 69.3665 142.727 70.4747 142.782 71.5854C142.834 72.6962 142.861 73.8069 142.861 74.9201C142.861 76.0308 142.834 77.1441 142.782 78.2523C142.727 79.363 142.644 80.4737 142.534 81.5795C142.427 82.6852 142.29 83.7884 142.128 84.8892C141.963 85.9899 141.773 87.0832 141.556 88.1739C141.339 89.2647 141.097 90.3504 140.827 91.4287C140.555 92.507 140.261 93.5778 139.936 94.6436C139.614 95.7068 139.265 96.7627 138.89 97.8085C138.516 98.8568 138.117 99.8927 137.69 100.921C137.265 101.947 136.814 102.963 136.339 103.969C135.863 104.975 135.363 105.968 134.839 106.946C134.315 107.927 133.768 108.896 133.197 109.849C132.625 110.803 132.029 111.741 131.412 112.667C130.793 113.591 130.154 114.499 129.493 115.393C128.829 116.286 128.145 117.163 127.441 118.021C126.735 118.882 126.008 119.723 125.262 120.547C124.516 121.371 123.749 122.177 122.963 122.963C122.177 123.749 121.371 124.516 120.547 125.262C119.723 126.008 118.882 126.735 118.021 127.441C117.163 128.145 116.286 128.829 115.393 129.493C114.499 130.154 113.591 130.793 112.667 131.412C111.741 132.029 110.803 132.625 109.849 133.197C108.896 133.768 107.927 134.315 106.946 134.839C105.968 135.363 104.975 135.863 103.969 136.339C102.963 136.814 101.947 137.265 100.921 137.69C99.8927 138.117 98.8568 138.516 97.8085 138.89C96.7627 139.265 95.7068 139.614 94.6436 139.936C93.5778 140.261 92.507 140.555 91.4287 140.827C90.3504 141.097 89.2647 141.339 88.1739 141.556C87.0832 141.773 85.9899 141.963 84.8892 142.128C83.7884 142.29 82.6852 142.427 81.5795 142.534C80.4737 142.644 79.363 142.727 78.2523 142.782C77.1441 142.834 76.0308 142.861 74.9201 142.861C73.8069 142.861 72.6962 142.834 71.5854 142.782C70.4747 142.727 69.3665 142.644 68.2608 142.534C67.1525 142.427 66.0493 142.29 64.9511 142.128C63.8503 141.963 62.7546 141.773 61.6638 141.556C60.5731 141.339 59.4898 141.097 58.4115 140.827C57.3332 140.555 56.26 140.261 55.1967 139.936C54.1334 139.614 53.0776 139.265 52.0317 138.89C50.9834 138.516 49.9476 138.117 48.9192 137.69C47.8909 137.265 46.875 136.814 45.8716 136.339C44.8657 135.863 43.8723 135.363 42.8914 134.839C41.9104 134.315 40.9445 133.768 39.991 133.197C39.0375 132.625 38.0965 132.029 37.173 131.412C36.2495 130.793 35.3384 130.154 34.4474 129.493C33.5538 128.829 32.6777 128.145 31.8166 127.441C30.9579 126.735 30.1168 126.008 29.2931 125.262C28.4694 124.516 27.6632 123.749 26.877 122.963C26.0907 122.177 25.3245 121.371 24.5782 120.547C23.8319 119.723 23.1055 118.882 22.3991 118.021C21.6953 117.163 21.0114 116.286 20.3474 115.393C19.686 114.499 19.0445 113.591 18.428 112.667C17.809 111.741 17.2149 110.803 16.6434 109.849C16.0718 108.896 15.5251 107.927 15.001 106.946C14.4768 105.968 13.9751 104.975 13.5009 103.969C13.0241 102.963 12.5749 101.947 12.148 100.921C11.7237 99.8927 11.3244 98.8568 10.95 97.8085C10.5731 96.7627 10.2261 95.7068 9.90164 94.6436C9.57965 93.5778 9.28263 92.507 9.01306 91.4287C8.74349 90.3504 8.49888 89.2647 8.28173 88.1739C8.06458 87.0832 7.87488 85.9899 7.71264 84.8892C7.5504 83.7884 7.41312 82.6852 7.3033 81.5795C7.19597 80.4737 7.1136 79.363 7.05869 78.2523C7.00377 77.1441 6.97632 76.0308 6.97632 74.9201C6.97632 73.8069 7.00377 72.6962 7.05869 71.5854C7.1136 70.4747 7.19597 69.3665 7.3033 68.2608C7.41312 67.1525 7.5504 66.0493 7.71264 64.9511C7.87488 63.8503 8.06458 62.7546 8.28173 61.6638C8.49888 60.5731 8.74349 59.4898 9.01306 58.4115C9.28263 57.3332 9.57965 56.26 9.90164 55.1967C10.2261 54.1334 10.5731 53.0776 10.95 52.0317C11.3244 50.9834 11.7237 49.9476 12.148 48.9192C12.5749 47.8909 13.0241 46.875 13.5009 45.8716C13.9751 44.8657 14.4768 43.8723 15.001 42.8914C15.5251 41.9104 16.0718 40.9445 16.6434 39.991C17.2149 39.0375 17.809 38.0965 18.428 37.173C19.0445 36.2495 19.686 35.3384 20.3474 34.4474C21.0114 33.5538 21.6953 32.6777 22.3991 31.8166C23.1055 30.9579 23.8319 30.1168 24.5782 29.2931C25.3245 28.4694 26.0907 27.6632 26.877 26.877C27.6632 26.0907 28.4694 25.3245 29.2931 24.5782C30.1168 23.8319 30.9579 23.1055 31.8166 22.3991C32.6777 21.6928 33.5538 21.0114 34.4474 20.3474C35.3384 19.686 36.2495 19.0445 37.173 18.428C38.0965 17.809 39.0375 17.2149 39.991 16.6434C40.9445 16.0718 41.9104 15.5251 42.8914 15.001C43.8723 14.4768 44.8657 13.9751 45.8716 13.5009C46.875 13.0241 47.8909 12.5749 48.9192 12.148C49.9476 11.7237 50.9834 11.3244 52.0317 10.95C53.0776 10.5731 54.1334 10.2261 55.1967 9.90164C56.26 9.57965 57.3332 9.28263 58.4115 9.01306C59.4898 8.74349 60.5731 8.49888 61.6638 8.28173C62.7546 8.06458 63.8503 7.87488 64.9511 7.71264C66.0493 7.5504 67.1525 7.41312 68.2608 7.3033C69.3665 7.19597 70.4747 7.1136 71.5854 7.05869C72.6962 7.00377 73.8069 6.97632 74.9201 6.97632Z" fill="#FFCA7D"/>
</g>
<mask id="mask8_24_77" style="mask-type:luminance" maskUnits="userSpaceOnUse" x="6" y="6" width="138" height="138">
<path d="M6.97632 6.97632H143.558V143.558H6.97632V6.97632Z" fill="white"/>
</mask>
<g mask="url(#mask8_24_77)">
<path d="M75.2671 143.558C37.6248 143.558 6.97632 112.912 6.97632 75.2671C6.97632 37.6248 37.6248 6.97632 75.2671 6.97632C112.912 6.97632 143.558 37.6248 143.558 75.2671C143.558 112.912 112.912 143.558 75.2671 143.558ZM75.2671 7.9872C38.1614 7.9872 7.9872 38.1614 7.9872 75.2671C7.9872 112.373 38.1614 142.549 75.2671 142.549C112.373 142.549 142.549 112.373 142.549 75.2671C142.549 38.1614 112.373 7.9872 75.2671 7.9872Z" fill="#AF4C0F"/>
</g>
<mask id="mask9_24_77" style="mask-type:luminance" maskUnits="userSpaceOnUse" x="45" y="106" width="75" height="17">
<path d="M45.2102 106.407H119.08V122.701H45.2102V106.407Z" fill="white"/>
</mask>
<g mask="url(#mask9_24_77)">
<path d="M47.9808 122.701C46.4657 122.21 45.7344 121.104 45.3325 119.778C45.2327 119.446 45.4873 118.897 45.7419 118.583C47.1945 116.801 48.6073 114.974 50.2022 113.324C51.8047 111.666 53.6941 111.517 55.6834 112.735C56.7168 113.369 57.6453 114.19 58.6038 114.941C58.9832 115.238 59.3251 115.578 59.7669 115.972C60.1613 115.515 60.4908 115.106 60.8502 114.726C61.7937 113.733 62.6972 112.695 63.7106 111.779C65.3455 110.304 67.2549 110.124 69.1594 111.135C70.2202 111.696 71.1287 112.552 72.0747 113.316C72.4416 113.616 72.7187 114.03 73.0631 114.422C73.5823 113.868 74.0216 113.339 74.5183 112.877C75.5766 111.891 76.8421 111.284 78.2224 110.863C79.74 110.403 81.1727 110.593 82.4182 111.502C83.5139 112.303 84.4849 113.284 85.4908 114.205C85.8427 114.529 86.1247 114.929 86.5116 115.375C86.8411 114.981 87.1231 114.667 87.3777 114.332C88.5109 112.83 89.9162 111.624 91.4537 110.561C93.4755 109.158 95.5472 109.128 97.6663 110.324C99.2238 111.202 100.517 112.385 101.657 113.748C101.999 114.157 102.331 114.569 102.636 114.941C104.098 113.651 105.431 112.348 106.897 111.227C107.892 110.466 109.028 109.822 110.191 109.355C112.146 108.579 113.96 108.968 115.405 110.561C116.192 111.427 116.886 112.378 117.624 113.294C117.924 113.666 118.226 114.038 118.593 114.494C119.017 113.785 119.359 113.196 119.714 112.62C120.684 111.047 121.952 109.779 123.577 108.886C124.873 108.174 126.208 108.072 127.489 108.841C128.614 109.517 129.678 110.301 130.868 111.107C130.985 110.868 131.143 110.598 131.255 110.309C131.639 109.303 131.939 108.259 132.393 107.288C132.902 106.205 133.424 106.148 134.313 106.951C134.729 107.326 135.229 107.66 135.506 108.122C135.728 108.486 135.79 109.046 135.708 109.472C135.498 110.576 135.101 111.644 134.897 112.747C134.557 114.619 134.31 116.509 134.013 118.391C133.931 118.905 133.818 119.416 133.679 120.14C132.992 119.808 132.446 119.626 131.986 119.312C131.038 118.665 130.017 118.286 128.881 118.091C127.414 117.842 126.533 116.881 125.973 115.413C127.636 114.914 128.911 115.845 130.284 116.152C130.673 115.298 130.434 114.709 129.785 114.175C128.232 112.904 126.785 112.765 125.047 113.768C123.867 114.449 123.041 115.473 122.307 116.584C121.818 117.32 121.346 118.061 120.914 118.83C120.392 119.761 119.489 119.881 118.915 118.83C118.288 117.682 117.422 116.651 116.589 115.63C115.071 113.778 113.571 113.426 111.384 114.424C109.25 115.403 107.558 116.943 106.118 118.785C105.708 119.312 105.237 119.791 104.777 120.313C103.724 119.806 103.222 118.947 102.591 118.223C101.917 117.45 101.3 116.611 100.539 115.935C98.2104 113.865 95.627 113.813 93.2558 115.86C92.2275 116.746 91.4063 117.866 90.5052 118.897C90.2506 119.192 90.056 119.539 89.8238 119.853C89.1374 120.774 88.6033 120.887 87.7971 120.083C87.0408 119.329 86.4093 118.448 85.7429 117.604C85.5032 117.3 85.351 116.92 85.1089 116.618C84.1554 115.405 82.9473 114.794 81.3848 115.171C79.1509 115.702 77.2739 116.726 76.2256 118.91C76.0658 119.244 75.7938 119.529 75.5142 119.923C73.8394 118.995 72.7087 117.739 71.92 116.114C71.2161 114.664 69.6835 114.142 68.2334 114.861C67.6693 115.141 67.1351 115.523 66.6883 115.962C65.8522 116.783 65.0834 117.674 64.2972 118.55C63.9727 118.912 63.6682 119.299 63.3861 119.701C62.9668 120.3 62.4501 120.38 61.871 119.993C61.3045 119.619 60.7279 119.244 60.2287 118.785C59.4 118.029 58.6462 117.185 57.825 116.414C56.6918 115.353 55.5736 115.208 54.2133 115.942C53.7441 116.194 53.2823 116.509 52.9104 116.883C51.1507 118.648 49.3611 120.39 47.9808 122.701Z" fill="#FFCA7D"/>
</g>
<mask id="mask10_24_77" style="mask-type:luminance" maskUnits="userSpaceOnUse" x="26" y="106" width="34" height="17">
<path d="M26.9146 106.407H59.0232V122.701H26.9146V106.407Z" fill="white"/>
</mask>
<g mask="url(#mask10_24_77)">
<path d="M-11.8635 122.701C-13.3785 122.21 -14.1099 121.104 -14.5117 119.778C-14.6116 119.446 -14.357 118.897 -14.1024 118.583C-12.6497 116.801 -11.237 114.974 -9.64202 113.324C-8.03959 111.666 -6.15011 111.517 -4.16079 112.735C-3.12745 113.369 -2.19893 114.19 -1.24046 114.941C-0.861071 115.238 -0.519117 115.578 -0.0773249 115.972C0.317044 115.515 0.646517 115.106 1.00594 114.726C1.94943 113.733 2.85299 112.695 3.86387 111.779C5.50125 110.304 7.41069 110.124 9.31515 111.135C10.3759 111.696 11.2845 112.552 12.2305 113.316C12.5974 113.616 12.8745 114.03 13.2189 114.422C13.7381 113.868 14.1774 113.339 14.6741 112.877C15.7324 111.891 16.9979 111.284 18.3781 110.863C19.8957 110.403 21.3284 110.593 22.5739 111.502C23.6697 112.303 24.6406 113.284 25.6465 114.205C25.9985 114.529 26.2805 114.929 26.6674 115.375C26.9969 114.981 27.2789 114.667 27.5335 114.332C28.6667 112.83 30.0719 111.624 31.6095 110.561C33.6312 109.158 35.7029 109.128 37.822 110.324C39.3795 111.202 40.6725 112.385 41.8132 113.748C42.1551 114.157 42.4871 114.569 42.7916 114.941C44.2542 113.651 45.5871 112.348 47.0523 111.227C48.0482 110.466 49.1839 109.822 50.347 109.355C52.3014 108.579 54.116 108.968 55.5612 110.561C56.3474 111.427 57.0413 112.378 57.7801 113.294C58.0796 113.666 58.3816 114.038 58.7486 114.494C59.1729 113.785 59.5123 113.196 59.8693 112.62C60.8402 111.047 62.1082 109.779 63.7331 108.886C65.0285 108.174 66.3639 108.072 67.6443 108.841C68.77 109.517 69.8333 110.301 71.0239 111.107C71.1412 110.868 71.2985 110.598 71.4108 110.309C71.7952 109.303 72.0947 108.259 72.549 107.288C73.0582 106.205 73.5798 106.148 74.4684 106.951C74.8852 107.326 75.3844 107.66 75.6615 108.122C75.8836 108.486 75.946 109.046 75.8637 109.472C75.654 110.576 75.2571 111.644 75.0525 112.747C74.713 114.619 74.4634 116.509 74.1689 118.391C74.0865 118.905 73.9742 119.416 73.8344 120.14C73.148 119.808 72.6014 119.626 72.1421 119.312C71.1936 118.665 70.1728 118.286 69.0371 118.091C67.5694 117.842 66.6884 116.881 66.1292 115.413C67.7916 114.914 69.067 115.845 70.4398 116.152C70.8292 115.298 70.5896 114.709 69.9406 114.175C68.3881 112.904 66.9404 112.765 65.2032 113.768C64.0226 114.449 63.1964 115.473 62.4626 116.584C61.9734 117.32 61.5016 118.061 61.0698 118.83C60.5482 119.761 59.6446 119.881 59.0705 118.83C58.444 117.682 57.5779 116.651 56.7443 115.63C55.2267 113.778 53.7266 113.426 51.5401 114.424C49.406 115.403 47.7137 116.943 46.2735 118.785C45.8642 119.312 45.3924 119.791 44.9332 120.313C43.8798 119.806 43.3781 118.947 42.7467 118.223C42.0727 117.45 41.4562 116.611 40.6949 115.935C38.3662 113.865 35.7803 113.813 33.4116 115.86C32.3832 116.746 31.5621 117.866 30.661 118.897C30.4064 119.192 30.2117 119.539 29.9796 119.853C29.2932 120.774 28.759 120.887 27.9528 120.083C27.1965 119.329 26.565 118.448 25.8986 117.604C25.659 117.3 25.5067 116.92 25.2646 116.618C24.3112 115.405 23.1031 114.794 21.5381 115.171C19.3067 115.702 17.4272 116.726 16.3813 118.91C16.2216 119.244 15.9495 119.529 15.67 119.923C13.9952 118.995 12.8645 117.739 12.0757 116.114C11.3694 114.664 9.83931 114.142 8.38913 114.861C7.82503 115.141 7.28839 115.523 6.8441 115.962C6.00794 116.783 5.23667 117.674 4.45293 118.55C4.12845 118.912 3.82393 119.299 3.54189 119.701C3.12255 120.3 2.60588 120.38 2.02681 119.993C1.46022 119.619 0.883637 119.244 0.384437 118.785C-0.444238 118.029 -1.19803 117.185 -2.01922 116.414C-3.1524 115.353 -4.27062 115.208 -5.63344 115.942C-6.10019 116.194 -6.56195 116.509 -6.93385 116.883C-8.69354 118.648 -10.4832 120.39 -11.8635 122.701Z" fill="#FFCA7D"/>
</g>
<path d="M114.252 112.343C114.397 112.488 114.527 112.647 114.642 112.817C114.756 112.989 114.854 113.169 114.931 113.359C115.011 113.548 115.071 113.746 115.111 113.948C115.151 114.15 115.171 114.352 115.171 114.559C115.171 114.764 115.151 114.969 115.111 115.171C115.071 115.373 115.011 115.568 114.931 115.757C114.854 115.947 114.756 116.129 114.642 116.299C114.527 116.471 114.397 116.628 114.252 116.776C114.107 116.921 113.948 117.05 113.778 117.165C113.606 117.28 113.426 117.375 113.236 117.455C113.047 117.532 112.849 117.592 112.647 117.632C112.445 117.672 112.243 117.692 112.036 117.692C111.831 117.692 111.626 117.672 111.424 117.632C111.222 117.592 111.027 117.532 110.838 117.455C110.648 117.375 110.466 117.28 110.296 117.165C110.124 117.05 109.967 116.921 109.819 116.776C109.675 116.628 109.545 116.471 109.43 116.299C109.315 116.129 109.22 115.947 109.14 115.757C109.063 115.568 109.003 115.373 108.963 115.171C108.923 114.969 108.901 114.764 108.901 114.559C108.901 114.352 108.923 114.15 108.963 113.948C109.003 113.746 109.063 113.548 109.14 113.359C109.22 113.169 109.315 112.989 109.43 112.817C109.545 112.647 109.675 112.488 109.819 112.343C109.967 112.198 110.124 112.066 110.296 111.953C110.466 111.839 110.645 111.741 110.838 111.664C111.027 111.584 111.222 111.524 111.424 111.484C111.626 111.444 111.831 111.424 112.036 111.424C112.243 111.424 112.445 111.444 112.647 111.484C112.849 111.524 113.047 111.584 113.236 111.664C113.426 111.741 113.606 111.839 113.778 111.953C113.948 112.066 114.107 112.198 114.252 112.343Z" fill="#FFCA7D"/>
<path d="M40.288 86.4691C65.6749 105.691 85.558 108.097 99.9325 93.6851" stroke="#E46A04" stroke-width="0.989852"/>
<path d="M36.8585 84.0604L39.9735 86.3268" stroke="#2E3345" stroke-width="0.963211" stroke-linecap="round"/>
<path d="M51.1208 92.5844C69.0546 103.472 83.6538 104.875 94.9158 96.7926" stroke="#E46A04" stroke-width="3.96112"/>
<path d="M52.4759 93.7025C65.6324 100.931 79.3704 102.291 93.69 97.786" stroke="#E46A04" stroke-width="3.96454"/>
<path d="M52.1266 92.5069C71.0613 100.639 84.9465 102.077 93.7849 96.8175" stroke="#E46A04" stroke-width="3"/>
<path d="M53.5268 93.685C65.6574 99.0015 78.2148 100.362 91.199 97.7685" stroke="#E46A04" stroke-width="2.92593"/>
<mask id="mask11_24_77" style="mask-type:luminance" maskUnits="userSpaceOnUse" x="63" y="96" width="14" height="4">
<path d="M63.4086 96.1362H76.9544V99.2138H63.4086V96.1362Z" fill="white"/>
</mask>
<g mask="url(#mask11_24_77)">
<mask id="mask12_24_77" style="mask-type:luminance" maskUnits="userSpaceOnUse" x="63" y="96" width="14" height="4">
<path d="M63.9027 96.1534C76.9393 98.4523 76.9868 98.7393 76.9393 98.8841C76.8919 99.0288 76.555 99.1711 76.4127 99.1711C76.2679 99.1237 76.0283 98.7393 76.0757 98.597C76.0757 98.4523 76.5075 98.2126 76.6523 98.2601C76.7946 98.31 76.9868 98.6919 76.9393 98.8366C76.8919 98.9789 76.7471 99.0763 76.4601 99.1711C75.1173 99.4582 64.8612 97.7808 63.713 97.0146C63.4734 96.8224 63.4235 96.6327 63.4235 96.4879C63.4734 96.3431 63.9027 96.1534 63.9027 96.1534Z" fill="white"/>
</mask>
<g mask="url(#mask12_24_77)">
<path d="M61.5066 94.2368H78.9087V101.088H61.5066V94.2368Z" fill="#E46A04"/>
</g>
</g>
<mask id="mask13_24_77" style="mask-type:luminance" maskUnits="userSpaceOnUse" x="47" y="89" width="7" height="6">
<path d="M47.0996 89.8462H53.3945V94.4863H47.0996V89.8462Z" fill="white"/>
</mask>
<g mask="url(#mask13_24_77)">
<mask id="mask14_24_77" style="mask-type:luminance" maskUnits="userSpaceOnUse" x="47" y="89" width="7" height="6">
<path d="M48.0856 90.2581C49.8577 92.4621 53.2124 93.2284 53.3572 93.8524C53.4046 94.092 52.9728 94.5238 52.8779 94.4764C52.7331 94.4764 52.4461 93.7575 52.4935 93.6602C52.5909 93.5653 53.3572 93.805 53.3572 93.9472C53.4046 94.092 53.0701 94.4265 52.7331 94.4764C51.9669 94.5712 49.1888 93.181 48.2304 92.2699C47.6064 91.6958 47.0797 90.7848 47.1271 90.353C47.1271 90.1134 47.3667 89.8738 47.5589 89.8738C47.7012 89.8263 48.0856 90.2581 48.0856 90.2581Z" fill="white"/>
</mask>
<g mask="url(#mask14_24_77)">
<path d="M45.2102 87.9568H55.3165V96.4407H45.2102V87.9568Z" fill="#E46A04"/>
</g>
</g>
<mask id="mask15_24_77" style="mask-type:luminance" maskUnits="userSpaceOnUse" x="47" y="89" width="6" height="5">
<path d="M47.1545 89.9111H52.818V93.413H47.1545V89.9111Z" fill="white"/>
</mask>
<g mask="url(#mask15_24_77)">
<mask id="mask16_24_77" style="mask-type:luminance" maskUnits="userSpaceOnUse" x="47" y="89" width="6" height="5">
<path d="M47.7985 89.9236C52.8304 92.799 52.8304 93.086 52.783 93.2283C52.6857 93.3256 52.3512 93.4205 52.2539 93.3731C52.1116 93.2782 51.9194 92.8938 51.9668 92.7491C52.0642 92.6068 52.4935 92.462 52.5908 92.5594C52.7331 92.6068 52.8304 93.0386 52.783 93.1809C52.7331 93.2782 52.5434 93.3731 52.3038 93.3731C51.4876 93.3256 47.7985 91.4087 47.3193 90.6899C47.1271 90.4977 47.1271 90.2106 47.2219 90.1133C47.3193 89.971 47.7985 89.9236 47.7985 89.9236Z" fill="white"/>
</mask>
<g mask="url(#mask16_24_77)">
<path d="M45.3049 88.0067H54.7523V95.2901H45.3049V88.0067Z" fill="#E46A04"/>
</g>
</g>
<mask id="mask17_24_77" style="mask-type:luminance" maskUnits="userSpaceOnUse" x="48" y="90" width="6" height="4">
<path d="M48.7471 90.9194H53.19V93.2856H48.7471V90.9194Z" fill="white"/>
</mask>
<g mask="url(#mask17_24_77)">
<mask id="mask18_24_77" style="mask-type:luminance" maskUnits="userSpaceOnUse" x="48" y="90" width="6" height="4">
<path d="M49.2836 90.9294C53.2124 92.5593 53.2124 92.8464 53.1649 92.9886C53.0701 93.1334 52.5909 93.2782 52.4461 93.1808C52.3038 93.1334 52.159 92.6068 52.2539 92.462C52.3512 92.3197 52.8305 92.2224 52.9727 92.3197C53.1175 92.4146 53.2124 92.749 53.1649 92.9412C53.1175 93.086 52.9253 93.2283 52.6383 93.2782C51.9669 93.3256 49.4284 92.3197 48.9492 91.8405C48.757 91.6009 48.7096 91.3113 48.8044 91.1691C48.8518 91.0243 49.2836 90.9294 49.2836 90.9294Z" fill="white"/>
</mask>
<g mask="url(#mask18_24_77)">
<path d="M46.8875 89.0126H55.1218V95.1952H46.8875V89.0126Z" fill="#E46A04"/>
</g>
</g>
<mask id="mask19_24_77" style="mask-type:luminance" maskUnits="userSpaceOnUse" x="93" y="94" width="5" height="4">
<path d="M93.7949 94.8058H97.6962V97.6737H93.7949V94.8058Z" fill="white"/>
</mask>
<g mask="url(#mask19_24_77)">
<mask id="mask20_24_77" style="mask-type:luminance" maskUnits="userSpaceOnUse" x="93" y="94" width="5" height="4">
<path d="M93.9973 96.6803C97.302 94.8582 97.6864 95.2426 97.6864 95.3849C97.639 95.5296 96.8727 95.8167 96.7754 95.7218C96.6805 95.6245 96.9676 94.8108 97.1123 94.8108C97.2546 94.8108 97.639 95.3374 97.5916 95.6245C97.4942 96.1536 95.9617 96.9673 95.2428 97.3018C94.7636 97.494 94.0447 97.781 93.8525 97.5913C93.7078 97.4466 93.9973 96.6803 93.9973 96.6803Z" fill="white"/>
</mask>
<g mask="url(#mask20_24_77)">
<path d="M91.9353 92.8939H99.608V99.5083H91.9353V92.8939Z" fill="#E46A04"/>
</g>
</g>
<mask id="mask21_24_77" style="mask-type:luminance" maskUnits="userSpaceOnUse" x="94" y="92" width="8" height="6">
<path d="M94.5013 92.8639H101.573V97.6063H94.5013V92.8639Z" fill="white"/>
</mask>
<g mask="url(#mask21_24_77)">
<mask id="mask22_24_77" style="mask-type:luminance" maskUnits="userSpaceOnUse" x="94" y="92" width="8" height="6">
<path d="M101.395 93.72C94.8781 97.6487 94.5886 97.5064 94.5412 97.3617C94.4463 97.2194 94.5412 96.8824 94.6859 96.7876C94.8282 96.6903 95.3075 96.7876 95.3574 96.8824C95.4522 97.0272 95.3574 97.5539 95.2126 97.6013C95.0678 97.6013 94.5412 97.2194 94.5412 96.9299C94.5886 96.5006 96.0263 95.7817 96.9373 95.2051C98.088 94.4863 100.15 92.9537 100.916 92.9063C101.203 92.8564 101.443 92.9537 101.537 93.096C101.587 93.2408 101.395 93.72 101.395 93.72Z" fill="white"/>
</mask>
<g mask="url(#mask22_24_77)">
<path d="M92.6244 90.9895H103.514V99.5658H92.6244V90.9895Z" fill="#E46A04"/>
</g>
</g>
<mask id="mask23_24_77" style="mask-type:luminance" maskUnits="userSpaceOnUse" x="93" y="96" width="3" height="3">
<path d="M93.3633 96.1188H95.9966V98.485H93.3633V96.1188Z" fill="white"/>
</mask>
<g mask="url(#mask23_24_77)">
<mask id="mask24_24_77" style="mask-type:luminance" maskUnits="userSpaceOnUse" x="93" y="96" width="3" height="3">
<path d="M95.9141 96.8725C93.7076 98.4524 93.3731 97.8309 93.4206 97.7336C93.468 97.5913 93.9971 97.5414 94.1394 97.6862C94.2368 97.781 94.2368 98.2603 94.1394 98.3576C94.0446 98.4999 93.7076 98.4999 93.5653 98.4524C93.4206 98.3576 93.3257 98.0206 93.4206 97.7336C93.5653 97.3018 94.8583 96.2485 95.3375 96.1536C95.5771 96.1037 95.8642 96.201 95.9615 96.3433C96.0089 96.4407 95.9141 96.8725 95.9141 96.8725Z" fill="white"/>
</mask>
<g mask="url(#mask24_24_77)">
<path d="M91.5037 94.2368H97.9284V100.417H91.5037V94.2368Z" fill="#E46A04"/>
</g>
</g>
<mask id="mask25_24_77" style="mask-type:luminance" maskUnits="userSpaceOnUse" x="93" y="95" width="5" height="3">
<path d="M93.7875 95.8792H97.2644V97.7512H93.7875V95.8792Z" fill="white"/>
</mask>
<g mask="url(#mask25_24_77)">
<mask id="mask26_24_77" style="mask-type:luminance" maskUnits="userSpaceOnUse" x="93" y="95" width="5" height="3">
<path d="M96.8103 96.9901C94.0796 97.7015 93.8076 97.5367 93.8076 97.372C93.7527 97.2097 94.4091 96.6631 94.5164 96.718C94.6263 96.7729 94.6812 97.5916 94.5164 97.7015C94.4091 97.8088 94.0247 97.7015 93.9174 97.5916C93.8076 97.4269 93.8076 96.9901 93.9723 96.7729C94.2993 96.3911 95.9916 95.8444 96.5906 95.8993C96.8652 95.9543 97.1922 96.1714 97.2471 96.3911C97.302 96.5533 96.8103 96.9901 96.8103 96.9901Z" fill="white"/>
</mask>
<g mask="url(#mask26_24_77)">
<path d="M91.6234 93.7151H99.4759V99.9376H91.6234V93.7151Z" fill="#E46A04"/>
</g>
</g>
<mask id="mask27_24_77" style="mask-type:luminance" maskUnits="userSpaceOnUse" x="45" y="89" width="6" height="4">
<path d="M45.6818 89.584H50.6089V92.5193H45.6818V89.584Z" fill="white"/>
</mask>
<g mask="url(#mask27_24_77)">
<mask id="mask28_24_77" style="mask-type:luminance" maskUnits="userSpaceOnUse" x="45" y="89" width="6" height="4">
<path d="M46.4555 89.5864C50.6263 91.7904 50.6737 92.1748 50.5764 92.2696C50.4815 92.367 49.7627 92.2222 49.7152 92.1274C49.6678 91.9826 50.1471 91.4559 50.2419 91.5034C50.3867 91.5508 50.5289 92.2696 50.3867 92.4144C50.1945 92.654 49.236 92.367 48.5646 92.1274C47.7509 91.7904 46.2158 90.8819 45.8814 90.3527C45.7366 90.1131 45.6418 89.826 45.7366 89.7312C45.834 89.5864 46.4555 89.5864 46.4555 89.5864Z" fill="white"/>
</mask>
<g mask="url(#mask28_24_77)">
<path d="M43.8198 87.6698H52.5484V94.3791H43.8198V87.6698Z" fill="#E46A04"/>
</g>
</g>
<mask id="mask29_24_77" style="mask-type:luminance" maskUnits="userSpaceOnUse" x="45" y="89" width="2" height="2">
<path d="M45.7094 89.4445H46.6528V90.2257H45.7094V89.4445Z" fill="white"/>
</mask>
<g mask="url(#mask29_24_77)">
<mask id="mask30_24_77" style="mask-type:luminance" maskUnits="userSpaceOnUse" x="45" y="89" width="2" height="2">
<path d="M46.6479 89.7313C46.2161 90.3528 45.8342 90.2579 45.7369 90.1132C45.6894 89.9709 45.7369 89.5865 45.8816 89.4917C45.9765 89.3943 46.5031 89.5391 46.5031 89.5391" fill="white"/>
</mask>
<g mask="url(#mask30_24_77)">
<path d="M43.8198 87.5747H48.5597V92.2223H43.8198V87.5747Z" fill="#E46A04"/>
</g>
</g>
<mask id="mask31_24_77" style="mask-type:luminance" maskUnits="userSpaceOnUse" x="44" y="89" width="2" height="2">
<path d="M44.943 89.3496H45.8865V90.1309H44.943V89.3496Z" fill="white"/>
</mask>
<g mask="url(#mask31_24_77)">
<mask id="mask32_24_77" style="mask-type:luminance" maskUnits="userSpaceOnUse" x="44" y="89" width="2" height="2">
<path d="M45.8815 89.6341C45.4497 90.2581 45.0654 90.1633 44.9705 90.0185C44.9231 89.8738 44.9705 89.4919 45.1153 89.3945C45.2101 89.2997 45.7368 89.4444 45.7368 89.4444" fill="white"/>
</mask>
<g mask="url(#mask32_24_77)">
<path d="M43.0536 87.4775H47.7935V92.1276H43.0536V87.4775Z" fill="#E46A04"/>
</g>
</g>
<mask id="mask33_24_77" style="mask-type:luminance" maskUnits="userSpaceOnUse" x="45" y="89" width="2" height="2">
<path d="M45.325 89.2522H46.2684V90.0334H45.325V89.2522Z" fill="white"/>
</mask>
<g mask="url(#mask33_24_77)">
<mask id="mask34_24_77" style="mask-type:luminance" maskUnits="userSpaceOnUse" x="45" y="89" width="2" height="2">
<path d="M46.2634 89.5393C45.8341 90.1633 45.4497 90.066 45.3549 89.9237C45.305 89.7789 45.3549 89.3945 45.4972 89.2997C45.5945 89.2048 46.1212 89.3471 46.1212 89.3471" fill="white"/>
</mask>
<g mask="url(#mask34_24_77)">
<path d="M43.438 87.3826H48.1754V92.0301H43.438V87.3826Z" fill="#E46A04"/>
</g>
</g>
<mask id="mask35_24_77" style="mask-type:luminance" maskUnits="userSpaceOnUse" x="44" y="88" width="2" height="2">
<path d="M44.7509 88.8702H45.6943V89.6515H44.7509V88.8702Z" fill="white"/>
</mask>
<g mask="url(#mask35_24_77)">
<mask id="mask36_24_77" style="mask-type:luminance" maskUnits="userSpaceOnUse" x="44" y="88" width="2" height="2">
<path d="M45.6894 89.1546C45.2576 89.7786 44.8757 89.6838 44.7784 89.539C44.7309 89.3943 44.7784 89.0124 44.9231 88.915C45.018 88.8202 45.5446 88.965 45.5446 88.965" fill="white"/>
</mask>
<g mask="url(#mask36_24_77)">
<path d="M42.8615 86.9983H47.6014V91.6484H42.8615V86.9983Z" fill="#E46A04"/>
</g>
</g>
<mask id="mask37_24_77" style="mask-type:luminance" maskUnits="userSpaceOnUse" x="45" y="89" width="2" height="2">
<path d="M45.1328 89.6365H46.0788V90.4177H45.1328V89.6365Z" fill="white"/>
</mask>
<g mask="url(#mask37_24_77)">
<mask id="mask38_24_77" style="mask-type:luminance" maskUnits="userSpaceOnUse" x="45" y="89" width="2" height="2">
<path d="M46.0738 89.9235C45.642 90.545 45.2577 90.4502 45.1628 90.3054C45.1154 90.1632 45.1628 89.7788 45.3051 89.6839C45.4024 89.5866 45.9291 89.7314 45.9291 89.7314" fill="white"/>
</mask>
<g mask="url(#mask38_24_77)">
<path d="M43.2458 87.7671H47.9858V92.4147H43.2458V87.7671Z" fill="#E46A04"/>
</g>
</g>
<mask id="mask39_24_77" style="mask-type:luminance" maskUnits="userSpaceOnUse" x="43" y="88" width="2" height="2">
<path d="M43.6802 88.0442H44.7035V89.0276H43.6802V88.0442Z" fill="white"/>
</mask>
<g mask="url(#mask39_24_77)">
<mask id="mask40_24_77" style="mask-type:luminance" maskUnits="userSpaceOnUse" x="43" y="88" width="2" height="2">
<path d="M44.2643 88.0515C44.7435 88.7204 44.2169 89.01 44.0721 88.9601C43.9273 88.9126 43.8325 88.2911 43.9273 88.1938C44.0247 88.0989 44.6462 88.1938 44.6961 88.3386C44.7435 88.4808 44.3117 89.01 44.167 89.01C43.9773 89.01 43.6877 88.7204 43.6877 88.5782C43.6403 88.386 44.0721 88.0515 44.0721 88.0515" fill="white"/>
</mask>
<g mask="url(#mask40_24_77)">
<path d="M41.7708 86.1348H46.7054V90.9745H41.7708V86.1348Z" fill="#E46A04"/>
</g>
</g>
<mask id="mask41_24_77" style="mask-type:luminance" maskUnits="userSpaceOnUse" x="44" y="88" width="2" height="2">
<path d="M44.0793 88.6781H45.0228V89.4594H44.0793V88.6781Z" fill="white"/>
</mask>
<g mask="url(#mask41_24_77)">
<mask id="mask42_24_77" style="mask-type:luminance" maskUnits="userSpaceOnUse" x="44" y="88" width="2" height="2">
<path d="M45.0179 88.9649C44.5861 89.5864 44.2042 89.4916 44.1069 89.3468C44.0594 89.2045 44.1069 88.8202 44.2516 88.7253C44.3465 88.628 44.8756 88.7727 44.8756 88.7727" fill="white"/>
</mask>
<g mask="url(#mask42_24_77)">
<path d="M42.1899 86.8086H46.9299V91.4562H42.1899V86.8086Z" fill="#E46A04"/>
</g>
</g>
<mask id="mask43_24_77" style="mask-type:luminance" maskUnits="userSpaceOnUse" x="44" y="88" width="2" height="2">
<path d="M44.3666 88.8702H45.3101V89.6515H44.3666V88.8702Z" fill="white"/>
</mask>
<g mask="url(#mask43_24_77)">
<mask id="mask44_24_77" style="mask-type:luminance" maskUnits="userSpaceOnUse" x="44" y="88" width="2" height="2">
<path d="M45.3049 89.1546C44.8756 89.7786 44.4913 89.6838 44.3964 89.539C44.3465 89.3943 44.3964 89.0124 44.5387 88.915C44.636 88.8202 45.1627 88.965 45.1627 88.965" fill="white"/>
</mask>
<g mask="url(#mask44_24_77)">
<path d="M42.4795 86.9983H47.2169V91.6484H42.4795V86.9983Z" fill="#E46A04"/>
</g>
</g>
<mask id="mask45_24_77" style="mask-type:luminance" maskUnits="userSpaceOnUse" x="43" y="88" width="2" height="2">
<path d="M43.4081 88.2937H44.3516V89.075H43.4081V88.2937Z" fill="white"/>
</mask>
<g mask="url(#mask45_24_77)">
<mask id="mask46_24_77" style="mask-type:luminance" maskUnits="userSpaceOnUse" x="43" y="88" width="2" height="2">
<path d="M44.3467 88.5807C43.9174 89.2047 43.533 89.1074 43.4382 88.9651C43.3882 88.8203 43.4381 88.4359 43.5804 88.3411C43.6778 88.2462 44.2044 88.3885 44.2044 88.3885" fill="white"/>
</mask>
<g mask="url(#mask46_24_77)">
<path d="M41.5211 86.4243H46.2585V91.0719H41.5211V86.4243Z" fill="#E46A04"/>
</g>
</g>
<mask id="mask47_24_77" style="mask-type:luminance" maskUnits="userSpaceOnUse" x="42" y="87" width="2" height="2">
<path d="M42.7366 87.912H43.6826V88.6932H42.7366V87.912Z" fill="white"/>
</mask>
<g mask="url(#mask47_24_77)">
<mask id="mask48_24_77" style="mask-type:luminance" maskUnits="userSpaceOnUse" x="42" y="87" width="2" height="2">
<path d="M43.6776 88.1964C43.2458 88.8204 42.8614 88.7255 42.7666 88.5808C42.7191 88.436 42.7666 88.0541 42.9088 87.9568C43.0062 87.8619 43.5328 88.0067 43.5328 88.0067" fill="white"/>
</mask>
<g mask="url(#mask48_24_77)">
<path d="M40.8497 86.0398H45.5896V90.6899H40.8497V86.0398Z" fill="#E46A04"/>
</g>
</g>
<mask id="mask49_24_77" style="mask-type:luminance" maskUnits="userSpaceOnUse" x="42" y="87" width="2" height="2">
<path d="M42.759 87.7097H43.7799V88.9203H42.759V87.7097Z" fill="white"/>
</mask>
<g mask="url(#mask49_24_77)">
<mask id="mask50_24_77" style="mask-type:luminance" maskUnits="userSpaceOnUse" x="42" y="87" width="2" height="2">
<path d="M43.7726 88.4361C42.9589 88.8205 42.8616 88.1965 42.9589 88.1017C43.0537 88.0068 43.7726 88.2464 43.7726 88.3887C43.82 88.5335 43.3408 88.9154 43.1486 88.9154C43.0063 88.8679 42.7193 88.3887 42.7667 88.1965C42.8141 88.0068 43.1012 87.7173 43.2934 87.7173C43.4381 87.7173 43.7726 88.0542 43.7726 88.0542" fill="white"/>
</mask>
<g mask="url(#mask50_24_77)">
<path d="M40.8497 85.8003H45.6895V90.8297H40.8497V85.8003Z" fill="#E46A04"/>
</g>
</g>
<mask id="mask51_24_77" style="mask-type:luminance" maskUnits="userSpaceOnUse" x="42" y="87" width="2" height="2">
<path d="M42.2573 87.5275H43.2033V88.3087H42.2573V87.5275Z" fill="white"/>
</mask>
<g mask="url(#mask51_24_77)">
<mask id="mask52_24_77" style="mask-type:luminance" maskUnits="userSpaceOnUse" x="42" y="87" width="2" height="2">
<path d="M43.1984 87.8145C42.7665 88.436 42.3822 88.3412 42.2873 88.1964C42.2399 88.0542 42.2873 87.6698 42.4296 87.5749C42.5269 87.4776 43.0536 87.6223 43.0536 87.6223" fill="white"/>
</mask>
<g mask="url(#mask52_24_77)">
<path d="M40.3704 85.6578H45.1103V90.3054H40.3704V85.6578Z" fill="#E46A04"/>
</g>
</g>
<path d="M46.2635 92.6067C61.8711 111.679 79.076 113.249 97.8809 97.3216" stroke="#FD8320" stroke-width="3.99662"/>
<path d="M47.9933 93.7001C60.6405 107.957 75.3445 110.553 92.1052 101.485" stroke="#FD8320" stroke-width="3.96548"/>
<path d="M51.011 95.2725C61.8087 105.039 74.1415 107.708 88.0093 103.277" stroke="#FD8320" stroke-width="3.95696"/>
<path d="M53.5319 96.7826C64.7639 103.919 76.8146 105.793 89.684 102.404" stroke="#FD8320" stroke-width="3.92399"/>
<path d="M45.4248 91.6484C65.4652 104.995 82.7101 107.046 97.1595 97.8111" stroke="#FD8320" stroke-width="4"/>
<path d="M56.3922 101.47C76.7022 108 91.6533 105.589 101.243 94.2417" stroke="#FD8320" stroke-width="3.99678"/>
<mask id="mask53_24_77" style="mask-type:luminance" maskUnits="userSpaceOnUse" x="39" y="85" width="12" height="12">
<path d="M39.4594 85.4658H50.9609V96.9674H39.4594V85.4658Z" fill="white"/>
</mask>
<g mask="url(#mask53_24_77)">
<mask id="mask54_24_77" style="mask-type:luminance" maskUnits="userSpaceOnUse" x="38" y="84" width="13" height="13">
<path d="M38.3735 87.2055L40.7547 84.5922L50.7837 93.7251L48.4025 96.3384L38.3735 87.2055Z" fill="white"/>
</mask>
<g mask="url(#mask54_24_77)">
<mask id="mask55_24_77" style="mask-type:luminance" maskUnits="userSpaceOnUse" x="39" y="85" width="12" height="12">
<path d="M39.5642 85.9L50.7763 93.72L48.3951 96.3333L39.5642 85.9Z" fill="white"/>
</mask>
<g mask="url(#mask55_24_77)">
<path d="M38.3735 87.2055L40.7547 84.5922L50.7737 93.7151L48.3925 96.3309L38.3735 87.2055Z" fill="#FD8320"/>
</g>
</g>
</g>
<path d="M39.531 39.8929C39.164 40.2723 38.7622 40.5793 38.3229 40.8115C37.8886 41.0386 37.4543 41.1909 37.015 41.2707C36.5757 41.3456 36.1613 41.3381 35.767 41.2508C35.3751 41.1584 35.0431 40.9812 34.7686 40.7216C34.6563 40.6218 34.5939 40.452 34.5789 40.2124C34.5589 39.9678 34.5739 39.6883 34.6188 39.3738C34.6662 39.0618 34.7361 38.7547 34.8285 38.4552C34.9233 38.1557 35.0182 37.8911 35.118 37.6565C35.2179 37.4169 35.3177 37.2522 35.4175 37.1573C35.5573 37.0325 35.7171 36.9626 35.8968 36.9476C36.0765 36.9352 36.2437 37.0225 36.396 37.2072C36.6106 37.4668 36.8353 37.7314 37.0749 37.996C37.3195 38.263 37.5841 38.4802 37.8636 38.6449C38.1482 38.8047 38.4527 38.8646 38.7722 38.8246C39.0917 38.7847 39.4161 38.59 39.7506 38.2356C39.9752 37.996 40.13 37.7264 40.2099 37.4269C40.2947 37.1224 40.3022 36.8178 40.2298 36.5183C40.155 36.2188 40.0027 35.9592 39.7706 35.7396C39.4636 35.4475 39.1266 35.2803 38.7622 35.2404C38.3953 35.2004 38.0184 35.2454 37.634 35.3702C37.2546 35.4975 36.8777 35.6697 36.5058 35.8893C35.9417 36.2088 35.3926 36.4984 34.8584 36.7579C34.3193 37.0125 33.7951 37.1922 33.281 37.2971C32.7618 37.3969 32.2576 37.3844 31.7634 37.2571C31.2642 37.1323 30.7725 36.8428 30.2857 36.3885C29.9064 36.0241 29.6243 35.6098 29.4371 35.1505C29.2449 34.6863 29.1451 34.202 29.1376 33.7028C29.1251 33.1986 29.2075 32.7094 29.3872 32.2352C29.5619 31.7559 29.8315 31.3241 30.1959 30.9373C30.4155 30.7051 30.6601 30.5079 30.9247 30.3482C31.1918 30.1885 31.4614 30.0262 31.7334 29.859C32.0005 29.6942 32.2676 29.4696 32.5322 29.1901C32.7393 28.9779 32.8716 28.7807 32.9315 28.601C32.9864 28.4163 33.0264 28.2491 33.0513 28.1018C33.0713 27.957 33.1262 27.8372 33.2111 27.7424C33.3109 27.6375 33.4357 27.63 33.5805 27.7224C33.7277 27.8098 33.88 27.962 34.0397 28.1817C34.1995 28.4013 34.3467 28.6584 34.479 28.9504C34.6138 29.245 34.7137 29.547 34.7786 29.859C34.8385 30.166 34.8534 30.458 34.8185 30.7376C34.786 31.0171 34.6787 31.2518 34.499 31.4365C34.187 31.7709 33.8451 32.0255 33.4707 32.2052C33.0913 32.3849 32.7069 32.5397 32.3125 32.6645C31.9131 32.7918 31.5313 32.9391 31.1643 33.1038C30.7999 33.271 30.4729 33.5081 30.1859 33.8127C30.0262 33.9799 29.9538 34.1821 29.9663 34.4217C29.9812 34.6563 30.0736 34.856 30.2458 35.0207C30.4929 35.2553 30.7849 35.3502 31.1244 35.3103C31.4639 35.2653 31.8233 35.1305 32.2027 34.9109C32.5821 34.6863 32.969 34.4167 33.3608 34.1022C33.7552 33.7827 34.1271 33.4682 34.479 33.1537C35.0132 32.6895 35.5773 32.37 36.1763 32.1952C36.7679 32.023 37.3469 32.0031 37.9135 32.1353C38.4851 32.2701 39.0068 32.5597 39.481 33.0039C39.8854 33.3833 40.2248 33.8376 40.4994 34.3618C40.7715 34.8884 40.9387 35.455 40.9986 36.0591C41.0635 36.6656 40.9836 37.2971 40.759 37.956C40.5393 38.61 40.13 39.2539 39.531 39.8929Z" fill="#0097B2"/>
<path d="M42.7973 36.3488C42.8173 36.1167 42.7798 35.8896 42.6875 35.6699C42.5951 35.4503 42.4329 35.2007 42.1982 34.9211L36.1379 27.493C35.9058 27.2134 35.6937 27.0088 35.499 26.874C35.3068 26.7342 35.0946 26.6518 34.86 26.6244L38.1148 23.9686C38.0948 24.2033 38.1322 24.4279 38.2246 24.6475C38.3195 24.8622 38.4817 25.1068 38.7138 25.3864L44.7741 32.8145C45.0063 33.094 45.2184 33.3037 45.4131 33.4435C45.6053 33.5832 45.8175 33.6681 46.0521 33.6931L42.7973 36.3488Z" fill="#0097B2"/>
<path d="M39.0862 23.0637L43.3893 20.4179C44.2554 19.8788 45.0342 19.5867 45.7256 19.5393C46.417 19.4944 47.026 19.6292 47.5526 19.9486C48.0768 20.2631 48.5211 20.7074 48.8805 21.2865C49.1326 21.7008 49.3223 22.1551 49.4496 22.6543C49.5819 23.1485 49.6143 23.6477 49.5494 24.1519C49.4895 24.6511 49.3023 25.1378 48.9903 25.6096C48.6833 26.0838 48.2216 26.5131 47.6026 26.8975C47.1283 27.1846 46.674 27.3768 46.2347 27.4766C45.8004 27.5714 45.4061 27.6164 45.0466 27.6164C44.6872 27.6114 44.3827 27.6014 44.1281 27.5864C43.8685 27.5739 43.6888 27.6014 43.589 27.6663C43.4242 27.7661 43.3968 27.9059 43.5091 28.0856C43.6489 28.3128 43.8461 28.4825 44.0982 28.5948C44.3453 28.7021 44.6348 28.7795 44.9668 28.8244C45.2938 28.8644 45.6357 28.9043 45.9951 28.9442C46.3546 28.9842 46.7065 29.0491 47.0534 29.1339C47.4054 29.2138 47.7348 29.3511 48.0419 29.5433C48.3464 29.7305 48.6035 29.9926 48.8106 30.332C48.8955 30.4718 48.9629 30.6415 49.0103 30.8412C49.0552 31.0359 49.0627 31.2281 49.0303 31.4203C48.9953 31.615 48.893 31.7647 48.7208 31.8696L45.6756 33.7466C45.7281 33.5219 45.7206 33.2948 45.6557 33.0677C45.5958 32.8355 45.471 32.566 45.2763 32.2589L40.2443 24.092C40.0521 23.7875 39.8699 23.5529 39.6952 23.3931C39.5155 23.2284 39.3133 23.1186 39.0862 23.0637ZM44.1481 23.0337C43.876 23.2009 43.5865 23.3931 43.2795 23.6128C42.975 23.8274 42.6979 24.0571 42.4508 24.3017C42.2062 24.5413 42.039 24.7884 41.9516 25.0405C41.8592 25.2951 41.8867 25.5447 42.0315 25.7893C42.1862 26.0289 42.4009 26.1637 42.6804 26.1887C42.96 26.2086 43.2795 26.1587 43.6389 26.0389C43.9933 25.9141 44.3652 25.7469 44.7571 25.5397C45.144 25.3275 45.5234 25.1079 45.8953 24.8808C46.2597 24.6486 46.6241 24.4065 46.9835 24.1519C47.348 23.8998 47.6675 23.6402 47.942 23.3732C48.2216 23.1086 48.4138 22.844 48.5211 22.5844C48.6259 22.3248 48.6035 22.0752 48.4512 21.8356C48.3314 21.6434 48.1542 21.5311 47.922 21.4962C47.6874 21.4637 47.4154 21.4862 47.1034 21.5661C46.7889 21.6459 46.4644 21.7707 46.1249 21.9355C45.7855 22.1027 45.446 22.2824 45.1065 22.4746C44.7621 22.6693 44.4426 22.854 44.1481 23.0337Z" fill="#0097B2"/>
<path d="M61.7162 25.9365C61.0897 26.1112 60.4607 26.1836 59.8293 26.1561C59.1953 26.1237 58.6012 25.9939 58.0421 25.7668C57.483 25.5421 56.9963 25.2052 56.5845 24.7584C56.1726 24.3066 55.8731 23.74 55.6859 23.0611C55.5611 22.5968 55.5636 22.1525 55.6959 21.7332C55.8232 21.3089 56.0553 20.9345 56.3948 20.615C56.7267 20.2905 57.1461 20.0559 57.6527 19.9161C57.9772 19.8313 58.2618 19.7813 58.5014 19.7664C58.746 19.7464 58.9806 19.7364 59.2003 19.7364C59.4249 19.7314 59.652 19.7214 59.8792 19.7065C60.1038 19.6865 60.3609 19.6416 60.6479 19.5667C60.8327 19.5143 61.0124 19.4519 61.1871 19.377C61.3668 19.2971 61.5066 19.2048 61.6064 19.0974C61.7112 18.9926 61.7487 18.8778 61.7162 18.758C61.6888 18.6457 61.6264 18.5833 61.5265 18.5683C61.4267 18.5558 61.2894 18.5733 61.1172 18.6182C60.8776 18.6856 60.5806 18.7929 60.2286 18.9377C59.8817 19.085 59.5048 19.2123 59.1004 19.3171C58.6611 19.4369 58.2168 19.4918 57.7726 19.4768C57.3333 19.4643 56.9139 19.387 56.5146 19.2472C56.1152 19.1024 55.7708 18.8828 55.4762 18.5883C55.1842 18.2887 54.9745 17.9093 54.8472 17.4501C54.7025 16.9059 54.7274 16.3793 54.9271 15.8726C55.1218 15.3609 55.4538 14.9091 55.9255 14.5148C56.3923 14.1229 56.9663 13.8334 57.6527 13.6462C57.9647 13.5613 58.2867 13.5139 58.6212 13.5064C58.9606 13.5014 59.3101 13.4939 59.6695 13.4864C60.0339 13.4739 60.4008 13.4165 60.7678 13.3167C61.0473 13.2443 61.257 13.1445 61.3968 13.0172C61.5415 12.8849 61.6613 12.7651 61.7562 12.6577C61.856 12.5454 61.9658 12.473 62.0856 12.4381C62.2379 12.3982 62.3502 12.4556 62.4251 12.6078C62.505 12.7626 62.5549 12.9722 62.5749 13.2368C62.5998 13.5039 62.5948 13.7959 62.5549 14.1154C62.515 14.4299 62.4376 14.7394 62.3253 15.0439C62.2179 15.3434 62.0782 15.603 61.9059 15.8227C61.7312 16.0423 61.5216 16.1871 61.2769 16.252C60.8302 16.3718 60.3809 16.4167 59.9291 16.3818C59.4748 16.3418 59.023 16.2769 58.5713 16.1821C58.1245 16.0897 57.6827 16.0199 57.2434 15.9724C56.8091 15.9275 56.3948 15.96 55.9954 16.0723C55.7708 16.1322 55.596 16.247 55.4762 16.4117C55.3514 16.579 55.314 16.7562 55.3664 16.9409C55.4263 17.1481 55.586 17.2704 55.8456 17.3103C56.1052 17.3502 56.4322 17.3452 56.8241 17.2903C57.2159 17.2379 57.6453 17.168 58.112 17.0807C58.5763 16.9883 59.0455 16.9159 59.5198 16.861C59.9915 16.8086 60.4333 16.8011 60.8476 16.841C61.267 16.876 61.6264 16.9958 61.9259 17.2005C62.2254 17.4002 62.4301 17.7146 62.5449 18.139C62.6697 18.5858 62.5649 18.9976 62.2254 19.377C61.886 19.7564 61.3818 20.0409 60.7178 20.2256C60.3235 20.333 59.9341 20.4353 59.5497 20.5351C59.1628 20.63 58.8109 20.7348 58.4914 20.8546C58.1769 20.9744 57.9423 21.1242 57.7825 21.3039C57.6228 21.4786 57.5754 21.6908 57.6428 21.9429C57.7351 22.2973 57.9173 22.5619 58.1919 22.7416C58.4714 22.9213 58.7959 23.0361 59.1703 23.0811C59.5497 23.1285 59.9441 23.1285 60.3584 23.0811C60.7703 23.0361 61.1671 22.9613 61.5465 22.8614C61.9658 22.7491 62.3702 22.6168 62.7646 22.4621C63.1564 22.3098 63.5059 22.1501 63.8129 21.9828C64.1249 21.8181 64.357 21.6484 64.5118 21.4736C64.6715 21.2939 64.7264 21.1292 64.6815 20.9744C64.6615 20.8896 64.6066 20.8396 64.5218 20.8247C64.4344 20.8122 64.352 20.8147 64.2722 20.8347C64.025 20.902 63.7555 21.0393 63.4634 21.244C63.1689 21.4437 62.8494 21.6533 62.505 21.873C62.1655 22.0926 61.7861 22.2599 61.3668 22.3722C61.1122 22.4396 60.9 22.4321 60.7278 22.3522C60.5531 22.2674 60.4383 22.1201 60.3784 21.9129C60.3185 21.6933 60.3684 21.4936 60.5281 21.3139C60.6879 21.1292 60.9075 20.9445 61.1871 20.7648C61.4666 20.5851 61.7662 20.3954 62.0856 20.1957C62.4051 19.991 62.6947 19.7639 62.9543 19.5168C63.2188 19.2722 63.4135 18.9926 63.5333 18.6781C63.6531 18.3586 63.6556 17.9892 63.5433 17.5699C63.4959 17.3977 63.4085 17.2679 63.2837 17.1805C63.1639 17.0956 63.0341 17.0282 62.8944 16.9808C62.7596 16.9359 62.6398 16.891 62.5349 16.851C62.4276 16.8111 62.3652 16.7562 62.3452 16.6813C62.3178 16.5889 62.3777 16.4492 62.5249 16.262C62.6697 16.0698 62.8544 15.8726 63.0741 15.6729C63.2987 15.4682 63.5233 15.2885 63.743 15.1338C63.9626 14.974 64.1274 14.8817 64.2422 14.8542C64.4144 14.8093 64.6066 14.8293 64.8213 14.9141C65.0334 14.994 65.2356 15.1388 65.4303 15.3434C65.6225 15.5431 65.7623 15.8027 65.8496 16.1222C65.9545 16.5216 65.9445 16.9084 65.8197 17.2803C65.6924 17.6473 65.4902 17.9942 65.2107 18.3187C64.9311 18.6382 64.6241 18.9352 64.2921 19.2073C63.9577 19.4818 63.6357 19.7239 63.3237 19.9361C63.0167 20.1508 62.7671 20.3355 62.5749 20.4952C62.3802 20.65 62.2978 20.7723 62.3253 20.8646C62.3377 20.9195 62.3702 20.9545 62.4251 20.9744C62.485 20.9944 62.5449 20.9994 62.6048 20.9844C62.7571 20.9445 62.9093 20.8596 63.0641 20.7248C63.2238 20.5925 63.406 20.4528 63.6132 20.3055C63.8254 20.1607 64.085 20.0434 64.392 19.9561C64.7763 19.8512 65.1258 19.9136 65.4403 20.1458C65.7523 20.3729 65.9644 20.6849 66.0793 21.0843C66.264 21.7632 66.2041 22.4221 65.8995 23.0611C65.6 23.6951 65.0858 24.2592 64.362 24.7584C63.6432 25.2576 62.7596 25.6519 61.7162 25.9365Z" fill="#0097B2"/>
<path d="M75.4637 24.1915C74.937 24.184 74.4403 24.0966 73.976 23.9319C73.5093 23.7671 73.0999 23.5475 72.748 23.2729C72.3936 23.0009 72.119 22.6889 71.9193 22.3344C71.7197 21.9825 71.6223 21.6206 71.6298 21.2462C71.6348 21.0939 71.7221 20.9317 71.8894 20.757C72.0541 20.5773 72.2688 20.4025 72.5284 20.2278C72.7879 20.0556 73.0575 19.9033 73.3371 19.7685C73.6216 19.6363 73.8887 19.5264 74.1358 19.4391C74.3804 19.3542 74.5701 19.3143 74.7049 19.3193C74.8896 19.3392 75.0493 19.4091 75.1841 19.5289C75.3164 19.6487 75.3638 19.8334 75.3239 20.078C75.2839 20.405 75.2465 20.752 75.2141 21.1164C75.1791 21.4758 75.1966 21.8153 75.264 22.1348C75.3364 22.4493 75.4936 22.7088 75.7332 22.9135C75.9778 23.1207 76.3448 23.2305 76.8315 23.243C77.156 23.243 77.4605 23.1731 77.74 23.0333C78.0196 22.8935 78.2442 22.6989 78.4189 22.4443C78.5912 22.1847 78.681 21.8951 78.6885 21.5757C78.6935 21.1513 78.5887 20.7919 78.369 20.4974C78.1544 20.2053 77.8723 19.9582 77.5204 19.7586C77.1659 19.5589 76.784 19.3966 76.3722 19.2693C75.7532 19.0647 75.1666 18.85 74.615 18.6304C74.0609 18.4107 73.5767 18.1486 73.1574 17.8416C72.738 17.5296 72.4036 17.1477 72.1589 16.6935C71.9193 16.2417 71.802 15.6826 71.8095 15.0161C71.822 14.492 71.9343 14.0028 72.149 13.5485C72.3611 13.0892 72.6482 12.6874 73.0076 12.3404C73.372 11.996 73.7913 11.7289 74.2656 11.5417C74.7373 11.3495 75.2365 11.2597 75.7632 11.2721C76.0877 11.2721 76.3972 11.3196 76.6917 11.4119C76.9837 11.4993 77.2832 11.5866 77.5903 11.6715C77.9023 11.7589 78.2517 11.8063 78.6386 11.8113C78.9306 11.8188 79.1602 11.7813 79.3275 11.7015C79.4997 11.6216 79.6495 11.5417 79.7768 11.4618C79.9016 11.377 80.0289 11.337 80.1562 11.342C80.3009 11.342 80.3908 11.4269 80.4257 11.5916C80.4657 11.7589 80.4557 11.976 80.3958 12.2406C80.3409 12.5077 80.251 12.7872 80.1262 13.0792C79.9989 13.3738 79.8417 13.6483 79.657 13.9079C79.4698 14.1675 79.2601 14.3822 79.028 14.5469C78.8008 14.7066 78.5587 14.7865 78.2991 14.7865C77.8399 14.7815 77.4155 14.7017 77.0312 14.5469C76.6443 14.3872 76.2724 14.2049 75.9129 13.9978C75.5585 13.7931 75.1966 13.6084 74.8247 13.4487C74.4503 13.2889 74.0559 13.2065 73.6366 13.1991C73.402 13.1991 73.2023 13.2864 73.0375 13.4586C72.8778 13.6259 72.7929 13.828 72.7879 14.0677C72.7805 14.4071 72.9078 14.6867 73.1673 14.9063C73.4269 15.121 73.7664 15.2932 74.1857 15.4255C74.605 15.5603 75.0643 15.6651 75.5635 15.745C76.0627 15.8199 76.5469 15.8798 77.0212 15.9247C77.725 15.9996 78.3416 16.1993 78.8682 16.5237C79.3924 16.8432 79.7992 17.2601 80.0863 17.7717C80.3783 18.2784 80.5181 18.855 80.5056 19.499C80.4981 20.0581 80.3908 20.6222 80.1861 21.1863C79.9864 21.7454 79.6819 22.2546 79.2776 22.7138C78.8782 23.1681 78.3615 23.5325 77.73 23.8121C77.096 24.0841 76.3423 24.2114 75.4637 24.1915Z" fill="#0097B2"/>
<path d="M83.5201 13.9496C83.5051 13.4055 83.4827 12.8963 83.4502 12.422C83.4153 11.9428 83.3005 11.5709 83.1008 11.3038L88.0928 12.6916C87.9181 12.8064 87.7583 12.9712 87.6136 13.1908C87.4738 13.4055 87.3665 13.6376 87.2941 13.8897C87.2541 14.0444 87.1992 14.3165 87.1343 14.7084C87.0744 15.0953 87.0145 15.557 86.9546 16.0962C86.8947 16.6353 86.8398 17.2044 86.7949 17.8034C86.7549 18.4025 86.725 18.9965 86.705 19.5806C86.685 20.1672 86.69 20.7063 86.725 21.198C86.7574 21.6922 86.8173 22.0941 86.9047 22.4061C86.9896 22.7131 87.1144 22.8903 87.2741 22.9352C87.4863 22.9951 87.6934 22.9352 87.8931 22.7555C88.0978 22.5758 88.295 22.3162 88.4822 21.9768C88.6669 21.6323 88.8441 21.2429 89.0113 20.8086C89.1761 20.3768 89.3208 19.935 89.4406 19.4808C89.5654 19.029 89.6703 18.6022 89.7501 18.2028C89.83 17.7984 89.8824 17.459 89.9099 17.1844C89.9149 16.9448 89.9149 16.7052 89.9099 16.4656C89.9099 16.221 89.9049 15.9714 89.8999 15.7168C89.8849 15.1726 89.8625 14.6635 89.83 14.1892C89.7951 13.7175 89.6827 13.3456 89.4906 13.071L94.4826 14.4588C94.3029 14.5736 94.1431 14.7383 94.0033 14.958C93.8636 15.1726 93.7562 15.4048 93.6838 15.6569C93.6439 15.8116 93.589 16.0837 93.5241 16.4756C93.4567 16.8699 93.3943 17.3342 93.3344 17.8733C93.2795 18.4125 93.2296 18.9815 93.1846 19.5806C93.1447 20.1746 93.1098 20.7637 93.0848 21.3478C93.0648 21.9343 93.0698 22.4735 93.1048 22.9652C93.1372 23.4569 93.1971 23.8587 93.2845 24.1732C93.3768 24.4852 93.5041 24.6625 93.6639 24.7024C93.8685 24.7623 94.0557 24.7174 94.223 24.5726C94.3952 24.4253 94.5475 24.2157 94.6822 23.9436C94.8145 23.669 94.9244 23.3745 95.0117 23.055C95.144 22.5708 95.2139 22.0816 95.2214 21.5874C95.2264 21.0957 95.2014 20.6064 95.1415 20.1197C95.0866 19.6355 95.0267 19.1563 94.9618 18.682C94.9019 18.2103 94.867 17.751 94.862 17.3042C94.862 16.8525 94.9169 16.4132 95.0317 15.9863C95.0841 15.7941 95.1615 15.6045 95.2613 15.4173C95.3662 15.2325 95.5034 15.0928 95.6707 14.9979C95.8354 14.9056 96.0351 14.8931 96.2697 14.958L100.363 16.0962C100.056 16.2235 99.7666 16.483 99.4945 16.8749C99.22 17.2618 98.9379 17.6836 98.6459 18.1429C98.1717 18.8967 97.7498 19.5881 97.3779 20.2196C97.011 20.8461 96.6691 21.4576 96.3496 22.0566C96.0351 22.6557 95.7131 23.2822 95.3811 23.9336C95.0542 24.5926 94.6972 25.3214 94.3128 26.1201C94.2055 26.3398 94.1431 26.5694 94.1231 26.809C94.1082 27.0486 94.1481 27.2508 94.2429 27.4181L88.8815 25.9304C89.0612 25.8431 89.201 25.6908 89.3009 25.4712C89.4007 25.2515 89.4631 25.0219 89.4906 24.7823C89.5754 23.9636 89.6453 23.2148 89.7002 22.5359C89.7601 21.8569 89.8026 21.198 89.83 20.559C89.523 21.1181 89.221 21.7047 88.9215 22.3162C88.6219 22.9302 88.2925 23.6066 87.933 24.353C87.8332 24.5726 87.7683 24.8022 87.7433 25.0419C87.7234 25.2815 87.7583 25.4811 87.8532 25.6409L82.5117 24.1633C82.6765 24.0684 82.8112 23.9137 82.9111 23.694C83.0159 23.4794 83.0833 23.2547 83.1108 23.0151C83.1831 22.1315 83.2505 21.3253 83.3104 20.599C83.3753 19.8676 83.4253 19.1613 83.4602 18.4823C83.4926 17.8034 83.5126 17.1021 83.5201 16.3757C83.5326 15.6444 83.5326 14.8357 83.5201 13.9496Z" fill="#0097B2"/>
<path d="M96.012 28.5592C96.2366 28.4943 96.4313 28.3745 96.591 28.1998C96.7508 28.0201 96.913 27.7705 97.0803 27.451L101.513 18.9346C101.678 18.6151 101.785 18.343 101.833 18.1159C101.885 17.8838 101.875 17.6541 101.803 17.427L105.527 19.3639C105.307 19.4388 105.112 19.5611 104.948 19.7333C104.788 19.908 104.623 20.1526 104.458 20.4721L100.026 28.9885C99.8583 29.308 99.751 29.5826 99.7061 29.8172C99.6586 30.0493 99.6686 30.2764 99.736 30.4961L96.012 28.5592Z" fill="#0097B2"/>
<path d="M99.5294 30.1329C99.7615 30.093 99.9687 29.9982 100.148 29.8434C100.333 29.6912 100.53 29.469 100.737 29.1745L106.299 21.367C106.511 21.0749 106.658 20.8178 106.738 20.5982C106.823 20.3736 106.848 20.1439 106.808 19.9093L109.843 22.0758C110.023 22.2031 110.152 22.3454 110.232 22.5051C110.317 22.6649 110.347 22.8945 110.322 23.194C110.302 23.4886 110.222 23.8904 110.083 24.4021C109.943 24.9088 109.746 25.5877 109.493 26.4389L108.415 29.9932C108.308 30.3376 108.206 30.6821 108.106 31.0215C108.006 31.366 107.918 31.6855 107.846 31.98C107.771 32.272 107.731 32.5216 107.726 32.7288C107.726 32.9335 107.769 33.0682 107.856 33.1282C107.976 33.213 108.101 33.213 108.235 33.1282C108.375 33.0483 108.515 32.9235 108.655 32.7587C108.795 32.599 108.919 32.4393 109.034 32.2795C109.498 31.6206 109.838 30.9741 110.053 30.3426C110.272 29.7111 110.417 29.1021 110.492 28.5155C110.572 27.924 110.617 27.3674 110.632 26.8482C110.652 26.329 110.694 25.8648 110.761 25.4504C110.826 25.0311 110.964 24.6767 111.171 24.3821C111.395 24.0627 111.672 23.9129 111.999 23.9329C112.331 23.9528 112.643 24.0701 112.938 24.2823L115.085 25.7999C114.85 25.8473 114.64 25.9471 114.456 26.0994C114.276 26.2467 114.079 26.4663 113.866 26.7583L108.305 34.5659C108.098 34.8579 107.951 35.1175 107.866 35.3446C107.786 35.5692 107.766 35.7964 107.806 36.0235L105.12 34.1166C104.826 33.9019 104.624 33.6473 104.511 33.3478C104.404 33.0533 104.367 32.7288 104.402 32.3694C104.434 32.0149 104.506 31.6405 104.621 31.2412C104.734 30.8418 104.853 30.4275 104.981 30.0032C105.066 29.7511 105.163 29.4416 105.27 29.0746C105.383 28.7027 105.495 28.3134 105.61 27.9065C105.729 27.5022 105.839 27.1253 105.939 26.7783C106.039 26.4264 106.121 26.1468 106.189 25.9397C106.289 25.5877 106.391 25.2408 106.498 24.9013C106.603 24.5619 106.693 24.2474 106.768 23.9528C106.84 23.6533 106.878 23.4087 106.878 23.214C106.883 23.0143 106.838 22.8795 106.738 22.8047C106.631 22.7323 106.508 22.7348 106.368 22.8147C106.234 22.8945 106.094 23.0143 105.949 23.1741C105.802 23.3338 105.675 23.4911 105.57 23.6433C105.096 24.3023 104.751 24.9512 104.531 25.5902C104.317 26.2242 104.174 26.8357 104.102 27.4273C104.035 28.0138 103.992 28.5655 103.972 29.0846C103.952 29.5988 103.907 30.0631 103.843 30.4824C103.783 30.9067 103.645 31.2661 103.433 31.5607C103.214 31.8727 102.936 32.0199 102.604 32C102.278 31.98 101.961 31.8627 101.656 31.6505L99.5294 30.1329Z" fill="#0097B2"/>
<path d="M112.005 31.4581C112.449 31.0263 112.938 30.6394 113.472 30.2999C114.004 29.9605 114.553 29.6909 115.12 29.4912C115.684 29.2865 116.243 29.1667 116.797 29.1318C117.356 29.0918 117.895 29.1667 118.415 29.3514C118.934 29.5386 119.405 29.8556 119.832 30.2999C120.057 30.5345 120.242 30.7866 120.381 31.0587C120.526 31.3333 120.676 31.6128 120.831 31.8974C120.99 32.1769 121.203 32.454 121.47 32.726C121.669 32.9407 121.854 33.0805 122.029 33.1454C122.208 33.2128 122.371 33.2627 122.518 33.2951C122.663 33.3226 122.78 33.3825 122.867 33.4748C122.98 33.5946 122.977 33.7319 122.857 33.8842C122.743 34.0389 122.563 34.1887 122.318 34.3335C122.071 34.4807 121.804 34.6005 121.52 34.6929C121.32 34.7678 121.065 34.8377 120.761 34.9026C120.454 34.9699 120.154 34.9874 119.862 34.9525C119.568 34.9125 119.318 34.7877 119.113 34.5731C118.799 34.2486 118.559 33.9241 118.395 33.6046C118.235 33.2851 118.105 32.9706 118.005 32.6561C117.91 32.3441 117.828 32.0421 117.756 31.7476C117.688 31.4556 117.596 31.176 117.476 30.9089C117.361 30.6369 117.191 30.3848 116.967 30.1502C116.82 29.9979 116.66 29.9105 116.488 29.8906C116.313 29.8706 116.141 29.8956 115.968 29.9605C115.794 30.0204 115.639 30.0977 115.499 30.1901C115.359 30.2849 115.245 30.3698 115.16 30.4497C114.78 30.8091 114.421 31.2434 114.081 31.7476C113.742 32.2468 113.452 32.7859 113.213 33.365C112.978 33.9391 112.823 34.5207 112.744 35.1122C112.664 35.6963 112.689 36.2629 112.823 36.8095C112.956 37.3611 113.233 37.8578 113.652 38.2971C113.957 38.6166 114.271 38.8288 114.591 38.9361C114.915 39.0409 115.23 39.0684 115.529 39.016C115.829 38.9685 116.108 38.8712 116.368 38.7264C116.632 38.5867 116.86 38.4269 117.047 38.2472C117.311 37.9926 117.498 37.7779 117.606 37.5982C117.711 37.4185 117.698 37.2588 117.566 37.119C117.491 37.0441 117.379 37.0092 117.226 37.0092C117.072 37.0142 116.897 37.0341 116.697 37.0691C116.498 37.109 116.28 37.1315 116.048 37.139C115.821 37.1515 115.589 37.119 115.349 37.0391C115.115 36.9593 114.89 36.8045 114.671 36.5799C114.336 36.2329 114.131 35.8835 114.052 35.5315C113.972 35.1721 113.987 34.8302 114.101 34.5032C114.214 34.1712 114.406 33.8717 114.681 33.6046C114.82 33.4723 114.993 33.385 115.2 33.345C115.404 33.3001 115.564 33.3351 115.679 33.4549C115.724 33.5023 115.759 33.5822 115.779 33.6945C115.799 33.8018 115.831 33.9291 115.879 34.0739C115.924 34.2211 116.013 34.3684 116.148 34.5132C116.293 34.6679 116.448 34.7877 116.607 34.8726C116.772 34.9525 116.937 35.0298 117.097 35.1022C117.261 35.1696 117.441 35.262 117.636 35.3818C117.828 35.4966 118.028 35.6563 118.235 35.871C118.395 36.0432 118.524 36.2529 118.624 36.5C118.724 36.7521 118.754 37.0192 118.714 37.2987C118.679 37.5783 118.529 37.8428 118.265 38.0974L115.958 40.3039C115.612 40.4886 115.222 40.6284 114.79 40.7232C114.364 40.8231 113.917 40.8555 113.452 40.8231C112.986 40.7956 112.526 40.6858 112.075 40.4936C111.628 40.2989 111.219 40.0044 110.847 39.605C110.352 39.0983 109.993 38.5292 109.768 37.8978C109.541 37.2638 109.461 36.5948 109.529 35.891C109.594 35.1921 109.828 34.4682 110.228 33.7145C110.627 32.9557 111.219 32.2044 112.005 31.4581Z" fill="#0097B2"/>
<path d="M49.2019 125.377L46.2566 131.208L44.6092 130.369L45.7574 128.093L43.511 126.965L42.3628 129.241L40.7155 128.402L43.6607 122.572L45.3081 123.41L44.1999 125.607L46.4463 126.735L47.5545 124.538L49.2019 125.377Z" fill="#ED6969"/>
<path d="M53.6705 132.661L51.0646 131.753L50.1661 132.781L48.3889 132.162L53.2711 126.95L54.9784 127.549L55.5475 134.658L53.7404 134.029L53.6705 132.661ZM53.6106 131.204L53.5107 128.937L52.0231 130.654L53.6106 131.204Z" fill="#ED6969"/>
<path d="M63.6181 136.423L64.2671 133.019L62.0706 135.465L61.2519 135.305L60.1537 132.31L59.5047 135.615L57.8274 135.285L59.0854 128.875L60.583 129.165L62.1006 133.308L65.0259 130.044L66.5135 130.333L65.2755 136.743L63.6181 136.423Z" fill="#ED6969"/>
<path d="M74.3215 137.363L74.4413 133.898L72.6641 136.654L71.8355 136.614L70.278 133.828L70.1382 137.193L68.4309 137.123L68.7005 130.604L70.228 130.664L72.3546 134.517L74.7508 130.843L76.2684 130.913L76.0188 137.433L74.3215 137.363Z" fill="#ED6969"/>
<path d="M82.4547 137.08C81.7608 137.148 81.1268 137.065 80.5478 136.831C79.9737 136.599 79.5044 136.242 79.14 135.763C78.7806 135.283 78.5659 134.724 78.501 134.085C78.4286 133.441 78.5185 132.845 78.7706 132.298C79.0302 131.754 79.4146 131.307 79.9287 130.96C80.4479 130.608 81.0519 130.399 81.7458 130.331C82.4297 130.259 83.0587 130.339 83.6328 130.571C84.2119 130.798 84.6836 131.15 85.0505 131.629C85.415 132.108 85.6346 132.672 85.7095 133.316C85.7744 133.955 85.6795 134.549 85.42 135.094C85.1604 135.64 84.771 136.09 84.2518 136.441C83.7376 136.796 83.1386 137.008 82.4547 137.08ZM82.295 135.563C82.6269 135.523 82.9165 135.413 83.1636 135.233C83.4082 135.049 83.5954 134.809 83.7227 134.515C83.8475 134.215 83.8949 133.883 83.8624 133.516C83.8225 133.152 83.7077 132.837 83.523 132.578C83.3358 132.313 83.1037 132.116 82.8241 131.989C82.5446 131.856 82.2375 131.809 81.9056 131.849C81.5786 131.884 81.2891 131.994 81.037 132.178C80.7899 132.358 80.6027 132.598 80.4779 132.897C80.3581 133.192 80.3181 133.521 80.3581 133.886C80.3905 134.252 80.4978 134.569 80.6775 134.834C80.8622 135.094 81.0969 135.291 81.3764 135.423C81.661 135.55 81.968 135.598 82.295 135.563Z" fill="#ED6969"/>
<path d="M91.9617 135.414C91.3027 135.569 90.6737 135.569 90.0747 135.414C89.4806 135.262 88.9714 134.972 88.5471 134.545C88.1228 134.114 87.8333 133.582 87.6785 132.948C87.5337 132.316 87.5487 131.715 87.7284 131.141C87.9081 130.562 88.2276 130.07 88.6869 129.663C89.1511 129.251 89.7152 128.969 90.3742 128.815C90.9583 128.67 91.5074 128.645 92.0216 128.745C92.5407 128.84 92.995 129.039 93.3894 129.344L92.5108 130.652C91.9716 130.252 91.4125 130.122 90.8335 130.262C90.479 130.35 90.187 130.502 89.9549 130.722C89.7277 130.936 89.5755 131.198 89.4956 131.51C89.4157 131.825 89.4157 132.157 89.4956 132.509C89.5805 132.868 89.7302 133.168 89.9449 133.407C90.157 133.642 90.4141 133.804 90.7136 133.896C91.0182 133.984 91.3476 133.984 91.7021 133.896C92.2811 133.757 92.7204 133.387 93.02 132.788L94.3978 133.557C94.1906 134.016 93.8786 134.406 93.4593 134.725C93.0449 135.04 92.5457 135.269 91.9617 135.414Z" fill="#ED6969"/>
<path d="M98.6702 130.729L98.2708 131.657L98.8499 133.185L97.1426 133.834L94.8363 127.724L96.5436 127.075L97.502 129.621L98.9198 126.186L100.817 125.467L99.3491 129.111L103.253 131.527L101.246 132.286L98.6702 130.729Z" fill="#ED6969"/>
<path d="M107.368 129.606C106.901 129.854 106.414 130.033 105.91 130.146C105.411 130.26 104.974 130.29 104.602 130.235L104.502 128.748C104.854 128.788 105.226 128.773 105.621 128.698C106.02 128.618 106.384 128.496 106.719 128.328C107.35 127.996 107.583 127.675 107.418 127.36C107.33 127.195 107.178 127.118 106.959 127.13C106.739 127.145 106.404 127.21 105.96 127.33C105.473 127.457 105.057 127.545 104.712 127.59C104.368 127.637 104.028 127.597 103.694 127.47C103.362 127.345 103.09 127.078 102.875 126.671C102.695 126.319 102.63 125.952 102.675 125.573C102.715 125.188 102.885 124.812 103.185 124.445C103.484 124.08 103.911 123.753 104.463 123.466C104.847 123.267 105.246 123.114 105.661 123.007C106.072 122.902 106.462 122.857 106.829 122.877L106.959 124.345C106.245 124.345 105.631 124.48 105.111 124.744C104.784 124.911 104.577 125.081 104.482 125.253C104.383 125.428 104.373 125.59 104.453 125.743C104.532 125.897 104.68 125.967 104.892 125.952C105.111 125.94 105.441 125.872 105.88 125.753C106.364 125.62 106.781 125.533 107.128 125.493C107.473 125.448 107.812 125.488 108.147 125.613C108.479 125.74 108.751 126.002 108.965 126.402C109.145 126.756 109.21 127.12 109.165 127.5C109.118 127.879 108.945 128.256 108.646 128.628C108.346 128.995 107.919 129.322 107.368 129.606Z" fill="#ED6969"/>
<path d="M54.7424 101.178C72.5964 109.34 88.5833 106.605 102.706 92.9713" stroke="#FD8320" stroke-width="2.96984"/>
<path d="M55.1293 99.5057C74.1588 108.459 91.0094 105.404 105.683 90.3404" stroke="#FD8320" stroke-width="0.996109"/>
<mask id="mask56_24_77" style="mask-type:luminance" maskUnits="userSpaceOnUse" x="95" y="93" width="8" height="6">
<path d="M95.552 93.3956H102.341V98.5748H95.552V93.3956Z" fill="white"/>
</mask>
<g mask="url(#mask56_24_77)">
<mask id="mask57_24_77" style="mask-type:luminance" maskUnits="userSpaceOnUse" x="95" y="93" width="8" height="6">
<path d="M95.8167 97.6863C100.562 94.6187 101.136 93.5654 101.615 93.468C101.904 93.4206 102.334 93.7076 102.334 93.805C102.334 93.9472 101.712 94.3791 101.615 94.3316C101.473 94.2368 101.567 93.468 101.712 93.4206C101.807 93.3732 102.334 93.805 102.334 94.092C102.334 94.4764 101.52 95.0979 100.896 95.6246C99.7953 96.5356 97.0622 98.5 96.2011 98.5499C95.914 98.5499 95.6245 98.4051 95.5771 98.2603C95.5296 98.1181 95.8167 97.6863 95.8167 97.6863Z" fill="white"/>
</mask>
<g mask="url(#mask57_24_77)">
<path d="M93.6602 91.5037H104.303V100.467H93.6602V91.5037Z" fill="#FD8320"/>
</g>
</g>
<mask id="mask58_24_77" style="mask-type:luminance" maskUnits="userSpaceOnUse" x="96" y="93" width="5" height="6">
<path d="M96.0563 93.5952H100.904V98.2153H96.0563V93.5952Z" fill="white"/>
</mask>
<g mask="url(#mask58_24_77)">
<mask id="mask59_24_77" style="mask-type:luminance" maskUnits="userSpaceOnUse" x="96" y="93" width="5" height="6">
<path d="M96.1537 97.3518C99.5083 94.716 99.7479 93.8524 100.13 93.6602C100.369 93.5654 100.754 93.6602 100.849 93.805C100.946 93.9473 100.896 94.3316 100.801 94.4265C100.656 94.5238 100.035 94.4764 99.9875 94.3316C99.8902 94.1869 100.082 93.6602 100.227 93.6128C100.369 93.5654 100.896 93.9473 100.896 94.2368C100.946 94.6661 100.13 95.4823 99.5557 96.0564C98.8369 96.7752 97.3518 98.0207 96.7278 98.1655C96.4407 98.2129 96.2011 98.1655 96.1038 98.0207C96.0089 97.8785 96.1537 97.3518 96.1537 97.3518Z" fill="white"/>
</mask>
<g mask="url(#mask59_24_77)">
<path d="M94.1868 91.6958H102.87V100.082H94.1868V91.6958Z" fill="#FD8320"/>
</g>
</g>
<mask id="mask60_24_77" style="mask-type:luminance" maskUnits="userSpaceOnUse" x="100" y="90" width="5" height="4">
<path d="M100.422 90.9396H104.515V93.8699H100.422V90.9396Z" fill="white"/>
</mask>
<g mask="url(#mask60_24_77)">
<mask id="mask61_24_77" style="mask-type:luminance" maskUnits="userSpaceOnUse" x="100" y="90" width="5" height="4">
<path d="M100.657 92.9888C104.156 90.8822 104.396 90.9771 104.49 91.1218C104.54 91.2641 104.156 91.9355 104.011 91.9355C103.916 91.8881 103.629 91.1693 103.724 91.0719C103.772 90.9296 104.301 90.9296 104.443 91.0719C104.54 91.2167 104.54 91.5511 104.396 91.7908C104.011 92.4148 101.855 93.7576 101.136 93.8525C100.849 93.8999 100.514 93.7576 100.467 93.6128C100.37 93.4681 100.657 92.9888 100.657 92.9888Z" fill="white"/>
</mask>
<g mask="url(#mask61_24_77)">
<path d="M98.5498 89.0126H106.415V95.7693H98.5498V89.0126Z" fill="#FD8320"/>
</g>
</g>
<mask id="mask62_24_77" style="mask-type:luminance" maskUnits="userSpaceOnUse" x="104" y="89" width="2" height="3">
<path d="M104.338 89.9611H105.868V91.5335H104.338V89.9611Z" fill="white"/>
</mask>
<g mask="url(#mask62_24_77)">
<mask id="mask63_24_77" style="mask-type:luminance" maskUnits="userSpaceOnUse" x="104" y="89" width="2" height="3">
<path d="M104.348 90.6425C105.641 90.0185 105.928 90.5452 105.833 90.6899C105.786 90.7848 105.02 90.7374 104.97 90.6425C104.922 90.5452 105.401 89.9237 105.546 89.9711C105.641 90.0185 105.786 90.6425 105.689 90.8821C105.546 91.1692 104.827 91.601 104.588 91.5036C104.443 91.4562 104.348 90.6425 104.348 90.6425Z" fill="white"/>
</mask>
<g mask="url(#mask63_24_77)">
<path d="M102.431 88.0542H107.798V93.463H102.431V88.0542Z" fill="#FD8320"/>
</g>
</g>
<mask id="mask64_24_77" style="mask-type:luminance" maskUnits="userSpaceOnUse" x="100" y="93" width="2" height="1">
<path d="M100.342 93.0862H101.286V93.8674H100.342V93.0862Z" fill="white"/>
</mask>
<g mask="url(#mask64_24_77)">
<mask id="mask65_24_77" style="mask-type:luminance" maskUnits="userSpaceOnUse" x="100" y="93" width="2" height="1">
<path d="M101.28 93.3731C100.849 93.9971 100.467 93.8997 100.369 93.7574C100.322 93.6127 100.369 93.2283 100.514 93.1334C100.609 93.0386 101.136 93.1809 101.136 93.1809" fill="white"/>
</mask>
<g mask="url(#mask65_24_77)">
<path d="M98.4524 91.2166H103.192V95.8641H98.4524V91.2166Z" fill="#FD8320"/>
</g>
</g>
<path d="M100.824 93.5378C103.085 91.8131 105.344 90.0884 107.603 88.3636" stroke="#FD8320"/>
<path d="M53.3422 99.386C74.7854 105.706 90.4353 103.829 100.29 93.755" stroke="#FD8320" stroke-width="0.994074" stroke-linecap="round"/>
<path d="M49.5931 95.0181C69.7933 112.156 86.7137 111.664 100.354 93.5404" stroke="#FD8320"/>
<path d="M48.3501 90.243L52.5334 99.9275" stroke="#442E18" stroke-width="0.998581"/>
<path d="M55.3216 93.4679L47.4167 95.1801" stroke="#442E18"/>
<path d="M88.0067 97.811L66.0793 107.481" stroke="#442E18" stroke-width="0.992555"/>
<path d="M82.7301 107.55L61.5615 95.3224" stroke="#442E18" stroke-width="0.997249"/>
<path d="M98.0706 94.4663L97.192 99.1762" stroke="#442E18" stroke-width="0.971169"/>
<path d="M95.5546 96.0537L100.349 95.9813" stroke="#442E18" stroke-width="0.980092"/>
<path d="M107.6 88.3312C84.43 116.576 62.0383 115.972 40.4254 86.5216" stroke="#FD8320" stroke-width="0.997899"/>
<path d="M107.603 88.2888C92.1201 102.334 69.696 101.727 40.3255 86.4742" stroke="#E46A04" stroke-width="0.999446"/>
</svg>
