<svg width="150" height="150" viewBox="0 0 150 150" fill="none" xmlns="http://www.w3.org/2000/svg">
<circle cx="74.5" cy="75.5" r="72.5" fill="#FFEBDE"/>
<path d="M110.805 84.8643L107.85 88.0292" stroke="#2E3345" stroke-width="0.974125" stroke-linecap="round"/>
<mask id="mask0_11_1533" style="mask-type:luminance" maskUnits="userSpaceOnUse" x="106" y="69" width="10" height="46">
<path d="M106.265 69.1694H115.211V114.04H106.265V69.1694Z" fill="white"/>
</mask>
<g mask="url(#mask0_11_1533)">
<path d="M109.814 97.3045C109.303 104.059 107.753 108.155 107.772 110.643C107.785 112.485 108.654 113.444 111.432 113.95C111.913 114.038 112.58 113.878 113.029 113.706C113.686 113.464 114.205 112.949 114.454 112.295C114.509 112.161 114.557 112.026 114.602 111.889C114.754 111.414 114.861 110.928 114.926 110.433C114.926 110.421 114.929 110.411 114.929 110.399C114.973 110.074 115.001 109.747 115.016 109.418C115.051 108.686 115.033 107.945 115.008 107.206C114.998 106.932 114.988 106.655 114.978 106.382C114.968 106.135 114.963 105.898 114.961 105.656C114.961 105.244 114.956 104.835 114.954 104.428C114.951 104.231 114.951 104.031 114.944 103.839C114.919 101.885 114.849 99.9303 114.766 97.9759C114.766 97.9459 114.764 97.9135 114.764 97.886C114.749 97.5965 114.736 97.3095 114.724 97.0224C114.714 96.8677 114.709 96.7079 114.701 96.5532C114.686 96.2012 114.651 95.8468 114.651 95.4949C114.569 93.8949 114.474 92.2925 114.352 90.6925C114.33 90.4055 114.307 90.116 114.285 89.8289C114.25 89.3971 114.215 88.9678 114.177 88.5335C114.037 86.9685 113.873 85.406 113.668 83.8485C113.633 83.5714 113.598 83.2994 113.561 83.0223C113.553 82.9774 113.548 82.93 113.541 82.885C113.334 81.3874 113.094 79.8998 112.787 78.4222C112.555 77.279 112.285 76.1433 111.951 75.0251C111.883 74.803 111.814 74.5808 111.741 74.3562C111.546 73.7546 111.322 73.1606 111.067 72.5815C110.94 72.297 110.805 72.0174 110.658 71.7404V71.7379C110.511 71.4708 110.351 71.2137 110.176 70.9641C109.942 70.6172 109.649 70.3102 109.315 70.0581C109.083 69.8833 108.811 69.7735 108.524 69.7411C108.284 69.7236 108.042 69.7735 107.832 69.8908C107.618 70.0181 107.433 70.1903 107.288 70.395C107.243 70.4574 107.201 70.5223 107.161 70.5897C107.064 70.7594 106.984 70.9392 106.924 71.1264C106.904 71.1912 106.884 71.2561 106.869 71.321C106.574 72.4867 107.236 73.7172 108.007 76.7499C108.182 77.4412 108.364 78.225 108.541 79.1261C109.078 81.8167 109.472 84.5349 109.722 87.268C109.737 87.4527 109.754 87.6324 109.767 87.8147C110.034 90.9721 110.049 94.1445 109.814 97.3045Z" fill="#AA7E50"/>
</g>
<mask id="mask1_11_1533" style="mask-type:luminance" maskUnits="userSpaceOnUse" x="81" y="52" width="56" height="41">
<path d="M81.864 52.5559H136.968V92.1725H81.864V52.5559Z" fill="white"/>
</mask>
<g mask="url(#mask1_11_1533)">
<path d="M91.7681 91.566H92.4545C92.5868 91.5136 92.7215 91.4637 92.8538 91.4113C93.6501 91.0918 94.2067 90.4753 94.7233 89.8388C95.4896 88.9003 96.0912 87.852 96.6428 86.7762C96.8649 86.3469 97.0746 85.9151 97.2892 85.4857C97.3541 85.5831 97.3966 85.6929 97.4115 85.8102C97.6112 86.7487 98.3176 87.0907 99.0664 86.5166C99.4009 86.2495 99.6954 85.935 99.945 85.5881C100.856 84.3401 101.6 82.9773 102.151 81.5346C102.274 81.2226 102.406 80.9131 102.538 80.5936C102.633 80.8132 102.711 81.0129 102.803 81.2026C103.053 81.7292 103.654 81.9664 104.263 81.567C104.667 81.3024 104.932 80.9156 105.179 80.5212C106.06 79.1234 106.634 77.5859 107.168 76.0309C107.528 74.9776 107.71 73.8718 108.154 72.8435C108.409 72.2619 108.624 71.6629 108.853 71.0738C109.193 71.6279 109.527 72.1596 109.852 72.6987C110.658 74.0316 111.459 75.3694 112.27 76.7023C113.236 78.2898 114.267 79.8298 115.687 81.0603C115.914 81.2575 116.169 81.4197 116.446 81.5371C116.753 81.6718 117.113 81.5296 117.245 81.2226C117.275 81.1552 117.292 81.0828 117.295 81.0079C117.315 80.7059 117.22 80.3989 117.177 80.0919L117.197 79.9471L117.232 80.0494C117.634 80.5012 118.036 80.953 118.438 81.4073C119.102 82.1685 119.863 82.8425 120.702 83.4066C120.961 83.5938 121.278 83.6761 121.595 83.6437C121.962 83.6013 122.182 83.3966 122.177 83.0322C122.174 82.7476 122.134 82.4631 122.11 82.1785L122.057 82.191L122.065 82.1411L122.105 82.1885C122.164 82.2309 122.222 82.2784 122.274 82.3308C123.19 83.4066 124.204 84.3775 125.434 85.0864C125.896 85.336 126.373 85.5531 126.864 85.7378C127.107 85.8452 127.391 85.7803 127.558 85.5756C127.726 85.3734 127.701 85.1862 127.493 84.8817C127.286 84.5797 127.077 84.2802 126.867 83.9806C126.862 83.9507 126.857 83.9207 126.849 83.8908L126.922 83.9282C127.022 84.0006 127.124 84.073 127.224 84.1454C127.676 84.4674 128.112 84.8118 128.584 85.1039C129.223 85.5007 129.954 85.5481 130.673 85.4508C131.647 85.3185 132.221 84.4798 132.233 83.5938C132.248 82.8475 132.069 82.1086 131.709 81.4547C131.41 80.918 131.105 80.3889 130.788 79.8622C129.71 78.0676 128.375 76.4752 126.949 74.9526C125.988 73.9242 124.952 72.9658 123.852 72.0897C122.379 70.9041 120.759 69.9107 119.034 69.1369C118.92 69.087 118.812 69.0196 118.645 68.9297C119.346 68.78 120.023 68.6876 120.163 67.8589C120.2 67.8639 120.235 67.8739 120.27 67.8889C121.094 68.3382 121.987 68.6477 122.913 68.8049C123.31 68.8773 123.719 68.8823 124.121 68.8199C124.626 68.7325 124.935 68.3681 125.037 67.8689C125.557 68.1185 126.041 68.3856 126.552 68.5878C127.366 68.9098 128.185 69.2268 129.098 69.0795C129.655 69.0021 130.154 68.7001 130.479 68.2433C130.763 67.8789 130.848 67.3972 130.703 66.9604C130.823 67.0103 130.898 67.0402 130.973 67.0752C132.248 67.6568 133.571 68.131 134.927 68.4929C135.241 68.5828 135.563 68.6402 135.887 68.6676C136.382 68.6951 136.741 68.448 136.968 68.0062V67.0927C136.946 67.0652 136.906 67.0378 136.903 67.0078C136.841 66.3788 136.591 65.7823 136.19 65.2955C135.258 64.1074 134.128 63.0916 132.845 62.2953C132.368 61.9933 131.851 61.7537 131.377 61.4467C130.683 60.9949 129.93 60.638 129.138 60.3884C128.053 60.039 126.934 59.8068 125.801 59.6945C124.898 59.6146 123.994 59.5223 123.088 59.4774C122.584 59.4524 122.077 59.5348 121.57 59.5398C120.552 59.5697 119.539 59.697 118.545 59.9216C115.845 60.4758 113.299 61.6214 111.092 63.2788C111.002 63.3462 110.9 63.3961 110.803 63.456L110.758 63.3911C110.808 63.3037 110.863 63.2214 110.925 63.1415C112.001 61.9958 113.069 60.8427 114.162 59.712C114.612 59.2477 115.106 58.8259 115.592 58.4016C116.154 57.9099 116.726 57.4331 117.3 56.9564C118.031 56.3524 118.785 55.7733 119.494 55.1443C119.783 54.8797 120.023 54.5677 120.208 54.2233C120.52 53.6642 120.335 53.2323 119.741 52.9852C119.177 52.7606 118.558 52.7207 117.971 52.8729C117.322 53.0327 116.711 53.3122 116.169 53.7016C116.002 53.8164 115.832 53.9287 115.64 54.0585C115.635 53.437 115.38 53.2448 114.821 53.4021C114.604 53.462 114.392 53.5369 114.187 53.6267C113.299 54.0286 112.487 54.5802 111.791 55.2616C111.392 55.646 110.992 56.0304 110.593 56.4172L110.561 56.4697L110.546 56.4247L110.6 56.4272C110.598 56.1726 110.613 55.918 110.59 55.6684C110.538 55.0594 110.016 54.7524 109.53 54.9596C109.128 55.1418 108.763 55.3964 108.451 55.7134C107.535 56.6044 106.836 57.6927 106.41 58.8983C106.118 59.6471 105.935 60.4308 105.868 61.232C105.831 61.7737 105.753 62.3153 105.758 62.8544C105.766 63.4984 105.838 64.1424 105.883 64.7839L105.925 64.8438L105.871 64.8063C105.773 64.7265 105.683 64.6391 105.598 64.5467C105.109 63.9652 104.54 63.456 103.906 63.0367C102.668 62.208 101.233 61.7188 99.7478 61.6164C99.1413 61.5815 98.5323 61.6064 97.9307 61.6863C97.2718 61.7637 96.6178 61.876 95.9713 62.0258C94.0694 62.4626 92.2748 63.1939 90.54 64.085C89.1323 64.8088 87.8543 65.7224 86.5864 66.6609C85.3583 67.5669 84.2027 68.5453 83.2342 69.7284C82.6751 70.4099 82.1609 71.1237 81.9812 72.0273C81.8564 72.6687 82.1335 73.2878 82.76 73.47C83.1194 73.5823 83.5038 73.6023 83.8757 73.5299C84.4698 73.3826 85.0488 73.1754 85.6004 72.9059C86.6388 72.4092 87.5498 71.7028 88.4783 71.0314C88.718 70.8566 88.9551 70.6769 89.1947 70.5022C89.1922 70.642 89.1697 70.7818 89.1223 70.9141C88.9925 71.5755 89.1822 72.0048 89.916 71.8925C90.263 71.8501 90.5999 71.7402 90.9045 71.5705C91.7431 71.0588 92.5493 70.4972 93.3655 69.9531C93.685 69.7409 93.9945 69.5188 94.309 69.3016C94.2366 69.5313 94.1493 69.7559 94.0444 69.9731C93.8547 70.4448 94.1393 70.8941 94.6435 70.8966C94.8931 70.8866 95.1402 70.8442 95.3798 70.7693C96.161 70.5471 96.8599 70.1403 97.5513 69.7284C98.2103 69.3341 98.8567 68.9172 99.5082 68.5104L99.5906 68.4879L99.5456 68.5428C99.5157 68.7151 99.5032 68.8898 99.5082 69.0645C99.5756 69.6161 99.9076 69.8582 100.497 69.9057C100.799 69.9306 101.106 69.8732 101.48 69.8508C101.373 69.9381 101.318 69.988 101.26 70.028C99.8501 71.0139 98.5273 72.1196 97.3042 73.3302C96.4131 74.2113 95.577 75.1473 94.8007 76.1332C93.8298 77.3587 93.0011 78.6941 92.3372 80.1093C91.2589 82.4531 90.4901 84.8892 90.233 87.4726C90.1532 88.164 90.1557 88.8603 90.2355 89.5492C90.3628 90.5227 90.7896 91.249 91.7681 91.566ZM110.561 63.5508L110.57 63.5733L110.558 63.5558L110.715 63.5009L110.728 63.5658L110.561 63.5508Z" fill="#6C754D"/>
</g>
<mask id="mask2_11_1533" style="mask-type:luminance" maskUnits="userSpaceOnUse" x="104" y="69" width="12" height="46">
<path d="M104.348 69.1694H115.211V114.04H104.348V69.1694Z" fill="white"/>
</mask>
<g mask="url(#mask2_11_1533)">
<path d="M107.772 110.643C107.785 112.485 108.654 113.444 111.432 113.95C111.913 114.038 112.58 113.878 113.029 113.706C113.95 113.356 114.334 112.705 114.602 111.889C114.587 111.889 109.759 112.498 107.772 110.643ZM109.073 108.594C109.288 108.344 110.106 109.265 112.485 109.605C115.168 109.992 115.183 108.546 114.929 110.399C112.672 110.833 110.476 110.423 109.073 108.594ZM111.037 106.732C110.942 106.679 110.885 106.547 110.813 106.447C110.828 106.42 110.84 106.39 110.858 106.362C115.408 107.316 114.944 105.382 115.008 107.206C113.171 107.556 112.697 107.591 111.037 106.732ZM113.888 104.074C114.067 103.944 113.813 103.971 114.944 103.839C114.951 104.031 114.951 104.231 114.953 104.428C114.639 104.438 114.324 104.378 114.035 104.251C113.975 104.226 113.94 104.134 113.888 104.074ZM104.752 71.98C104.905 69.6687 108.349 68.6029 109.155 71.4109C111.484 69.3642 112.952 73.3303 111.045 74.174C110.738 74.3088 110.408 74.3886 110.086 74.496C110.488 76.3255 106.886 76.8747 107.263 74.194C106.1 74.3063 104.657 73.4327 104.752 71.98ZM113.186 98.3453C112.208 98.4851 110.838 98.2305 110.558 97.3319C111.414 97.4068 112.016 97.7812 113.78 97.312C114.841 97.0324 114.766 96.7079 114.766 97.9759C114.245 98.1257 113.718 98.248 113.186 98.3453ZM111.601 90.0561C112.517 89.9787 113.398 89.9063 114.285 89.8289C114.307 90.116 114.329 90.4055 114.352 90.6926C113.441 90.8498 111.716 90.9971 111.601 90.0561ZM110.174 101.253C111.514 101.615 112.867 101.53 114.222 101.555C113.656 102.451 111.536 102.119 110.603 101.772C110.401 101.7 110.199 101.583 110.174 101.253ZM110.997 83.524C111.861 83.2545 112.73 83.257 113.561 83.0223C113.598 83.2994 113.633 83.5715 113.668 83.8485C112.824 84.0682 111.469 84.2628 110.997 83.524ZM111.809 80.726C111.494 81.2726 110.266 81.677 109.495 81.34C109.1 81.1678 109.053 80.7585 109.637 80.6811C109.929 80.6761 110.221 80.6511 110.508 80.6062C110.945 80.5313 111.509 80.1619 111.809 80.726ZM109.767 87.8147C109.754 87.6325 109.737 87.4527 109.722 87.268C110.393 87.2156 111.052 86.9585 111.749 87.2431C111.359 87.8072 110.59 87.8346 109.767 87.8147ZM113.042 94.5813C112.74 95.0007 112.011 94.9807 111.477 94.7361C110.461 94.2743 113.75 93.5904 113.042 94.5813ZM109.789 79.0412C109.63 78.9189 109.667 78.6319 109.847 78.5794C112.138 77.923 110.625 79.6802 109.789 79.0412ZM111.961 99.9552C111.479 99.5134 112.462 99.3063 113.116 99.5309C112.952 100.048 112.298 100.265 111.961 99.9552ZM111.1 104.149C111.422 104.074 112.091 104.176 112.37 104.346C111.833 104.565 111.304 104.485 111.1 104.149ZM112.72 85.446C112.517 85.8353 112.24 85.9177 111.838 85.6881C112.021 85.4609 112.398 85.3636 112.72 85.446ZM112.575 92.4348C112.452 92.305 112.325 92.2351 112.313 92.1452C112.268 91.8233 112.862 91.8133 112.832 92.1303C112.824 92.2251 112.69 92.3075 112.575 92.4348Z" fill="#735334"/>
</g>
<path d="M121.451 63.7706C125.33 63.2115 131.854 65.2407 131.854 65.0336C128.584 61.8861 113.768 63.7057 128.484 62.0009C122.507 60.8303 123.403 62.9494 115.812 63.8005C117.994 62.7148 120.283 61.9136 122.686 61.2172C119.312 60.703 115.992 63.4736 112.54 64.8888C112.051 65.0785 109.754 66.0669 109.932 66.5886C113.706 64.8139 115.618 64.5918 120.41 66.5037C121.426 66.7983 120.43 66.1443 119.881 65.9222C117.18 64.8264 116.386 64.9387 115.405 64.5868C117.996 64.0801 119.641 63.2115 126.6 65.8323C126.453 64.6043 122.681 63.9054 121.451 63.7706ZM112.463 68.6553C121.024 70.6521 126.098 81.8342 124.83 80.3715C120.545 75.4145 122.544 76.7723 122.224 78.7516C121.413 78.0552 120.245 73.7172 118.538 72.9185C119.102 74.174 119.611 75.3521 119.404 76.7773C117.629 74.3836 118.431 72.2895 115.108 70.5148C114.23 70.0456 116.276 71.8527 116.237 74.1415C115.375 73.0682 115.338 73.0208 113.668 70.1654C113.022 69.0621 110.858 69.3791 110.925 68.7127C110.967 68.3008 112.056 68.5604 112.463 68.6553ZM104.518 66.3739C104.021 67.2625 102.91 64.9113 100.899 65.69C100.716 65.7599 97.8385 66.8831 97.7561 66.7134C98.5548 65.9172 99.0615 65.2882 100.963 64.6742C98.8793 64.0501 96.8176 65.3081 94.7434 66.2117C93.5603 66.7284 95.6595 64.6866 96.8276 64.1175C96.0813 64.16 94.2218 64.3172 93.5903 64.7216C89.7464 67.1801 90.5352 66.651 90.1483 66.9605C89.8737 66.6859 90.7923 65.7824 91.0519 65.4354C89.407 66.0045 89.6092 65.9621 89.5493 65.8747C92.2075 62.8945 100.909 61.4892 104.518 66.3739ZM103.025 72.1372C103.584 72.7263 101.513 73.51 101.458 74.2289C101.34 75.8063 100.861 76.4927 100.686 76.8347C100.554 76.7948 100.587 77.0369 100.587 74.9003C99.9476 75.6566 99.5458 76.041 99.3411 76.6225C99.2837 77.1866 97.4341 83.3293 98.0856 78.1925C95.7394 81.6195 92.8265 87.7697 93.3332 85.7854C95.0954 78.8939 102.226 71.2986 103.025 72.1372ZM119.184 55.5512C105.272 68.0937 115.945 58.7262 117.824 60.2687C116.788 60.8677 117.008 60.2338 113.975 61.976C109.522 64.5369 109.253 66.9156 108.514 66.4887C107.778 64.6142 121.885 51.7473 119.184 55.5512ZM107.303 67.6344C106.847 68.3083 106.432 68.2609 105.851 68.5155C97.9808 71.9725 96.3284 75.2947 92.9912 79.5728C92.6094 79.473 93.8025 76.7049 96.9998 73.2654C99.8952 70.1529 106.954 66.7933 107.303 67.6344ZM125.656 73.5724C124.708 74.3636 123.198 69.0771 111.04 67.7043C109.61 67.5421 110.106 67.7368 109.605 67.4946C110.358 65.9621 123.907 69.0397 125.656 73.5724ZM107.78 60.0141C108.232 60.1289 108.541 60.9301 108.636 62.1207C111.816 54.5104 116.089 54.7301 114.125 55.8258C112.652 56.647 111.467 58.1546 112.203 57.4956C112.937 57.0863 113.211 56.8267 113.808 57.0164C111.819 58.7012 110.428 58.7486 109.345 61.7239C109.223 62.2156 111.135 59.5523 112.265 59.4874C112.43 59.8793 108.818 62.5001 108.614 64.0102C108.524 64.6841 108.342 64.8539 108.312 64.9038C108.125 64.5943 108.14 64.5294 108.159 62.4502C108.169 61.3719 107.932 60.8553 107.78 60.0141ZM99.9127 61.946C100.232 61.2147 104.71 63.0243 105.846 64.0077C106.545 64.6118 107.146 65.3256 107.783 66.002C107.897 66.1243 108 66.2891 107.84 66.5162C106.944 66.1992 106.507 65.7075 105.758 65.101C103.227 63.0592 99.6706 62.5001 99.9127 61.946ZM103.479 77.6259C103.754 78.7966 101.036 84.2179 100.257 84.4899C100.696 83.232 101.248 82.2985 102.641 79.2708C103.222 78.0078 103.085 77.5261 103.479 77.6259Z" fill="#4F563A"/>
<mask id="mask3_11_1533" style="mask-type:luminance" maskUnits="userSpaceOnUse" x="31" y="69" width="10" height="46">
<path d="M31.5046 69.1694H40.4503V114.04H31.5046V69.1694Z" fill="white"/>
</mask>
<g mask="url(#mask3_11_1533)">
<path d="M36.9359 97.3045C37.4476 104.059 38.9976 108.155 38.9777 110.643C38.9652 112.485 38.0966 113.444 35.3185 113.95C34.8368 114.038 34.1704 113.878 33.7211 113.706C33.0646 113.464 32.5455 112.949 32.2959 112.295C32.2409 112.161 32.1935 112.026 32.1511 111.889C31.9963 111.414 31.889 110.928 31.8266 110.433C31.8266 110.421 31.8216 110.411 31.8216 110.399C31.7767 110.074 31.7492 109.747 31.7342 109.418C31.6993 108.686 31.7168 107.945 31.7417 107.206C31.7517 106.932 31.7617 106.655 31.7717 106.382C31.7817 106.135 31.7867 105.898 31.7917 105.656C31.7917 105.244 31.7942 104.835 31.7966 104.428C31.7991 104.231 31.7991 104.031 31.8066 103.839C31.8316 101.885 31.9015 99.9303 31.9838 97.9759C31.9838 97.9459 31.9888 97.9135 31.9888 97.886C32.0013 97.5965 32.0138 97.3095 32.0263 97.0224C32.0363 96.8677 32.0413 96.7079 32.0487 96.5532C32.0637 96.2012 32.0987 95.8468 32.0987 95.4949C32.181 93.8949 32.2784 92.2925 32.3982 90.6925C32.4207 90.4055 32.4431 90.116 32.4656 89.8289C32.5005 89.3971 32.5355 88.9678 32.5729 88.5335C32.7127 86.9685 32.8774 85.406 33.0821 83.8485C33.117 83.5714 33.152 83.2994 33.1894 83.0223C33.1969 82.9774 33.2019 82.93 33.2094 82.885C33.4166 81.3874 33.6562 79.8998 33.9632 78.4222C34.1953 77.279 34.4649 76.1433 34.7993 75.0251C34.8667 74.803 34.9366 74.5808 35.009 74.3562C35.2037 73.7546 35.4283 73.1606 35.6829 72.5815C35.8102 72.297 35.945 72.0174 36.0948 71.7404V71.7379C36.2395 71.4708 36.3993 71.2137 36.574 70.9641C36.8086 70.6172 37.1007 70.3102 37.4351 70.0581C37.6673 69.8833 37.9393 69.7735 38.2264 69.7411C38.4685 69.7236 38.7081 69.7735 38.9178 69.8908C39.1324 70.0181 39.3171 70.1903 39.4619 70.395C39.5068 70.4574 39.5517 70.5223 39.5892 70.5897C39.6865 70.7594 39.7664 70.9392 39.8263 71.1264C39.8463 71.1912 39.8662 71.2561 39.8812 71.321C40.1782 72.4867 39.5168 73.7172 38.743 76.7499C38.5683 77.4412 38.3861 78.225 38.2089 79.1261C37.6722 81.8167 37.2779 84.5349 37.0283 87.268C37.0133 87.4527 36.9958 87.6324 36.9834 87.8147C36.7163 90.9721 36.7013 94.1445 36.9359 97.3045Z" fill="#AA7E50"/>
</g>
<mask id="mask4_11_1533" style="mask-type:luminance" maskUnits="userSpaceOnUse" x="9" y="52" width="56" height="41">
<path d="M9.78174 52.5559H64.8936V92.1725H9.78174V52.5559Z" fill="white"/>
</mask>
<g mask="url(#mask4_11_1533)">
<path d="M54.9819 91.566H54.2955C54.1632 91.5136 54.0284 91.4637 53.8962 91.4113C53.0999 91.0918 52.5433 90.4753 52.0266 89.8388C51.2604 88.9003 50.6588 87.852 50.1072 86.7762C49.8876 86.3469 49.6754 85.9151 49.4608 85.4857C49.3959 85.5831 49.3534 85.6929 49.3409 85.8102C49.1388 86.7487 48.4324 87.0907 47.6836 86.5166C47.3491 86.2495 47.0546 85.935 46.805 85.5881C45.894 84.3401 45.1526 82.9773 44.5985 81.5346C44.4762 81.2226 44.3439 80.9131 44.2117 80.5936C44.1168 80.8132 44.0394 81.0129 43.9471 81.2026C43.6975 81.7292 43.0959 81.9664 42.4869 81.567C42.0826 81.3024 41.818 80.9156 41.5709 80.5212C40.6898 79.1234 40.1157 77.5859 39.5816 76.0309C39.2221 74.9776 39.0399 73.8718 38.5956 72.8435C38.341 72.2619 38.1289 71.6629 37.8968 71.0738C37.5573 71.6279 37.2253 72.1596 36.8984 72.6987C36.0921 74.0316 35.2909 75.3694 34.4797 76.7023C33.5138 78.2898 32.4829 79.8298 31.0627 81.0603C30.8356 81.2575 30.581 81.4197 30.3039 81.5371C29.9969 81.6718 29.6375 81.5296 29.5052 81.2226C29.4752 81.1552 29.4578 81.0828 29.4553 81.0079C29.4353 80.7059 29.5301 80.3989 29.5726 80.0919L29.5526 79.9471L29.5202 80.0494C29.1158 80.5012 28.7139 80.953 28.3121 81.4073C27.6482 82.1685 26.8869 82.8425 26.0482 83.4066C25.7886 83.5938 25.4716 83.6761 25.1546 83.6437C24.7877 83.6013 24.5681 83.3966 24.5731 83.0322C24.5756 82.7476 24.6155 82.4631 24.6405 82.1785L24.6929 82.191L24.6854 82.1411L24.6455 82.1885C24.5856 82.2309 24.5281 82.2784 24.4757 82.3308C23.5597 83.4066 22.5488 84.3775 21.3158 85.0864C20.854 85.336 20.3773 85.5531 19.8856 85.7378C19.6435 85.8452 19.3614 85.7803 19.1917 85.5756C19.0245 85.3734 19.0494 85.1862 19.2566 84.8817C19.4637 84.5797 19.6734 84.2802 19.8831 83.9806C19.8881 83.9507 19.8931 83.9207 19.9005 83.8908L19.8282 83.9282C19.7283 84.0006 19.626 84.073 19.5261 84.1454C19.0744 84.4674 18.6376 84.8118 18.1658 85.1039C17.5268 85.5007 16.7955 85.5481 16.0767 85.4508C15.1032 85.3185 14.5291 84.4798 14.5167 83.5938C14.5017 82.8475 14.6814 82.1086 15.0433 81.4547C15.3403 80.918 15.6449 80.3889 15.9619 79.8622C17.0401 78.0676 18.378 76.4752 19.8032 74.9526C20.7617 73.9242 21.7975 72.9658 22.8983 72.0897C24.3709 70.9041 25.9908 69.9107 27.7155 69.1369C27.8304 69.087 27.9377 69.0196 28.1049 68.9297C27.4035 68.78 26.7271 68.6876 26.5873 67.8589C26.5499 67.8639 26.515 67.8739 26.48 67.8889C25.6563 68.3382 24.7628 68.6477 23.8392 68.8049C23.4399 68.8773 23.0305 68.8823 22.6287 68.8199C22.1245 68.7325 21.815 68.3681 21.7126 67.8689C21.196 68.1185 20.7093 68.3856 20.1976 68.5878C19.3839 68.9098 18.5652 69.2268 17.6516 69.0795C17.095 69.0021 16.5958 68.7001 16.2714 68.2433C15.9868 67.8789 15.9044 67.3972 16.0467 66.9604C15.9269 67.0103 15.852 67.0402 15.7771 67.0752C14.5017 67.6568 13.1788 68.131 11.8235 68.4929C11.509 68.5828 11.187 68.6402 10.8625 68.6676C10.3683 68.6951 10.0089 68.448 9.78174 68.0062V67.0927C9.8042 67.0652 9.84414 67.0378 9.84663 67.0078C9.90903 66.3788 10.1586 65.7823 10.5605 65.2955C11.4915 64.1074 12.6247 63.0916 13.9051 62.2953C14.3819 61.9933 14.8986 61.7537 15.3728 61.4467C16.0667 60.9949 16.8205 60.638 17.6117 60.3884C18.6975 60.039 19.8157 59.8068 20.9489 59.6945C21.8524 59.6146 22.7585 59.5223 23.6645 59.4774C24.1662 59.4524 24.6754 59.5348 25.1796 59.5398C26.198 59.5697 27.2114 59.697 28.2048 59.9216C30.9054 60.4758 33.4514 61.6214 35.6578 63.2788C35.7502 63.3462 35.85 63.3961 35.9474 63.456L35.9923 63.3911C35.9424 63.3037 35.8875 63.2214 35.8251 63.1415C34.7493 61.9958 33.681 60.8427 32.5877 59.712C32.1385 59.2477 31.6443 58.8259 31.1575 58.4016C30.5959 57.9099 30.0244 57.4331 29.4503 56.9564C28.7189 56.3524 27.9651 55.7733 27.2563 55.1443C26.9692 54.8797 26.7271 54.5677 26.5424 54.2233C26.2304 53.6642 26.4151 53.2323 27.0092 52.9852C27.5733 52.7606 28.1923 52.7207 28.7813 52.8729C29.4278 53.0327 30.0393 53.3122 30.581 53.7016C30.7482 53.8164 30.9179 53.9287 31.1101 54.0585C31.1151 53.437 31.3697 53.2448 31.9288 53.4021C32.146 53.462 32.3581 53.5369 32.5628 53.6267C33.4514 54.0286 34.2626 54.5802 34.959 55.2616C35.3583 55.646 35.7577 56.0304 36.157 56.4172L36.1895 56.4697L36.2045 56.4247L36.1495 56.4272C36.152 56.1726 36.1371 55.918 36.1595 55.6684C36.212 55.0594 36.7336 54.7524 37.2203 54.9596C37.6222 55.1418 37.9891 55.3964 38.2986 55.7134C39.2146 56.6044 39.9135 57.6927 40.3403 58.8983C40.6324 59.6471 40.8146 60.4308 40.882 61.232C40.9194 61.7737 40.9968 62.3153 40.9918 62.8544C40.9843 63.4984 40.9119 64.1424 40.867 64.7839L40.8271 64.8438L40.882 64.8063C40.9768 64.7265 41.0667 64.6391 41.1515 64.5467C41.6408 63.9652 42.2099 63.456 42.8463 63.0367C44.0819 62.208 45.5171 61.7188 47.0022 61.6164C47.6087 61.5815 48.2177 61.6064 48.8193 61.6863C49.4782 61.7637 50.1322 61.876 50.7786 62.0258C52.6831 62.4626 54.4752 63.1939 56.21 64.085C57.6177 64.8088 58.8957 65.7224 60.1636 66.6609C61.3917 67.5669 62.5473 68.5453 63.5158 69.7284C64.0774 70.4099 64.589 71.1237 64.7688 72.0273C64.8936 72.6687 64.6165 73.2878 63.99 73.47C63.6306 73.5823 63.2462 73.6023 62.8743 73.5299C62.2802 73.3826 61.7012 73.1754 61.1496 72.9059C60.1112 72.4092 59.2002 71.7028 58.2717 71.0314C58.032 70.8566 57.7949 70.6769 57.5553 70.5022C57.5578 70.642 57.5828 70.7818 57.6277 70.9141C57.7575 71.5755 57.5678 72.0048 56.834 71.8925C56.487 71.8501 56.1501 71.7402 55.8455 71.5705C55.0069 71.0588 54.2007 70.4972 53.3845 69.9531C53.065 69.7409 52.7555 69.5188 52.441 69.3016C52.5134 69.5313 52.6007 69.7559 52.7056 69.9731C52.8953 70.4448 52.6107 70.8941 52.1065 70.8966C51.8569 70.8866 51.6098 70.8442 51.3702 70.7693C50.5889 70.5471 49.8901 70.1403 49.1987 69.7284C48.5397 69.3341 47.8958 68.9172 47.2418 68.5104L47.1594 68.4879L47.2044 68.5428C47.2343 68.7151 47.2468 68.8898 47.2418 69.0645C47.1744 69.6161 46.8424 69.8582 46.2534 69.9057C45.9514 69.9306 45.6444 69.8732 45.27 69.8508C45.3773 69.9381 45.4322 69.988 45.4896 70.028C46.8998 71.0139 48.2227 72.1196 49.4458 73.3302C50.3368 74.2113 51.173 75.1473 51.9493 76.1332C52.9202 77.3587 53.7489 78.6941 54.4128 80.1093C55.4936 82.4531 56.2599 84.8892 56.517 87.4726C56.5968 88.164 56.5943 88.8603 56.5145 89.5492C56.3872 90.5227 55.9604 91.249 54.9819 91.566ZM36.1895 63.5508L36.1795 63.5733L36.192 63.5558L36.0347 63.5009L36.0223 63.5658L36.1895 63.5508Z" fill="#6C754D"/>
</g>
<mask id="mask5_11_1533" style="mask-type:luminance" maskUnits="userSpaceOnUse" x="31" y="69" width="12" height="46">
<path d="M31.5046 69.1694H42.3673V114.04H31.5046V69.1694Z" fill="white"/>
</mask>
<g mask="url(#mask5_11_1533)">
<path d="M38.9775 110.643C38.9651 112.485 38.0964 113.444 35.3184 113.95C34.8367 114.038 34.1702 113.878 33.721 113.706C32.7999 113.356 32.4155 112.705 32.151 111.889C32.1634 111.889 36.9907 112.498 38.9775 110.643ZM37.6771 108.594C37.4625 108.344 36.6438 109.265 34.2651 109.605C31.5819 109.992 31.5669 108.546 31.8215 110.399C34.0779 110.833 36.2744 110.423 37.6771 108.594ZM35.7128 106.732C35.8076 106.679 35.865 106.547 35.9374 106.447C35.9224 106.42 35.9099 106.39 35.8925 106.362C31.3448 107.316 31.8065 105.382 31.7416 107.206C33.5787 107.556 34.0529 107.591 35.7128 106.732ZM32.8623 104.074C32.6826 103.944 32.9397 103.971 31.8065 103.839C31.799 104.031 31.799 104.231 31.7965 104.428C32.1135 104.438 32.4255 104.378 32.7151 104.251C32.7775 104.226 32.8124 104.134 32.8623 104.074ZM41.9977 71.98C41.8455 69.6687 38.401 68.6029 37.5948 71.4109C35.266 69.3642 33.7983 73.3303 35.7078 74.174C36.0123 74.3088 36.3418 74.3886 36.6637 74.496C36.2619 76.3255 39.8636 76.8747 39.4867 74.194C40.6524 74.3063 42.0926 73.4327 41.9977 71.98ZM33.5662 98.3453C34.5446 98.4851 35.9124 98.2305 36.192 97.3319C35.3359 97.4068 34.7343 97.7812 32.9697 97.312C31.9088 97.0324 31.9837 96.7079 31.9837 97.9759C32.5054 98.1257 33.0321 98.248 33.5662 98.3453ZM35.1487 90.0561C34.2326 89.9787 33.3515 89.9063 32.4655 89.8289C32.443 90.116 32.4205 90.4055 32.3981 90.6926C33.3091 90.8498 35.0339 90.9971 35.1487 90.0561ZM36.5764 101.253C35.236 101.615 33.8832 101.53 32.5279 101.555C33.0969 102.451 35.2136 102.119 36.1471 101.772C36.3492 101.7 36.5514 101.583 36.5764 101.253ZM35.7527 83.524C34.8891 83.2545 34.0205 83.257 33.1893 83.0223C33.1519 83.2994 33.1169 83.5715 33.082 83.8485C33.9256 84.0682 35.281 84.2628 35.7527 83.524ZM34.9415 80.726C35.256 81.2726 36.484 81.677 37.2553 81.34C37.6497 81.1678 37.6971 80.7585 37.113 80.6811C36.821 80.6761 36.529 80.6511 36.2419 80.6062C35.8051 80.5313 35.241 80.1619 34.9415 80.726ZM36.9832 87.8147C36.9957 87.6325 37.0132 87.4527 37.0282 87.268C36.3567 87.2156 35.7003 86.9585 35.0014 87.2431C35.3908 87.8072 36.1595 87.8346 36.9832 87.8147ZM33.711 94.5813C34.0105 95.0007 34.7393 94.9807 35.2735 94.7361C36.2893 94.2743 32.9996 93.5904 33.711 94.5813ZM36.9608 79.0412C37.1205 78.9189 37.0831 78.6319 36.9034 78.5794C34.612 77.923 36.1246 79.6802 36.9608 79.0412ZM34.7892 99.9552C35.271 99.5134 34.2875 99.3063 33.6336 99.5309C33.8008 100.048 34.4548 100.265 34.7892 99.9552ZM35.6504 104.149C35.3284 104.074 34.6594 104.176 34.3799 104.346C34.919 104.565 35.4457 104.485 35.6504 104.149ZM34.033 85.446C34.2326 85.8353 34.5097 85.9177 34.9115 85.6881C34.7293 85.4609 34.3524 85.3636 34.033 85.446ZM34.1752 92.4348C34.2975 92.305 34.4248 92.2351 34.4373 92.1452C34.4822 91.8233 33.8882 91.8133 33.9181 92.1303C33.9256 92.2251 34.0604 92.3075 34.1752 92.4348Z" fill="#735334"/>
</g>
<path d="M25.2995 63.7706C21.4207 63.2115 14.8961 65.2407 14.8961 65.0336C18.1659 61.8861 32.9822 63.7057 18.2657 62.0009C24.2437 60.8303 23.3476 62.9494 30.938 63.8005C28.7564 62.7148 26.4701 61.9136 24.0639 61.2172C27.4386 60.703 30.7582 63.4736 34.2102 64.8888C34.6994 65.0785 36.9958 66.0669 36.8185 66.5886C33.0446 64.8139 31.1326 64.5918 26.3403 66.5037C25.3244 66.7983 26.3203 66.1443 26.8695 65.9222C29.5701 64.8264 30.3639 64.9387 31.3448 64.5868C28.7539 64.0801 27.1091 63.2115 20.1527 65.8323C20.2975 64.6043 24.0689 63.9054 25.2995 63.7706ZM34.2876 68.6553C25.7263 70.6521 20.6519 81.8342 21.9199 80.3715C26.2055 75.4145 24.2062 76.7723 24.5257 78.7516C25.3369 78.0552 26.505 73.7172 28.2148 72.9185C27.6482 74.174 27.139 75.3521 27.3462 76.7773C29.1234 74.3836 28.3196 72.2895 31.6418 70.5148C32.5204 70.0456 30.4762 71.8527 30.5161 74.1415C31.3772 73.0682 31.4122 73.0208 33.082 70.1654C33.7285 69.0621 35.8925 69.3791 35.8251 68.7127C35.7827 68.3008 34.6944 68.5604 34.2876 68.6553ZM42.2324 66.3739C42.7291 67.2625 43.8398 64.9113 45.8516 65.69C46.0338 65.7599 48.9142 66.8831 48.9941 66.7134C48.1953 65.9172 47.6887 65.2882 45.7867 64.6742C47.8734 64.0501 49.9326 65.3081 52.0067 66.2117C53.1898 66.7284 51.0907 64.6866 49.9226 64.1175C50.6689 64.16 52.5309 64.3172 53.1599 64.7216C57.0037 67.1801 56.215 66.651 56.6019 66.9605C56.8764 66.6859 55.9579 65.7824 55.6983 65.4354C57.3432 66.0045 57.141 65.9621 57.2009 65.8747C54.5427 62.8945 45.8416 61.4892 42.2324 66.3739ZM43.725 72.1372C43.1684 72.7263 45.2376 73.51 45.2925 74.2289C45.4098 75.8063 45.889 76.4927 46.0638 76.8347C46.1985 76.7948 46.1636 77.0369 46.1636 74.9003C46.8026 75.6566 47.2044 76.041 47.4116 76.6225C47.4665 77.1866 49.316 83.3293 48.6646 78.1925C51.0108 81.6195 53.9237 87.7697 53.417 85.7854C51.6548 78.8939 44.5237 71.2986 43.725 72.1372ZM27.5683 55.5512C41.4786 68.0937 30.8057 58.7262 28.9262 60.2687C29.962 60.8677 29.7424 60.2338 32.775 61.976C37.2279 64.5369 37.4975 66.9156 38.2363 66.4887C38.9726 64.6142 24.8652 51.7473 27.5683 55.5512ZM39.4493 67.6344C39.9036 68.3083 40.3179 68.2609 40.8995 68.5155C48.7694 71.9725 50.4218 75.2947 53.7589 79.5728C54.1408 79.473 52.9477 76.7049 49.7504 73.2654C46.855 70.1529 39.7963 66.7933 39.4493 67.6344ZM21.0962 73.5724C22.0447 74.3636 23.5523 69.0771 35.7103 67.7043C37.1405 67.5421 36.6438 67.7368 37.1455 67.4946C36.3917 65.9621 22.8434 69.0397 21.0962 73.5724ZM38.9701 60.0141C38.5183 60.1289 38.2088 60.9301 38.114 62.1207C34.9366 54.5104 30.6609 54.7301 32.6253 55.8258C34.0979 56.647 35.286 58.1546 34.5472 57.4956C33.8134 57.0863 33.5388 56.8267 32.9447 57.0164C34.9316 58.7012 36.3218 58.7486 37.4051 61.7239C37.5274 62.2156 35.618 59.5523 34.4848 59.4874C34.32 59.8793 37.9343 62.5001 38.1364 64.0102C38.2288 64.6841 38.4085 64.8539 38.4409 64.9038C38.6257 64.5943 38.6107 64.5294 38.5907 62.4502C38.5807 61.3719 38.8178 60.8553 38.9701 60.0141ZM46.8375 61.946C46.5205 61.2147 42.0402 63.0243 40.9045 64.0077C40.2056 64.6118 39.6041 65.3256 38.9701 66.002C38.8528 66.1243 38.7505 66.2891 38.9102 66.5162C39.8063 66.1992 40.2431 65.7075 40.9944 65.101C43.5228 63.0592 47.0796 62.5001 46.8375 61.946ZM43.2707 77.6259C42.9962 78.7966 45.7143 84.2179 46.4931 84.4899C46.0538 83.232 45.5046 82.2985 44.1094 79.2708C43.5303 78.0078 43.6651 77.5261 43.2707 77.6259Z" fill="#4F563A"/>
<mask id="mask6_11_1533" style="mask-type:luminance" maskUnits="userSpaceOnUse" x="0" y="0" width="150" height="150">
<path d="M0 0H150V150H0V0Z" fill="white"/>
</mask>
<g mask="url(#mask6_11_1533)">
<path d="M74.9201 149.843C33.5289 149.843 0 116.082 0 74.9226C0 33.761 33.5289 0 74.9201 0C116.311 0 149.843 33.5289 149.843 74.9226C149.843 116.314 116.082 149.843 74.9201 149.843ZM74.9201 4.6251C36.0723 4.6251 4.6226 36.0723 4.6226 74.9226C4.6226 113.77 36.0723 145.218 74.9201 145.218C113.768 145.218 145.218 113.77 145.218 74.9226C145.218 36.0723 113.538 4.6251 74.9201 4.6251Z" fill="#AF4C0F"/>
</g>
<mask id="mask7_11_1533" style="mask-type:luminance" maskUnits="userSpaceOnUse" x="6" y="110" width="138" height="33">
<path d="M6.97632 110.775H143.079V142.884H6.97632V110.775Z" fill="white"/>
</mask>
<g mask="url(#mask7_11_1533)">
<path fill-rule="evenodd" clip-rule="evenodd" d="M74.9201 6.97888C76.0308 6.97888 77.1441 7.00634 78.2548 7.06125C79.363 7.11367 80.4737 7.19603 81.5795 7.30586C82.6852 7.41568 83.7884 7.55047 84.8892 7.71271C85.9899 7.87744 87.0832 8.06714 88.1739 8.28429C89.2647 8.50145 90.3504 8.74356 91.4287 9.01562C92.507 9.28519 93.5778 9.58222 94.6436 9.9042C95.7068 10.2262 96.7627 10.5756 97.8085 10.95C98.8568 11.3244 99.8927 11.7238 100.921 12.1506C101.947 12.5749 102.963 13.0267 103.969 13.5009C104.975 13.9777 105.968 14.4769 106.949 15.001C107.927 15.5252 108.896 16.0718 109.849 16.6434C110.803 17.2175 111.741 17.8115 112.667 18.4281C113.591 19.0471 114.499 19.6861 115.393 20.35C116.286 21.0114 117.163 21.6953 118.021 22.4017C118.882 23.1056 119.723 23.8319 120.547 24.5782C121.371 25.3245 122.177 26.0908 122.963 26.877C123.749 27.6658 124.516 28.4695 125.262 29.2932C126.008 30.1169 126.735 30.958 127.441 31.8191C128.145 32.6778 128.829 33.5539 129.493 34.4474C130.154 35.341 130.793 36.2495 131.412 37.1731C132.029 38.0991 132.625 39.0376 133.197 39.9911C133.768 40.9445 134.315 41.913 134.839 42.8939C135.363 43.8748 135.863 44.8658 136.339 45.8717C136.814 46.8775 137.265 47.8934 137.69 48.9193C138.117 49.9476 138.516 50.986 138.89 52.0318C139.265 53.0776 139.614 54.1334 139.936 55.1992C140.261 56.2625 140.555 57.3333 140.827 58.4116C141.097 59.4899 141.339 60.5756 141.556 61.6664C141.773 62.7571 141.963 63.8529 142.128 64.9511C142.29 66.0519 142.427 67.1551 142.534 68.2608C142.644 69.3691 142.727 70.4773 142.782 71.588C142.834 72.6987 142.861 73.8095 142.861 74.9202C142.861 76.0334 142.834 77.1441 142.782 78.2548C142.727 79.3656 142.644 80.4738 142.534 81.5795C142.427 82.6878 142.29 83.791 142.128 84.8892C141.963 85.99 141.773 87.0857 141.556 88.1765C141.339 89.2672 141.097 90.3505 140.827 91.4288C140.555 92.507 140.261 93.5803 139.936 94.6436C139.614 95.7069 139.265 96.7627 138.89 97.8111C138.516 98.8569 138.117 99.8952 137.69 100.921C137.265 101.949 136.814 102.965 136.339 103.971C135.863 104.975 135.363 105.968 134.839 106.949C134.315 107.93 133.768 108.896 133.197 109.849C132.625 110.805 132.029 111.744 131.412 112.667C130.793 113.593 130.154 114.502 129.493 115.395C128.829 116.286 128.145 117.163 127.441 118.024C126.735 118.882 126.008 119.723 125.262 120.547C124.516 121.373 123.749 122.177 122.963 122.963C122.177 123.75 121.371 124.516 120.547 125.262C119.723 126.011 118.882 126.735 118.021 127.441C117.163 128.148 116.286 128.831 115.393 129.493C114.499 130.154 113.591 130.796 112.667 131.412C111.741 132.031 110.803 132.625 109.849 133.197C108.896 133.769 107.927 134.318 106.949 134.842C105.968 135.366 104.975 135.865 103.969 136.339C102.963 136.816 101.947 137.265 100.921 137.692C99.8927 138.117 98.8568 138.518 97.8085 138.893C96.7627 139.267 95.7068 139.614 94.6436 139.939C93.5778 140.261 92.507 140.558 91.4287 140.827C90.3504 141.097 89.2647 141.341 88.1739 141.559C87.0832 141.776 85.9899 141.965 84.8892 142.128C83.7884 142.292 82.6852 142.427 81.5795 142.537C80.4737 142.644 79.363 142.727 78.2548 142.782C77.1441 142.837 76.0308 142.864 74.9201 142.864C73.8069 142.864 72.6962 142.837 71.5854 142.782C70.4747 142.727 69.3665 142.644 68.2608 142.537C67.1525 142.427 66.0493 142.292 64.9511 142.128C63.8503 141.965 62.7546 141.776 61.6638 141.559C60.5731 141.341 59.4898 141.097 58.4115 140.827C57.3332 140.558 56.26 140.261 55.1967 139.939C54.1334 139.614 53.0776 139.267 52.0317 138.893C50.9834 138.518 49.9476 138.117 48.9192 137.692C47.8909 137.265 46.875 136.816 45.8716 136.339C44.8657 135.865 43.8723 135.366 42.8914 134.842C41.9104 134.318 40.9445 133.769 39.991 133.197C39.0375 132.625 38.0965 132.031 37.173 131.412C36.2495 130.796 35.3384 130.154 34.4474 129.493C33.5538 128.831 32.6777 128.148 31.8166 127.441C30.9579 126.735 30.1168 126.011 29.2931 125.262C28.4694 124.516 27.6632 123.75 26.877 122.963C26.0907 122.177 25.3245 121.373 24.5782 120.547C23.8319 119.723 23.1055 118.882 22.3991 118.024C21.6953 117.163 21.0114 116.286 20.3474 115.395C19.686 114.502 19.0445 113.593 18.428 112.667C17.809 111.744 17.2149 110.805 16.6434 109.849C16.0718 108.896 15.5251 107.93 15.001 106.949C14.4768 105.968 13.9751 104.975 13.5009 103.971C13.0241 102.965 12.5749 101.949 12.148 100.921C11.7237 99.8952 11.3244 98.8569 10.95 97.8111C10.5731 96.7627 10.2261 95.7069 9.90164 94.6436C9.57965 93.5803 9.28263 92.507 9.01306 91.4288C8.74349 90.3505 8.49888 89.2672 8.28173 88.1765C8.06458 87.0857 7.87488 85.99 7.71264 84.8892C7.5504 83.791 7.41312 82.6878 7.3033 81.5795C7.19597 80.4738 7.1136 79.3656 7.05869 78.2548C7.00377 77.1441 6.97632 76.0334 6.97632 74.9202C6.97632 73.8095 7.00377 72.6987 7.05869 71.588C7.1136 70.4773 7.19597 69.3691 7.3033 68.2608C7.41312 67.1551 7.5504 66.0519 7.71264 64.9511C7.87488 63.8529 8.06458 62.7571 8.28173 61.6664C8.49888 60.5756 8.74349 59.4899 9.01306 58.4116C9.28263 57.3333 9.57965 56.2625 9.90164 55.1992C10.2261 54.1334 10.5731 53.0776 10.95 52.0318C11.3244 50.986 11.7237 49.9476 12.148 48.9193C12.5749 47.8934 13.0241 46.8775 13.5009 45.8717C13.9751 44.8658 14.4768 43.8748 15.001 42.8939C15.5251 41.913 16.0718 40.9445 16.6434 39.9911C17.2149 39.0376 17.809 38.0991 18.428 37.1731C19.0445 36.2495 19.686 35.341 20.3474 34.4474C21.0114 33.5539 21.6953 32.6778 22.3991 31.8191C23.1055 30.958 23.8319 30.1169 24.5782 29.2932C25.3245 28.4695 26.0907 27.6658 26.877 26.877C27.6632 26.0908 28.4694 25.3245 29.2931 24.5782C30.1168 23.8319 30.9579 23.1056 31.8166 22.4017C32.6777 21.6953 33.5538 21.0114 34.4474 20.35C35.3384 19.6861 36.2495 19.0471 37.173 18.4281C38.0965 17.8115 39.0375 17.2175 39.991 16.6434C40.9445 16.0718 41.9104 15.5252 42.8914 15.001C43.8723 14.4769 44.8657 13.9777 45.8716 13.5009C46.875 13.0267 47.8909 12.5749 48.9192 12.1506C49.9476 11.7238 50.9834 11.3244 52.0317 10.95C53.0776 10.5756 54.1334 10.2262 55.1967 9.9042C56.26 9.58222 57.3332 9.28519 58.4115 9.01562C59.4898 8.74356 60.5731 8.50145 61.6638 8.28429C62.7546 8.06714 63.8503 7.87744 64.9511 7.71271C66.0493 7.55047 67.1525 7.41568 68.2608 7.30586C69.3665 7.19603 70.4747 7.11367 71.5854 7.06125C72.6962 7.00634 73.8069 6.97888 74.9201 6.97888Z" fill="#FFCA7D"/>
</g>
<mask id="mask8_11_1533" style="mask-type:luminance" maskUnits="userSpaceOnUse" x="6" y="6" width="138" height="138">
<path d="M6.97632 6.97888H143.558V143.56H6.97632V6.97888Z" fill="white"/>
</mask>
<g mask="url(#mask8_11_1533)">
<path d="M75.2671 143.56C37.6248 143.56 6.97632 112.912 6.97632 75.2696C6.97632 37.6248 37.6248 6.97888 75.2671 6.97888C112.912 6.97888 143.558 37.6248 143.558 75.2696C143.558 112.912 112.912 143.56 75.2671 143.56ZM75.2671 7.98727C38.1614 7.98727 7.9872 38.164 7.9872 75.2696C7.9872 112.375 38.1614 142.549 75.2671 142.549C112.373 142.549 142.549 112.375 142.549 75.2696C142.549 38.164 112.373 7.98727 75.2671 7.98727Z" fill="#AF4C0F"/>
</g>
<mask id="mask9_11_1533" style="mask-type:luminance" maskUnits="userSpaceOnUse" x="44" y="106" width="76" height="17">
<path d="M44.9231 106.41H119.079V122.704H44.9231V106.41Z" fill="white"/>
</mask>
<g mask="url(#mask9_11_1533)">
<path d="M47.9807 122.704C46.4656 122.212 45.7343 121.104 45.335 119.781C45.2326 119.446 45.4872 118.9 45.7418 118.585C47.1945 116.803 48.6072 114.976 50.2022 113.326C51.8046 111.666 53.6941 111.517 55.6834 112.737C56.7167 113.371 57.6453 114.192 58.6037 114.941C58.9831 115.238 59.3251 115.58 59.7669 115.974C60.1612 115.515 60.4907 115.106 60.8501 114.729C61.7936 113.733 62.6972 112.695 63.7106 111.781C65.3454 110.306 67.2549 110.126 69.1593 111.135C70.2201 111.696 71.1287 112.552 72.0747 113.319C72.4416 113.618 72.7186 114.03 73.0631 114.424C73.5823 113.87 74.0216 113.341 74.5208 112.879C75.5766 111.893 76.842 111.284 78.2223 110.865C79.7399 110.403 81.1726 110.596 82.4181 111.502C83.5139 112.305 84.4848 113.284 85.4907 114.207C85.8426 114.529 86.1247 114.931 86.5116 115.378C86.841 114.984 87.1231 114.669 87.3777 114.335C88.5109 112.829 89.9161 111.626 91.4537 110.561C93.4754 109.158 95.5471 109.128 97.6662 110.324C99.2237 111.202 100.517 112.388 101.657 113.748C101.999 114.157 102.331 114.572 102.636 114.941C104.098 113.651 105.431 112.35 106.896 111.23C107.892 110.468 109.028 109.822 110.191 109.358C112.146 108.581 113.96 108.971 115.405 110.561C116.192 111.427 116.885 112.38 117.624 113.296C117.924 113.666 118.226 114.038 118.593 114.497C119.017 113.785 119.359 113.199 119.713 112.62C120.687 111.047 121.952 109.782 123.577 108.888C124.873 108.174 126.208 108.075 127.491 108.843C128.614 109.517 129.677 110.301 130.871 111.11C130.985 110.868 131.143 110.598 131.255 110.309C131.639 109.305 131.939 108.262 132.393 107.291C132.902 106.205 133.424 106.15 134.313 106.951C134.729 107.328 135.229 107.66 135.506 108.122C135.728 108.486 135.79 109.046 135.708 109.472C135.498 110.576 135.101 111.644 134.897 112.747C134.557 114.619 134.31 116.509 134.013 118.393C133.931 118.907 133.818 119.416 133.679 120.14C132.992 119.811 132.446 119.626 131.986 119.312C131.038 118.668 130.017 118.288 128.881 118.094C127.414 117.841 126.533 116.881 125.973 115.415C127.636 114.916 128.911 115.845 130.284 116.154C130.673 115.298 130.434 114.709 129.785 114.177C128.232 112.904 126.785 112.767 125.047 113.768C123.867 114.449 123.041 115.475 122.307 116.586C121.818 117.32 121.346 118.064 120.914 118.832C120.392 119.761 119.489 119.881 118.915 118.832C118.288 117.684 117.422 116.653 116.588 115.633C115.071 113.778 113.571 113.426 111.384 114.424C109.25 115.403 107.558 116.945 106.118 118.787C105.708 119.312 105.237 119.791 104.777 120.313C103.724 119.806 103.222 118.947 102.591 118.223C101.917 117.452 101.3 116.611 100.539 115.937C98.2104 113.865 95.627 113.813 93.2558 115.862C92.2274 116.746 91.4062 117.866 90.5052 118.9C90.2506 119.192 90.0559 119.541 89.8238 119.856C89.1374 120.774 88.6032 120.887 87.797 120.085C87.0407 119.332 86.4092 118.448 85.7428 117.604C85.5032 117.302 85.3509 116.923 85.1088 116.618C84.1553 115.408 82.9473 114.796 81.3848 115.171C79.1508 115.702 77.2739 116.728 76.2255 118.91C76.0658 119.244 75.7937 119.529 75.5142 119.923C73.8393 118.997 72.7087 117.739 71.9199 116.117C71.216 114.664 69.6835 114.142 68.2333 114.864C67.6692 115.141 67.1351 115.523 66.6883 115.962C65.8521 116.783 65.0834 117.677 64.2971 118.55C63.9726 118.915 63.6681 119.302 63.3861 119.701C62.9667 120.303 62.4501 120.38 61.871 119.996C61.3044 119.619 60.7278 119.244 60.2286 118.787C59.4 118.029 58.6462 117.185 57.825 116.416C56.6918 115.355 55.5736 115.208 54.2133 115.945C53.744 116.194 53.2822 116.509 52.9103 116.886C51.1507 118.648 49.361 120.392 47.9807 122.704Z" fill="#FFCA7D"/>
</g>
<mask id="mask10_11_1533" style="mask-type:luminance" maskUnits="userSpaceOnUse" x="26" y="106" width="34" height="17">
<path d="M26.9144 106.41H59.0231V122.704H26.9144V106.41Z" fill="white"/>
</mask>
<g mask="url(#mask10_11_1533)">
<path d="M-11.8636 122.704C-13.3787 122.212 -14.11 121.104 -14.5119 119.781C-14.6117 119.446 -14.3571 118.9 -14.1025 118.585C-12.6498 116.803 -11.2371 114.976 -9.64214 113.326C-8.03971 111.666 -6.15023 111.517 -4.16091 112.737C-3.12757 113.371 -2.19905 114.192 -1.24059 114.941C-0.861193 115.238 -0.51924 115.58 -0.0774469 115.974C0.316922 115.515 0.646395 115.106 1.00582 114.729C1.94931 113.733 2.85287 112.695 3.86375 111.781C5.50113 110.306 7.41057 110.126 9.31503 111.135C10.3758 111.696 11.2844 112.552 12.2304 113.319C12.5973 113.618 12.8743 114.03 13.2188 114.424C13.7379 113.87 14.1772 113.341 14.674 112.879C15.7323 111.893 16.9977 111.284 18.378 110.865C19.8956 110.403 21.3283 110.596 22.5738 111.502C23.6696 112.305 24.6405 113.284 25.6464 114.207C25.9983 114.529 26.2804 114.931 26.6673 115.378C26.9967 114.984 27.2788 114.669 27.5334 114.335C28.6666 112.829 30.0718 111.626 31.6094 110.561C33.6311 109.158 35.7028 109.128 37.8219 110.324C39.3794 111.202 40.6724 112.388 41.813 113.748C42.155 114.157 42.4869 114.572 42.7915 114.941C44.2541 113.651 45.587 112.35 47.0521 111.23C48.0481 110.468 49.1837 109.822 50.3469 109.358C52.3012 108.581 54.1158 108.971 55.561 110.561C56.3473 111.427 57.0412 112.38 57.78 113.296C58.0795 113.666 58.3815 114.038 58.7484 114.497C59.1728 113.785 59.5122 113.199 59.8691 112.62C60.8401 111.047 62.1081 109.782 63.733 108.888C65.0284 108.174 66.3637 108.075 67.6442 108.843C68.7699 109.517 69.8332 110.301 71.0238 111.11C71.1411 110.868 71.2983 110.598 71.4107 110.309C71.7951 109.305 72.0946 108.262 72.5489 107.291C73.058 106.205 73.5797 106.15 74.4683 106.951C74.8851 107.328 75.3843 107.66 75.6614 108.122C75.8835 108.486 75.9459 109.046 75.8635 109.472C75.6539 110.576 75.257 111.644 75.0523 112.747C74.7129 114.619 74.4633 116.509 74.1688 118.393C74.0864 118.907 73.9741 119.416 73.8343 120.14C73.1479 119.811 72.6013 119.626 72.142 119.312C71.1935 118.668 70.1727 118.288 69.037 118.094C67.5693 117.841 66.6882 116.881 66.1291 115.415C67.7915 114.916 69.0669 115.845 70.4397 116.154C70.8291 115.298 70.5895 114.709 69.9405 114.177C68.388 112.904 66.9403 112.767 65.2031 113.768C64.0225 114.449 63.1963 115.475 62.4625 116.586C61.9733 117.32 61.5015 118.064 61.0697 118.832C60.548 119.761 59.6445 119.881 59.0704 118.832C58.4439 117.684 57.5778 116.653 56.7441 115.633C55.2266 113.778 53.7265 113.426 51.54 114.424C49.4059 115.403 47.7136 116.945 46.2734 118.787C45.864 119.312 45.3923 119.791 44.933 120.313C43.8797 119.806 43.378 118.947 42.7465 118.223C42.0726 117.452 41.4561 116.611 40.6948 115.937C38.366 113.865 35.7802 113.813 33.4115 115.862C32.3831 116.746 31.5619 117.866 30.6609 118.9C30.4063 119.192 30.2116 119.541 29.9795 119.856C29.2931 120.774 28.7589 120.887 27.9527 120.085C27.1964 119.332 26.5649 118.448 25.8985 117.604C25.6589 117.302 25.5066 116.923 25.2645 116.618C24.311 115.408 23.103 114.796 21.5405 115.171C19.3065 115.702 17.427 116.728 16.3812 118.91C16.2215 119.244 15.9494 119.529 15.6699 119.923C13.995 118.997 12.8643 117.739 12.0756 116.117C11.3717 114.664 9.83919 114.142 8.38901 114.864C7.82491 115.141 7.29076 115.523 6.84398 115.962C6.00782 116.783 5.23655 117.677 4.4528 118.55C4.12832 118.915 3.82381 119.302 3.54176 119.701C3.12243 120.303 2.60576 120.38 2.02669 119.996C1.46009 119.619 0.883515 119.244 0.384315 118.787C-0.44436 118.029 -1.19815 117.185 -2.01934 116.416C-3.15253 115.355 -4.27074 115.208 -5.63356 115.945C-6.10031 116.194 -6.56207 116.509 -6.93398 116.886C-8.69366 118.648 -10.4833 120.392 -11.8636 122.704Z" fill="#FFCA7D"/>
</g>
<path d="M114.252 112.343C114.397 112.49 114.527 112.647 114.642 112.82C114.756 112.989 114.854 113.169 114.931 113.361C115.011 113.551 115.071 113.746 115.111 113.948C115.151 114.15 115.171 114.355 115.171 114.559C115.171 114.766 115.151 114.969 115.111 115.171C115.071 115.373 115.011 115.57 114.931 115.76C114.854 115.95 114.756 116.129 114.642 116.301C114.527 116.471 114.397 116.631 114.252 116.776C114.107 116.92 113.948 117.05 113.778 117.165C113.606 117.28 113.426 117.377 113.236 117.455C113.047 117.534 112.849 117.594 112.647 117.634C112.445 117.674 112.243 117.694 112.036 117.694C111.831 117.694 111.626 117.674 111.424 117.634C111.222 117.594 111.027 117.534 110.838 117.455C110.648 117.377 110.466 117.28 110.296 117.165C110.124 117.053 109.967 116.92 109.819 116.776C109.675 116.631 109.545 116.471 109.43 116.301C109.315 116.129 109.22 115.95 109.14 115.76C109.063 115.57 109.003 115.373 108.963 115.171C108.923 114.969 108.903 114.766 108.903 114.559C108.903 114.355 108.923 114.15 108.963 113.948C109.003 113.746 109.063 113.551 109.14 113.361C109.22 113.171 109.315 112.989 109.43 112.82C109.545 112.647 109.675 112.49 109.819 112.343C109.967 112.198 110.124 112.068 110.296 111.953C110.466 111.839 110.645 111.744 110.838 111.664C111.027 111.587 111.222 111.527 111.424 111.487C111.626 111.447 111.831 111.427 112.036 111.427C112.243 111.427 112.445 111.447 112.647 111.487C112.849 111.527 113.047 111.587 113.236 111.664C113.426 111.744 113.606 111.839 113.778 111.953C113.948 112.068 114.107 112.198 114.252 112.343Z" fill="#FFCA7D"/>
<path d="M40.288 86.4692C65.6748 105.693 85.558 108.1 99.9325 93.6877" stroke="#E46A04" stroke-width="0.989852"/>
<path d="M36.8585 84.0631L39.9735 86.3295" stroke="#2E3345" stroke-width="0.963211" stroke-linecap="round"/>
<path d="M51.1206 92.5869C69.0544 103.472 83.6535 104.875 94.9155 96.7927" stroke="#E46A04" stroke-width="3.96112"/>
<path d="M52.4761 93.7026C65.6325 100.931 79.3705 102.294 93.6901 97.7886" stroke="#E46A04" stroke-width="3.96454"/>
<path d="M52.1266 92.5071C71.0613 100.642 84.9465 102.077 93.7849 96.8177" stroke="#E46A04" stroke-width="3"/>
<path d="M53.5268 93.685C65.6574 99.0015 78.2148 100.362 91.199 97.7685" stroke="#E46A04" stroke-width="2.92593"/>
<mask id="mask11_11_1533" style="mask-type:luminance" maskUnits="userSpaceOnUse" x="63" y="96" width="14" height="4">
<path d="M63.4085 96.1388H76.9543V99.2164H63.4085V96.1388Z" fill="white"/>
</mask>
<g mask="url(#mask11_11_1533)">
<mask id="mask12_11_1533" style="mask-type:luminance" maskUnits="userSpaceOnUse" x="63" y="96" width="14" height="4">
<path d="M63.903 96.1538C76.9396 98.4551 76.9871 98.7422 76.9396 98.8844C76.8922 99.0292 76.5553 99.174 76.413 99.174C76.2682 99.1241 76.0286 98.7422 76.076 98.5974C76.076 98.4551 76.5078 98.2155 76.6526 98.2629C76.7949 98.3104 76.9871 98.6947 76.9396 98.837C76.8922 98.9818 76.7474 99.0766 76.4604 99.174C75.1176 99.461 64.8615 97.7837 63.7133 97.0174C63.4737 96.8252 63.4238 96.633 63.4238 96.4883C63.4737 96.346 63.903 96.1538 63.903 96.1538Z" fill="white"/>
</mask>
<g mask="url(#mask12_11_1533)">
<path d="M61.5067 94.2367H78.9088V101.091H61.5067V94.2367Z" fill="#E46A04"/>
</g>
</g>
<mask id="mask13_11_1533" style="mask-type:luminance" maskUnits="userSpaceOnUse" x="47" y="89" width="7" height="6">
<path d="M47.0997 89.8489H53.3947V94.4865H47.0997V89.8489Z" fill="white"/>
</mask>
<g mask="url(#mask13_11_1533)">
<mask id="mask14_11_1533" style="mask-type:luminance" maskUnits="userSpaceOnUse" x="47" y="89" width="7" height="6">
<path d="M48.0856 90.2581C49.8577 92.4646 53.2124 93.2308 53.3572 93.8524C53.4046 94.092 52.9728 94.5238 52.8779 94.4764C52.7331 94.4764 52.4461 93.7575 52.4935 93.6627C52.5909 93.5653 53.3572 93.8049 53.3572 93.9497C53.4046 94.092 53.0701 94.4289 52.7331 94.4764C51.9669 94.5712 49.1888 93.1834 48.2304 92.2724C47.6064 91.6958 47.0797 90.7873 47.1271 90.3555C47.1271 90.1158 47.3667 89.8762 47.5589 89.8762C47.7012 89.8288 48.0856 90.2581 48.0856 90.2581Z" fill="white"/>
</mask>
<g mask="url(#mask14_11_1533)">
<path d="M45.2102 87.9594H55.3165V96.4408H45.2102V87.9594Z" fill="#E46A04"/>
</g>
</g>
<mask id="mask15_11_1533" style="mask-type:luminance" maskUnits="userSpaceOnUse" x="47" y="89" width="6" height="5">
<path d="M47.1545 89.9137H52.818V93.4131H47.1545V89.9137Z" fill="white"/>
</mask>
<g mask="url(#mask15_11_1533)">
<mask id="mask16_11_1533" style="mask-type:luminance" maskUnits="userSpaceOnUse" x="47" y="89" width="6" height="5">
<path d="M47.7986 89.9238C52.8306 92.7992 52.8306 93.0863 52.7831 93.231C52.6858 93.3259 52.3513 93.4232 52.254 93.3733C52.1117 93.2785 51.9195 92.8941 51.9669 92.7518C52.0643 92.607 52.4936 92.4648 52.5909 92.5596C52.7332 92.607 52.8306 93.0388 52.7831 93.1836C52.7332 93.2785 52.5435 93.3733 52.3039 93.3733C51.4877 93.3259 47.7986 91.409 47.3194 90.6901C47.1272 90.4979 47.1272 90.2109 47.222 90.116C47.3194 89.9713 47.7986 89.9238 47.7986 89.9238Z" fill="white"/>
</mask>
<g mask="url(#mask16_11_1533)">
<path d="M45.3049 88.0068H54.7523V95.2902H45.3049V88.0068Z" fill="#E46A04"/>
</g>
</g>
<mask id="mask17_11_1533" style="mask-type:luminance" maskUnits="userSpaceOnUse" x="48" y="90" width="6" height="4">
<path d="M48.757 90.9221H53.1899V93.2883H48.757V90.9221Z" fill="white"/>
</mask>
<g mask="url(#mask17_11_1533)">
<mask id="mask18_11_1533" style="mask-type:luminance" maskUnits="userSpaceOnUse" x="48" y="90" width="6" height="4">
<path d="M49.2836 90.9296C53.2124 92.5595 53.2124 92.8465 53.1649 92.9913C53.0701 93.1335 52.5909 93.2783 52.4461 93.1835C52.3038 93.1335 52.159 92.6069 52.2539 92.4646C52.3512 92.3198 52.8305 92.225 52.9727 92.3198C53.1175 92.4147 53.2124 92.7517 53.1649 92.9438C53.1175 93.0861 52.9253 93.2309 52.6383 93.2783C51.9669 93.3257 49.4284 92.3198 48.9492 91.8406C48.757 91.601 48.7096 91.314 48.8044 91.1692C48.8518 91.0269 49.2836 90.9296 49.2836 90.9296Z" fill="white"/>
</mask>
<g mask="url(#mask18_11_1533)">
<path d="M46.8875 89.0127H55.1218V95.1953H46.8875V89.0127Z" fill="#E46A04"/>
</g>
</g>
<mask id="mask19_11_1533" style="mask-type:luminance" maskUnits="userSpaceOnUse" x="93" y="94" width="5" height="4">
<path d="M93.7949 94.8059H97.6962V97.6738H93.7949V94.8059Z" fill="white"/>
</mask>
<g mask="url(#mask19_11_1533)">
<mask id="mask20_11_1533" style="mask-type:luminance" maskUnits="userSpaceOnUse" x="93" y="94" width="5" height="4">
<path d="M93.9973 96.6805C97.302 94.861 97.6864 95.2428 97.6864 95.3876C97.6389 95.5299 96.8727 95.8194 96.7753 95.7221C96.6805 95.6272 96.9675 94.811 97.1123 94.811C97.2545 94.811 97.6389 95.3402 97.5915 95.6272C97.4942 96.1539 95.9616 96.9676 95.2428 97.3045C94.7635 97.4967 94.0447 97.7838 93.8525 97.5916C93.7077 97.4468 93.9973 96.6805 93.9973 96.6805Z" fill="white"/>
</mask>
<g mask="url(#mask20_11_1533)">
<path d="M91.9353 92.8939H99.608V99.5083H91.9353V92.8939Z" fill="#E46A04"/>
</g>
</g>
<mask id="mask21_11_1533" style="mask-type:luminance" maskUnits="userSpaceOnUse" x="94" y="92" width="8" height="6">
<path d="M94.5012 92.8665H101.572V97.6238H94.5012V92.8665Z" fill="white"/>
</mask>
<g mask="url(#mask21_11_1533)">
<mask id="mask22_11_1533" style="mask-type:luminance" maskUnits="userSpaceOnUse" x="94" y="92" width="8" height="6">
<path d="M101.395 93.7201C94.8782 97.6513 94.5912 97.5065 94.5412 97.3642C94.4464 97.2195 94.5412 96.885 94.686 96.7877C94.8308 96.6928 95.31 96.7877 95.3574 96.885C95.4523 97.0273 95.3574 97.5539 95.2127 97.6038C95.0704 97.6038 94.5412 97.2195 94.5412 96.9324C94.5912 96.5006 96.0289 95.7818 96.9374 95.2077C98.0881 94.4888 100.15 92.9538 100.916 92.9064C101.203 92.8589 101.443 92.9538 101.54 93.0986C101.587 93.2408 101.395 93.7201 101.395 93.7201Z" fill="white"/>
</mask>
<g mask="url(#mask22_11_1533)">
<path d="M92.6243 90.9895H103.514V99.5683H92.6243V90.9895Z" fill="#E46A04"/>
</g>
</g>
<mask id="mask23_11_1533" style="mask-type:luminance" maskUnits="userSpaceOnUse" x="93" y="96" width="3" height="3">
<path d="M93.3631 96.1212H95.9964V98.4874H93.3631V96.1212Z" fill="white"/>
</mask>
<g mask="url(#mask23_11_1533)">
<mask id="mask24_11_1533" style="mask-type:luminance" maskUnits="userSpaceOnUse" x="93" y="96" width="3" height="3">
<path d="M95.914 96.8725C93.7076 98.455 93.3731 97.831 93.4205 97.7361C93.4679 97.5914 93.9971 97.544 94.1394 97.6862C94.2367 97.7836 94.2367 98.2628 94.1394 98.3577C94.0445 98.5024 93.7076 98.5024 93.5653 98.455C93.4205 98.3577 93.3257 98.0232 93.4205 97.7361C93.5653 97.3043 94.8582 96.2485 95.3374 96.1537C95.5771 96.1063 95.8641 96.2011 95.9614 96.3459C96.0089 96.4407 95.914 96.8725 95.914 96.8725Z" fill="white"/>
</mask>
<g mask="url(#mask24_11_1533)">
<path d="M91.5037 94.2367H97.9284V100.419H91.5037V94.2367Z" fill="#E46A04"/>
</g>
</g>
<mask id="mask25_11_1533" style="mask-type:luminance" maskUnits="userSpaceOnUse" x="93" y="95" width="5" height="3">
<path d="M93.7875 95.8792H97.2644V97.7512H93.7875V95.8792Z" fill="white"/>
</mask>
<g mask="url(#mask25_11_1533)">
<mask id="mask26_11_1533" style="mask-type:luminance" maskUnits="userSpaceOnUse" x="93" y="95" width="5" height="3">
<path d="M96.8102 96.9924C94.0795 97.7013 93.8075 97.539 93.8075 97.3743C93.7525 97.2096 94.409 96.6654 94.5163 96.7203C94.6261 96.7728 94.6811 97.5914 94.5163 97.7013C94.409 97.8111 94.0246 97.7013 93.9173 97.5914C93.8075 97.4292 93.8075 96.9924 93.9722 96.7728C94.2992 96.3909 95.9915 95.8467 96.5905 95.8992C96.8651 95.9541 97.192 96.1737 97.247 96.3909C97.3019 96.5556 96.8102 96.9924 96.8102 96.9924Z" fill="white"/>
</mask>
<g mask="url(#mask26_11_1533)">
<path d="M91.6234 93.7177H99.4758V99.9402H91.6234V93.7177Z" fill="#E46A04"/>
</g>
</g>
<mask id="mask27_11_1533" style="mask-type:luminance" maskUnits="userSpaceOnUse" x="45" y="89" width="6" height="4">
<path d="M45.6819 89.5842H50.609V92.5195H45.6819V89.5842Z" fill="white"/>
</mask>
<g mask="url(#mask27_11_1533)">
<mask id="mask28_11_1533" style="mask-type:luminance" maskUnits="userSpaceOnUse" x="45" y="89" width="6" height="4">
<path d="M46.4557 89.5891C50.6265 91.7931 50.674 92.175 50.5766 92.2723C50.4818 92.3672 49.7629 92.2249 49.7155 92.1275C49.6681 91.9853 50.1473 91.4561 50.2421 91.506C50.3869 91.5535 50.5292 92.2723 50.3869 92.4146C50.1947 92.6542 49.2363 92.3672 48.5648 92.1275C47.7511 91.7931 46.2161 90.882 45.8816 90.3554C45.7369 90.1158 45.642 89.8287 45.7369 89.7314C45.8342 89.5891 46.4557 89.5891 46.4557 89.5891Z" fill="white"/>
</mask>
<g mask="url(#mask28_11_1533)">
<path d="M43.8199 87.6722H52.5485V94.3815H43.8199V87.6722Z" fill="#E46A04"/>
</g>
</g>
<mask id="mask29_11_1533" style="mask-type:luminance" maskUnits="userSpaceOnUse" x="45" y="89" width="2" height="2">
<path d="M45.7094 89.4469H46.6528V90.2257H45.7094V89.4469Z" fill="white"/>
</mask>
<g mask="url(#mask29_11_1533)">
<mask id="mask30_11_1533" style="mask-type:luminance" maskUnits="userSpaceOnUse" x="45" y="89" width="2" height="2">
<path d="M46.6479 89.7317C46.2161 90.3557 45.8342 90.2584 45.7369 90.1161C45.6894 89.9713 45.7369 89.5894 45.8816 89.4921C45.9765 89.3972 46.5031 89.5395 46.5031 89.5395" fill="white"/>
</mask>
<g mask="url(#mask30_11_1533)">
<path d="M43.8198 87.575H48.5597V92.225H43.8198V87.575Z" fill="#E46A04"/>
</g>
</g>
<mask id="mask31_11_1533" style="mask-type:luminance" maskUnits="userSpaceOnUse" x="44" y="89" width="2" height="2">
<path d="M44.9431 89.3496H45.8866V90.1309H44.9431V89.3496Z" fill="white"/>
</mask>
<g mask="url(#mask31_11_1533)">
<mask id="mask32_11_1533" style="mask-type:luminance" maskUnits="userSpaceOnUse" x="44" y="89" width="2" height="2">
<path d="M45.8817 89.6367C45.4499 90.2582 45.0655 90.1633 44.9706 90.0186C44.9232 89.8763 44.9706 89.4919 45.1154 89.3971C45.2102 89.2997 45.7369 89.4445 45.7369 89.4445" fill="white"/>
</mask>
<g mask="url(#mask32_11_1533)">
<path d="M43.0536 87.48H47.7935V92.1275H43.0536V87.48Z" fill="#E46A04"/>
</g>
</g>
<mask id="mask33_11_1533" style="mask-type:luminance" maskUnits="userSpaceOnUse" x="45" y="89" width="2" height="2">
<path d="M45.3251 89.2548H46.2711V90.036H45.3251V89.2548Z" fill="white"/>
</mask>
<g mask="url(#mask33_11_1533)">
<mask id="mask34_11_1533" style="mask-type:luminance" maskUnits="userSpaceOnUse" x="45" y="89" width="2" height="2">
<path d="M46.2637 89.5394C45.8344 90.1634 45.45 90.0686 45.3551 89.9238C45.3052 89.779 45.3551 89.3971 45.4974 89.2998C45.5948 89.2049 46.1214 89.3497 46.1214 89.3497" fill="white"/>
</mask>
<g mask="url(#mask34_11_1533)">
<path d="M43.438 87.3827H48.1754V92.0328H43.438V87.3827Z" fill="#E46A04"/>
</g>
</g>
<mask id="mask35_11_1533" style="mask-type:luminance" maskUnits="userSpaceOnUse" x="44" y="88" width="2" height="2">
<path d="M44.7509 88.8704H45.6943V89.6516H44.7509V88.8704Z" fill="white"/>
</mask>
<g mask="url(#mask35_11_1533)">
<mask id="mask36_11_1533" style="mask-type:luminance" maskUnits="userSpaceOnUse" x="44" y="88" width="2" height="2">
<path d="M45.6895 89.1576C45.2577 89.7791 44.8758 89.6842 44.7785 89.5394C44.7311 89.3972 44.7785 89.0128 44.9233 88.9179C45.0181 88.8206 45.5448 88.9654 45.5448 88.9654" fill="white"/>
</mask>
<g mask="url(#mask36_11_1533)">
<path d="M42.8613 87.0009H47.6012V91.6484H42.8613V87.0009Z" fill="#E46A04"/>
</g>
</g>
<mask id="mask37_11_1533" style="mask-type:luminance" maskUnits="userSpaceOnUse" x="45" y="89" width="2" height="2">
<path d="M45.1327 89.6366H46.0787V90.4178H45.1327V89.6366Z" fill="white"/>
</mask>
<g mask="url(#mask37_11_1533)">
<mask id="mask38_11_1533" style="mask-type:luminance" maskUnits="userSpaceOnUse" x="45" y="89" width="2" height="2">
<path d="M46.0737 89.9237C45.6419 90.5477 45.2575 90.4504 45.1627 90.3081C45.1153 90.1633 45.1627 89.7789 45.305 89.6841C45.4023 89.5892 45.929 89.7315 45.929 89.7315" fill="white"/>
</mask>
<g mask="url(#mask38_11_1533)">
<path d="M43.2457 87.7671H47.9856V92.4147H43.2457V87.7671Z" fill="#E46A04"/>
</g>
</g>
<mask id="mask39_11_1533" style="mask-type:luminance" maskUnits="userSpaceOnUse" x="43" y="88" width="2" height="2">
<path d="M43.6801 88.0442H44.7034V89.0276H43.6801V88.0442Z" fill="white"/>
</mask>
<g mask="url(#mask39_11_1533)">
<mask id="mask40_11_1533" style="mask-type:luminance" maskUnits="userSpaceOnUse" x="43" y="88" width="2" height="2">
<path d="M44.2641 88.0516C44.7433 88.7231 44.2166 89.0101 44.0719 88.9627C43.9271 88.9153 43.8322 88.2913 43.9271 88.1964C44.0244 88.0991 44.6459 88.1964 44.6959 88.3387C44.7433 88.4834 44.3115 89.0101 44.1667 89.0101C43.977 89.0101 43.6875 88.7231 43.6875 88.5783C43.6401 88.3861 44.0719 88.0516 44.0719 88.0516" fill="white"/>
</mask>
<g mask="url(#mask40_11_1533)">
<path d="M41.7706 86.1348H46.7052V90.9745H41.7706V86.1348Z" fill="#E46A04"/>
</g>
</g>
<mask id="mask41_11_1533" style="mask-type:luminance" maskUnits="userSpaceOnUse" x="44" y="88" width="2" height="2">
<path d="M44.0795 88.6782H45.023V89.4595H44.0795V88.6782Z" fill="white"/>
</mask>
<g mask="url(#mask41_11_1533)">
<mask id="mask42_11_1533" style="mask-type:luminance" maskUnits="userSpaceOnUse" x="44" y="88" width="2" height="2">
<path d="M45.0181 88.9653C44.5863 89.5893 44.2044 89.492 44.1071 89.3497C44.0597 89.205 44.1071 88.8206 44.2519 88.7257C44.3467 88.6309 44.8759 88.7731 44.8759 88.7731" fill="white"/>
</mask>
<g mask="url(#mask42_11_1533)">
<path d="M42.1899 86.8086H46.9299V91.4562H42.1899V86.8086Z" fill="#E46A04"/>
</g>
</g>
<mask id="mask43_11_1533" style="mask-type:luminance" maskUnits="userSpaceOnUse" x="44" y="88" width="2" height="2">
<path d="M44.3666 88.8704H45.3126V89.6516H44.3666V88.8704Z" fill="white"/>
</mask>
<g mask="url(#mask43_11_1533)">
<mask id="mask44_11_1533" style="mask-type:luminance" maskUnits="userSpaceOnUse" x="44" y="88" width="2" height="2">
<path d="M45.3051 89.1576C44.8758 89.7791 44.4914 89.6842 44.3965 89.5394C44.3466 89.3972 44.3965 89.0128 44.5388 88.9179C44.6361 88.8206 45.1628 88.9654 45.1628 88.9654" fill="white"/>
</mask>
<g mask="url(#mask44_11_1533)">
<path d="M42.4795 87.0009H47.2169V91.6484H42.4795V87.0009Z" fill="#E46A04"/>
</g>
</g>
<mask id="mask45_11_1533" style="mask-type:luminance" maskUnits="userSpaceOnUse" x="43" y="88" width="2" height="2">
<path d="M43.408 88.2963H44.3539V89.0775H43.408V88.2963Z" fill="white"/>
</mask>
<g mask="url(#mask45_11_1533)">
<mask id="mask46_11_1533" style="mask-type:luminance" maskUnits="userSpaceOnUse" x="43" y="88" width="2" height="2">
<path d="M44.3466 88.5808C43.9173 89.2048 43.5329 89.1099 43.438 88.9652C43.3881 88.8204 43.438 88.4385 43.5803 88.3412C43.6776 88.2463 44.2043 88.3911 44.2043 88.3911" fill="white"/>
</mask>
<g mask="url(#mask46_11_1533)">
<path d="M41.5211 86.4242H46.2585V91.0743H41.5211V86.4242Z" fill="#E46A04"/>
</g>
</g>
<mask id="mask47_11_1533" style="mask-type:luminance" maskUnits="userSpaceOnUse" x="42" y="87" width="2" height="2">
<path d="M42.7366 87.912H43.6826V88.6932H42.7366V87.912Z" fill="white"/>
</mask>
<g mask="url(#mask47_11_1533)">
<mask id="mask48_11_1533" style="mask-type:luminance" maskUnits="userSpaceOnUse" x="42" y="87" width="2" height="2">
<path d="M43.6775 88.1989C43.2457 88.8204 42.8613 88.7256 42.7664 88.5808C42.719 88.4386 42.7664 88.0542 42.9087 87.9593C43.0061 87.862 43.5327 88.0067 43.5327 88.0067" fill="white"/>
</mask>
<g mask="url(#mask48_11_1533)">
<path d="M40.8496 86.0424H45.5895V90.6899H40.8496V86.0424Z" fill="#E46A04"/>
</g>
</g>
<mask id="mask49_11_1533" style="mask-type:luminance" maskUnits="userSpaceOnUse" x="42" y="87" width="2" height="2">
<path d="M42.759 87.7122H43.7799V88.9227H42.759V87.7122Z" fill="white"/>
</mask>
<g mask="url(#mask49_11_1533)">
<mask id="mask50_11_1533" style="mask-type:luminance" maskUnits="userSpaceOnUse" x="42" y="87" width="2" height="2">
<path d="M43.7726 88.4386C42.9589 88.8205 42.8616 88.199 42.9589 88.1016C43.0537 88.0068 43.7726 88.2464 43.7726 88.3912C43.82 88.5334 43.3408 88.9178 43.1486 88.9178C43.0063 88.8704 42.7193 88.3912 42.7667 88.199C42.8141 88.0068 43.1012 87.7197 43.2934 87.7197C43.4381 87.7197 43.7726 88.0542 43.7726 88.0542" fill="white"/>
</mask>
<g mask="url(#mask50_11_1533)">
<path d="M40.8496 85.8027H45.6894V90.8322H40.8496V85.8027Z" fill="#E46A04"/>
</g>
</g>
<mask id="mask51_11_1533" style="mask-type:luminance" maskUnits="userSpaceOnUse" x="42" y="87" width="2" height="2">
<path d="M42.2573 87.53H43.2033V88.3088H42.2573V87.53Z" fill="white"/>
</mask>
<g mask="url(#mask51_11_1533)">
<mask id="mask52_11_1533" style="mask-type:luminance" maskUnits="userSpaceOnUse" x="42" y="87" width="2" height="2">
<path d="M43.1985 87.8147C42.7667 88.4387 42.3823 88.3414 42.2874 88.1991C42.24 88.0543 42.2874 87.6724 42.4297 87.5751C42.5271 87.4802 43.0537 87.6225 43.0537 87.6225" fill="white"/>
</mask>
<g mask="url(#mask52_11_1533)">
<path d="M40.3704 85.658H45.1103V90.308H40.3704V85.658Z" fill="#E46A04"/>
</g>
</g>
<path d="M46.2634 92.6069C61.871 111.679 79.0759 113.251 97.8808 97.3244" stroke="#FD8320" stroke-width="3.99662"/>
<path d="M47.9933 93.7027C60.6405 107.957 75.3445 110.553 92.1052 101.488" stroke="#FD8320" stroke-width="3.96548"/>
<path d="M51.0108 95.2751C61.8086 105.042 74.1413 107.71 88.0092 103.277" stroke="#FD8320" stroke-width="3.95696"/>
<path d="M53.5319 96.7852C64.7639 103.921 76.8146 105.793 89.684 102.406" stroke="#FD8320" stroke-width="3.92399"/>
<path d="M45.4248 91.6484C65.4652 104.995 82.7101 107.049 97.1595 97.8111" stroke="#FD8320" stroke-width="4"/>
<path d="M56.3922 101.473C76.7022 108.002 91.6532 105.591 101.243 94.2418" stroke="#FD8320" stroke-width="3.99678"/>
<mask id="mask53_11_1533" style="mask-type:luminance" maskUnits="userSpaceOnUse" x="39" y="85" width="13" height="12">
<path d="M39.1722 85.7828H51.3128V96.6455H39.1722V85.7828Z" fill="white"/>
</mask>
<g mask="url(#mask53_11_1533)">
<mask id="mask54_11_1533" style="mask-type:luminance" maskUnits="userSpaceOnUse" x="38" y="84" width="13" height="13">
<path d="M38.3737 87.208L40.7548 84.5947L50.7838 93.7276L48.4026 96.3409L38.3737 87.208Z" fill="white"/>
</mask>
<g mask="url(#mask54_11_1533)">
<mask id="mask55_11_1533" style="mask-type:luminance" maskUnits="userSpaceOnUse" x="39" y="85" width="12" height="12">
<path d="M39.5641 85.9001L50.7761 93.7201L48.395 96.3359L39.5641 85.9001Z" fill="white"/>
</mask>
<g mask="url(#mask55_11_1533)">
<path d="M38.3737 87.208L40.7548 84.5947L50.7738 93.7176L48.3926 96.3309L38.3737 87.208Z" fill="#FD8320"/>
</g>
</g>
</g>
<path d="M36.7594 25.7974L42.7698 32.1772L40.9626 33.8744L38.6164 31.3884L36.1603 33.7147L38.5066 36.2007L36.6995 37.898L30.6891 31.5182L32.4962 29.8209L34.7526 32.2171L37.2087 29.8908L34.9523 27.4946L36.7594 25.7974Z" fill="#ED6969"/>
<path d="M49.1584 26.005L45.9835 27.9119L46.273 29.729L44.1065 31.0369L42.8884 21.5322L44.9751 20.2742L52.8325 25.7754L50.626 27.1032L49.1584 26.005ZM47.5809 24.8069L45.1648 22.9898L45.654 25.975L47.5809 24.8069Z" fill="#ED6969"/>
<path d="M61.8995 22.619L60.4419 18.2161L59.4634 22.4992L58.4151 22.8387L55.1503 20.0531L56.5481 24.3563L54.3816 25.0651L51.6759 16.7285L53.6128 16.0995L58.1056 19.9533L59.4035 14.2125L61.3404 13.5835L64.0761 21.9102L61.8995 22.619Z" fill="#ED6969"/>
<path d="M74.5918 20.8888L74.2623 16.2562L72.2655 20.17L71.1673 20.2398L68.6813 16.7454L68.9808 21.2582L66.7044 21.408L66.1254 12.662L68.1521 12.5322L71.5766 17.3744L74.2324 12.1328L76.2691 11.993L76.8782 20.739L74.5918 20.8888Z" fill="#ED6969"/>
<path d="M83.8996 21.8899C82.9861 21.7301 82.2024 21.3932 81.5434 20.8815C80.8845 20.3698 80.4052 19.7383 80.1057 18.9845C79.8062 18.2257 79.7288 17.417 79.8761 16.5584C80.0209 15.7073 80.3603 14.9784 80.8945 14.3719C81.4261 13.7604 82.0875 13.3236 82.8813 13.064C83.6725 12.7994 84.5236 12.7445 85.4372 12.9042C86.3557 13.059 87.1445 13.391 87.8034 13.9026C88.4673 14.4168 88.9466 15.0483 89.2411 15.7996C89.5406 16.5534 89.6155 17.3546 89.4707 18.2058C89.3235 19.0644 88.984 19.8007 88.4524 20.4122C87.9257 21.0237 87.2643 21.4605 86.4655 21.7201C85.6718 21.9847 84.8182 22.0421 83.8996 21.8899ZM84.2491 19.8631C84.6884 19.938 85.1002 19.9005 85.4871 19.7533C85.879 19.6085 86.2085 19.3639 86.4755 19.0244C86.7476 18.685 86.9248 18.2731 87.0047 17.7864C87.0895 17.3022 87.0646 16.8554 86.9248 16.4486C86.785 16.0367 86.5554 15.6973 86.2359 15.4302C85.9164 15.1656 85.537 14.9959 85.0977 14.921C84.6634 14.8411 84.2516 14.8761 83.8597 15.0209C83.4728 15.1681 83.1434 15.4102 82.8713 15.7497C82.6042 16.0891 82.427 16.5035 82.3421 16.9877C82.2623 17.4744 82.2922 17.9237 82.432 18.3355C82.5718 18.7424 82.8014 19.0794 83.1209 19.3439C83.4404 19.611 83.8148 19.7832 84.2491 19.8631Z" fill="#ED6969"/>
<path d="M94.952 25.0876C94.0983 24.7407 93.4069 24.2515 92.8753 23.62C92.3486 22.986 92.0191 22.2721 91.8869 21.4734C91.7596 20.6747 91.8619 19.871 92.1964 19.0573C92.5208 18.2386 93.0051 17.5871 93.644 17.1004C94.288 16.6162 95.0218 16.3292 95.8405 16.2418C96.6592 16.1494 97.4929 16.2767 98.3465 16.6212C99.0978 16.9207 99.7193 17.3201 100.214 17.8193C100.705 18.3185 101.047 18.8975 101.242 19.5565L99.2451 20.2853C98.978 19.4467 98.4663 18.8751 97.7075 18.5681C97.2608 18.3958 96.8289 18.3359 96.4096 18.3884C95.9903 18.4433 95.6134 18.608 95.2814 18.8876C94.947 19.1621 94.6924 19.5265 94.5127 19.9858C94.3255 20.4401 94.2556 20.8819 94.303 21.3137C94.3479 21.7405 94.5052 22.1224 94.7722 22.4618C95.0368 22.7963 95.3937 23.0459 95.8405 23.2206C96.5993 23.5251 97.3631 23.4627 98.1369 23.0309L99.0754 24.9479C98.4813 25.2798 97.8323 25.4595 97.1285 25.487C96.4296 25.5194 95.7033 25.3872 94.952 25.0876Z" fill="#ED6969"/>
<path d="M105.024 26.5857L103.706 26.9152L102.498 28.7423L100.442 27.3845L105.264 20.0662L107.321 21.424L105.314 24.4691L110.146 23.281L112.432 24.7886L107.301 26.0666L107.77 32.2167L105.354 30.6293L105.024 26.5857Z" fill="#ED6969"/>
<path d="M111.115 35.7421C110.608 35.2479 110.179 34.7038 109.827 34.1048C109.472 33.5107 109.25 32.9616 109.158 32.4574L111.015 31.7286C111.115 32.1878 111.295 32.6546 111.554 33.1263C111.814 33.5981 112.126 34.0099 112.493 34.3643C113.164 35.0233 113.666 35.183 114 34.8436C114.172 34.6639 114.202 34.4367 114.09 34.1647C113.983 33.8901 113.763 33.4982 113.431 32.9865C113.057 32.4274 112.767 31.9357 112.563 31.5089C112.363 31.0846 112.273 30.6303 112.293 30.1511C112.318 29.6718 112.545 29.2126 112.972 28.7733C113.344 28.3939 113.783 28.1518 114.29 28.0444C114.801 27.9396 115.351 28.002 115.937 28.2341C116.529 28.4613 117.128 28.8681 117.734 29.4522C118.146 29.859 118.506 30.3058 118.813 30.7901C119.125 31.2768 119.347 31.7535 119.481 32.2178L117.654 33.0065C117.367 32.103 116.945 31.3766 116.386 30.83C116.032 30.4855 115.722 30.2859 115.458 30.231C115.191 30.1785 114.974 30.2359 114.809 30.4007C114.649 30.5679 114.622 30.7851 114.729 31.0496C114.841 31.3167 115.064 31.7061 115.398 32.2178C115.777 32.7844 116.067 33.2761 116.267 33.6954C116.466 34.1197 116.556 34.574 116.536 35.0532C116.521 35.5375 116.307 35.9967 115.887 36.431C115.52 36.8029 115.081 37.0401 114.569 37.1399C114.063 37.2397 113.511 37.1748 112.912 36.9502C112.313 36.7306 111.714 36.3262 111.115 35.7421Z" fill="#ED6969"/>
<path d="M54.7424 101.181C72.5964 109.343 88.5833 106.607 102.706 92.9738" stroke="#FD8320" stroke-width="2.96984"/>
<path d="M55.1293 99.5083C74.1588 108.459 91.0094 105.404 105.683 90.3429" stroke="#FD8320" stroke-width="0.996109"/>
<mask id="mask56_11_1533" style="mask-type:luminance" maskUnits="userSpaceOnUse" x="95" y="93" width="8" height="6">
<path d="M95.5521 93.3956H102.341V98.5624H95.5521V93.3956Z" fill="white"/>
</mask>
<g mask="url(#mask56_11_1533)">
<mask id="mask57_11_1533" style="mask-type:luminance" maskUnits="userSpaceOnUse" x="95" y="93" width="8" height="6">
<path d="M95.8168 97.6865C100.562 94.6214 101.136 93.5656 101.615 93.4707C101.905 93.4233 102.334 93.7103 102.334 93.8052C102.334 93.9499 101.712 94.3817 101.615 94.3318C101.473 94.237 101.568 93.4707 101.712 93.4233C101.807 93.3734 102.334 93.8052 102.334 94.0922C102.334 94.4766 101.52 95.1006 100.896 95.6273C99.7954 96.5383 97.0623 98.5027 96.2012 98.5501C95.9142 98.5501 95.6246 98.4053 95.5772 98.263C95.5298 98.1183 95.8168 97.6865 95.8168 97.6865Z" fill="white"/>
</mask>
<g mask="url(#mask57_11_1533)">
<path d="M93.6601 91.5062H104.303V100.467H93.6601V91.5062Z" fill="#FD8320"/>
</g>
</g>
<mask id="mask58_11_1533" style="mask-type:luminance" maskUnits="userSpaceOnUse" x="96" y="93" width="5" height="6">
<path d="M96.0563 93.5978H100.904V98.2154H96.0563V93.5978Z" fill="white"/>
</mask>
<g mask="url(#mask58_11_1533)">
<mask id="mask59_11_1533" style="mask-type:luminance" maskUnits="userSpaceOnUse" x="96" y="93" width="5" height="6">
<path d="M96.1539 97.3519C99.5085 94.7161 99.7481 93.8525 100.13 93.6628C100.37 93.5655 100.754 93.6628 100.849 93.8051C100.946 93.9498 100.896 94.3317 100.801 94.4291C100.657 94.5239 100.035 94.4765 99.9877 94.3317C99.8904 94.1895 100.083 93.6628 100.227 93.6129C100.37 93.5655 100.896 93.9498 100.896 94.2369C100.946 94.6687 100.13 95.4824 99.5559 96.059C98.8371 96.7778 97.3519 98.0233 96.7279 98.1656C96.4409 98.2155 96.2013 98.1656 96.1039 98.0233C96.0091 97.8786 96.1539 97.3519 96.1539 97.3519Z" fill="white"/>
</mask>
<g mask="url(#mask59_11_1533)">
<path d="M94.1868 91.6958H102.87V100.082H94.1868V91.6958Z" fill="#FD8320"/>
</g>
</g>
<mask id="mask60_11_1533" style="mask-type:luminance" maskUnits="userSpaceOnUse" x="100" y="90" width="5" height="4">
<path d="M100.422 90.9395H104.515V93.8698H100.422V90.9395Z" fill="white"/>
</mask>
<g mask="url(#mask60_11_1533)">
<mask id="mask61_11_1533" style="mask-type:luminance" maskUnits="userSpaceOnUse" x="100" y="90" width="5" height="4">
<path d="M100.656 92.9913C104.156 90.8822 104.395 90.9771 104.49 91.1218C104.54 91.2666 104.156 91.9355 104.011 91.9355C103.916 91.8881 103.629 91.1692 103.724 91.0744C103.771 90.9296 104.301 90.9296 104.443 91.0744C104.54 91.2167 104.54 91.5536 104.395 91.7932C104.011 92.4148 101.855 93.7576 101.136 93.8525C100.849 93.9024 100.514 93.7576 100.467 93.6128C100.369 93.4706 100.656 92.9913 100.656 92.9913Z" fill="white"/>
</mask>
<g mask="url(#mask61_11_1533)">
<path d="M98.5499 89.0127H106.415V95.7694H98.5499V89.0127Z" fill="#FD8320"/>
</g>
</g>
<mask id="mask62_11_1533" style="mask-type:luminance" maskUnits="userSpaceOnUse" x="104" y="89" width="2" height="3">
<path d="M104.348 89.9636H105.868V91.5336H104.348V89.9636Z" fill="white"/>
</mask>
<g mask="url(#mask62_11_1533)">
<mask id="mask63_11_1533" style="mask-type:luminance" maskUnits="userSpaceOnUse" x="104" y="89" width="2" height="3">
<path d="M104.348 90.6427C105.641 90.0187 105.928 90.5479 105.833 90.6902C105.786 90.7875 105.019 90.7376 104.969 90.6427C104.922 90.5479 105.401 89.9239 105.546 89.9713C105.641 90.0187 105.786 90.6427 105.688 90.8824C105.546 91.1694 104.827 91.6012 104.588 91.5064C104.443 91.4564 104.348 90.6427 104.348 90.6427Z" fill="white"/>
</mask>
<g mask="url(#mask63_11_1533)">
<path d="M102.431 88.0542H107.797V93.463H102.431V88.0542Z" fill="#FD8320"/>
</g>
</g>
<mask id="mask64_11_1533" style="mask-type:luminance" maskUnits="userSpaceOnUse" x="100" y="93" width="2" height="1">
<path d="M100.342 93.0885H101.285V93.8698H100.342V93.0885Z" fill="white"/>
</mask>
<g mask="url(#mask64_11_1533)">
<mask id="mask65_11_1533" style="mask-type:luminance" maskUnits="userSpaceOnUse" x="100" y="93" width="2" height="1">
<path d="M101.281 93.3732C100.849 93.9972 100.467 93.9023 100.369 93.7575C100.322 93.6128 100.369 93.2309 100.514 93.1335C100.609 93.0387 101.136 93.1835 101.136 93.1835" fill="white"/>
</mask>
<g mask="url(#mask65_11_1533)">
<path d="M98.4526 91.2167H103.192V95.8667H98.4526V91.2167Z" fill="#FD8320"/>
</g>
</g>
<path d="M100.824 93.5404C103.085 91.8156 105.344 90.0884 107.603 88.3637" stroke="#FD8320"/>
<path d="M53.3422 99.386C74.7854 105.706 90.4353 103.829 100.29 93.7575" stroke="#FD8320" stroke-width="0.994074" stroke-linecap="round"/>
<path d="M49.5931 95.0205C69.7933 112.158 86.7137 111.664 100.354 93.5429" stroke="#FD8320"/>
<path d="M48.3502 90.2456L52.5335 99.9301" stroke="#442E18" stroke-width="0.998581"/>
<path d="M55.3214 93.4705L47.4166 95.1802" stroke="#442E18"/>
<path d="M88.0067 97.8135L66.0793 107.48" stroke="#442E18" stroke-width="0.992555"/>
<path d="M82.7301 107.55L61.5615 95.3251" stroke="#442E18" stroke-width="0.997249"/>
<path d="M98.0705 94.4664L97.1919 99.1789" stroke="#442E18" stroke-width="0.971169"/>
<path d="M95.5546 96.0564L100.349 95.984" stroke="#442E18" stroke-width="0.980092"/>
<path d="M107.6 88.3338C84.4299 116.576 62.0382 115.972 40.4253 86.5217" stroke="#FD8320" stroke-width="0.997899"/>
<path d="M107.603 88.2888C92.1201 102.334 69.696 101.73 40.3255 86.4742" stroke="#E46A04" stroke-width="0.999446"/>
</svg>
